<svg id="kity_svg_6" xmlns="http://www.w3.org/2000/svg" xmlns:xlink="http://www.w3.org/1999/xlink" version="1.1" width="733" height="264" style="background: rgb(251, 251, 251); visibility: visible;" viewBox="0 0 733 264"><defs id="kity_defs_7"><linearGradient id="kity_linearGradient_17" x1="0" y1="0" x2="0" y2="1"><stop id="kity_stop_18" offset="0" stop-color="rgb(255, 255, 255)"></stop><stop id="kity_stop_19" offset="1" stop-color="rgb(204, 204, 204)"></stop></linearGradient><marker id="kity_marker_2" orient="auto" refX="6" refY="0" viewBox="-7 -7 14 14" markerWidth="7" markerHeight="7" markerUnits="userSpaceOnUse"><path id="kity_path_3" fill="rgb(115, 161, 191)" stroke="none" d="M6,0A6,6,0,1,1,-6,0A6,6,0,1,1,6,0"></path></marker></defs><g id="kity_g_8"><g id="minder1" text-rendering="optimize-speed"><g id="minder_connect_group1"><path id="kity_path_31" fill="none" stroke="rgb(115, 161, 191)" stroke-width="1" d="M60.5,132.5A158,99,0,0,1,218.5,33.5"></path><path id="kity_path_33" fill="none" stroke="rgb(115, 161, 191)" stroke-width="1" d="M359.5,33.5C379.5,33.5,379.5,33.5,399.5,33.5"></path><path id="kity_path_35" fill="none" stroke="rgb(115, 161, 191)" stroke-width="1" d="M60.5,132.5A158,33,0,0,1,218.5,99.5"></path><path id="kity_path_37" fill="none" stroke="rgb(115, 161, 191)" stroke-width="1" d="M341.5,99.5C361.5,99.5,361.5,99.5,381.5,99.5"></path><path id="kity_path_39" fill="none" stroke="rgb(115, 161, 191)" stroke-width="1" d="M60.5,132.5A158,33,0,0,0,218.5,165.5"></path><path id="kity_path_41" fill="none" stroke="rgb(115, 161, 191)" stroke-width="1" d="M359.5,165.5C379.5,165.5,379.5,165.5,399.5,165.5"></path><path id="kity_path_43" fill="none" stroke="rgb(115, 161, 191)" stroke-width="1" d="M60.5,132.5A158,99,0,0,0,218.5,231.5"></path><path id="kity_path_45" fill="none" stroke="rgb(115, 161, 191)" stroke-width="1" d="M345.5,231.5C365.5,231.5,365.5,231.5,385.5,231.5"></path></g><g id="minder_node1"><path id="node_outline1" fill="rgb(115, 161, 191)" stroke="rgb(115, 161, 191)" d="M25.5,112.5h70a5,5,0,0,1,5,5v30a5,5,0,0,1,-5,5h-70a5,5,0,0,1,-5,-5v-30a5,5,0,0,1,5,-5z" stroke-width="3"></path><g id="node_text1" fill="white"><text id="kity_text_22" text-rendering="inherit" font-size="16" dy=".8em" y="124.5" x="44.5">交互</text></g></g><g id="kity_g_12"><path id="kity_path_13" fill="none" stroke="none" d="M44.5,132.5h0v0h0z"></path></g><g id="kity_g_14"><path id="kity_path_15" fill="none" stroke="none" d="M44.5,132.5h0v0h0z"></path><path id="kity_path_16" fill="none" stroke="none"></path></g><g id="minder_node2"><g id="node_expander2" style="cursor: pointer;"><path id="kity_path_74" fill="white" stroke="gray" d="M219.5,33.5A6,6,0,1,1,207.5,33.5A6,6,0,1,1,219.5,33.5"></path><path id="kity_path_75" fill="none" stroke="gray" d="M209,33.5L218,33.5"></path></g><path id="node_outline3" fill="rgb(238, 243, 246)" stroke="rgb(115, 161, 191)" d="M223.5,20.5h133a3,3,0,0,1,3,3v20a3,3,0,0,1,-3,3h-133a3,3,0,0,1,-3,-3v-20a3,3,0,0,1,3,-3z" stroke-width="1"></path><g id="node_text3" fill="black"><text id="kity_text_49" text-rendering="inherit" font-size="14" dy=".8em" y="26.5" x="240.5">SVG中使用链接</text></g></g><g id="minder_node3"><g id="node_expander1" display="none" style="cursor: pointer;"><path id="kity_path_71" fill="white" stroke="gray" d="M415.5,33.5A6,6,0,1,1,403.5,33.5A6,6,0,1,1,415.5,33.5"></path><path id="kity_path_72" fill="none" stroke="gray"></path></g><path id="node_outline2" fill="none" stroke="none" d="M404.5,22.5h304a5,5,0,0,1,5,5v12a5,5,0,0,1,-5,5h-304a5,5,0,0,1,-5,-5v-12a5,5,0,0,1,5,-5z"></path><g id="node_text2" fill="black"><text id="kity_text_47" text-rendering="inherit" font-size="12" dy=".8em" y="27.5" x="409.5">包含在&lt;a&gt;标签内，设置hover与click时svg图形的样式</text></g></g><g id="minder_node4"><g id="node_expander4" style="cursor: pointer;"><path id="kity_path_80" fill="white" stroke="gray" d="M219.5,99.5A6,6,0,1,1,207.5,99.5A6,6,0,1,1,219.5,99.5"></path><path id="kity_path_81" fill="none" stroke="gray" d="M209,99.5L218,99.5"></path></g><path id="node_outline5" fill="rgb(238, 243, 246)" stroke="rgb(115, 161, 191)" d="M223.5,86.5h115a3,3,0,0,1,3,3v20a3,3,0,0,1,-3,3h-115a3,3,0,0,1,-3,-3v-20a3,3,0,0,1,3,-3z" stroke-width="1"></path><g id="node_text5" fill="black"><text id="kity_text_53" text-rendering="inherit" font-size="14" dy=".8em" y="92.5" x="240.5">控制CSS动画</text></g></g><g id="minder_node5"><g id="node_expander3" display="none" style="cursor: pointer;"><path id="kity_path_77" fill="white" stroke="gray" d="M397.5,99.5A6,6,0,1,1,385.5,99.5A6,6,0,1,1,397.5,99.5"></path><path id="kity_path_78" fill="none" stroke="gray"></path></g><path id="node_outline4" fill="none" stroke="none" d="M386.5,88.5h153a5,5,0,0,1,5,5v12a5,5,0,0,1,-5,5h-153a5,5,0,0,1,-5,-5v-12a5,5,0,0,1,5,-5z"></path><g id="node_text4" fill="black"><text id="kity_text_51" text-rendering="inherit" font-size="12" dy=".8em" y="93.5" x="391.5">设置animation的各种属性</text></g></g><g id="minder_node6"><g id="node_expander6" style="cursor: pointer;"><path id="kity_path_86" fill="white" stroke="gray" d="M219.5,165.5A6,6,0,1,1,207.5,165.5A6,6,0,1,1,219.5,165.5"></path><path id="kity_path_87" fill="none" stroke="gray" d="M209,165.5L218,165.5"></path></g><path id="node_outline7" fill="rgb(238, 243, 246)" stroke="rgb(115, 161, 191)" d="M223.5,152.5h133a3,3,0,0,1,3,3v20a3,3,0,0,1,-3,3h-133a3,3,0,0,1,-3,-3v-20a3,3,0,0,1,3,-3z" stroke-width="1"></path><g id="node_text7" fill="black"><text id="kity_text_57" text-rendering="inherit" font-size="14" dy=".8em" y="158.5" x="240.5">触发的SMIL动画</text></g></g><g id="minder_node7"><g id="node_expander5" display="none" style="cursor: pointer;"><path id="kity_path_83" fill="white" stroke="gray" d="M415.5,165.5A6,6,0,1,1,403.5,165.5A6,6,0,1,1,415.5,165.5"></path><path id="kity_path_84" fill="none" stroke="gray"></path></g><path id="node_outline6" fill="none" stroke="none" d="M404.5,154.5h233a5,5,0,0,1,5,5v12a5,5,0,0,1,-5,5h-233a5,5,0,0,1,-5,-5v-12a5,5,0,0,1,5,-5z"></path><g id="node_text6" fill="black"><text id="kity_text_55" text-rendering="inherit" font-size="12" dy=".8em" y="159.5" x="409.5">如设置begin属性为其它图形的event事件</text></g></g><g id="minder_node8"><g id="node_expander8" style="cursor: pointer;"><path id="kity_path_92" fill="white" stroke="gray" d="M219.5,231.5A6,6,0,1,1,207.5,231.5A6,6,0,1,1,219.5,231.5"></path><path id="kity_path_93" fill="none" stroke="gray" d="M209,231.5L218,231.5"></path></g><path id="node_outline9" fill="rgb(238, 243, 246)" stroke="rgb(115, 161, 191)" d="M223.5,218.5h119a3,3,0,0,1,3,3v20a3,3,0,0,1,-3,3h-119a3,3,0,0,1,-3,-3v-20a3,3,0,0,1,3,-3z" stroke-width="1"></path><g id="node_text9" fill="black"><text id="kity_text_61" text-rendering="inherit" font-size="14" dy=".8em" y="224.5" x="240.5">脚本控制SVG</text></g></g><g id="minder_node9"><g id="node_expander7" display="none" style="cursor: pointer;"><path id="kity_path_89" fill="white" stroke="gray" d="M401.5,231.5A6,6,0,1,1,389.5,231.5A6,6,0,1,1,401.5,231.5"></path><path id="kity_path_90" fill="none" stroke="gray"></path></g><path id="node_outline8" fill="none" stroke="none" d="M390.5,220.5h178a5,5,0,0,1,5,5v12a5,5,0,0,1,-5,5h-178a5,5,0,0,1,-5,-5v-12a5,5,0,0,1,5,-5z"></path><g id="node_text8" fill="black"><text id="kity_text_59" text-rendering="inherit" font-size="12" dy=".8em" y="225.5" x="395.5">设置事件监听，改变对象属性值</text></g></g></g></g></svg>