<svg id="kity_svg_6" xmlns="http://www.w3.org/2000/svg" xmlns:xlink="http://www.w3.org/1999/xlink" version="1.1" width="841" height="1066" style="background: rgb(251, 251, 251); visibility: visible;" viewBox="0 0 841 1066"><defs id="kity_defs_7"><linearGradient id="kity_linearGradient_17" x1="0" y1="0" x2="0" y2="1"><stop id="kity_stop_18" offset="0" stop-color="rgb(255, 255, 255)"></stop><stop id="kity_stop_19" offset="1" stop-color="rgb(204, 204, 204)"></stop></linearGradient><marker id="kity_marker_2" orient="auto" refX="6" refY="0" viewBox="-7 -7 14 14" markerWidth="7" markerHeight="7" markerUnits="userSpaceOnUse"><path id="kity_path_3" fill="rgb(115, 161, 191)" stroke="none" d="M6,0A6,6,0,1,1,-6,0A6,6,0,1,1,6,0"></path></marker></defs><g id="kity_g_8"><g id="minder1" text-rendering="optimize-speed"><g id="minder_connect_group1"><path id="kity_path_31" fill="none" stroke="rgb(115, 161, 191)" stroke-width="1" d="M76.5,469.5A174,436,0,0,1,250.5,33.5"></path><path id="kity_path_33" fill="none" stroke="rgb(115, 161, 191)" stroke-width="1" d="M320.5,33.5C340.5,33.5,340.5,33.5,360.5,33.5"></path><path id="kity_path_35" fill="none" stroke="rgb(115, 161, 191)" stroke-width="1" d="M76.5,469.5A174,294,0,0,1,250.5,175.5"></path><path id="kity_path_37" fill="none" stroke="rgb(115, 161, 191)" stroke-width="1" d="M320.5,175.5C340.5,175.5,340.5,97.5,360.5,97.5"></path><path id="kity_path_39" fill="none" stroke="rgb(115, 161, 191)" stroke-width="1" d="M404.5,97.5C424.5,97.5,424.5,97.5,444.5,97.5"></path><path id="kity_path_41" fill="none" stroke="rgb(115, 161, 191)" stroke-width="1" d="M320.5,175.5C340.5,175.5,340.5,149.5,360.5,149.5"></path><path id="kity_path_43" fill="none" stroke="rgb(115, 161, 191)" stroke-width="1" d="M404.5,149.5C424.5,149.5,424.5,149.5,444.5,149.5"></path><path id="kity_path_45" fill="none" stroke="rgb(115, 161, 191)" stroke-width="1" d="M320.5,175.5C340.5,175.5,340.5,201.5,360.5,201.5"></path><path id="kity_path_47" fill="none" stroke="rgb(115, 161, 191)" stroke-width="1" d="M416.5,201.5C436.5,201.5,436.5,201.5,456.5,201.5"></path><path id="kity_path_49" fill="none" stroke="rgb(115, 161, 191)" stroke-width="1" d="M320.5,175.5C340.5,175.5,340.5,253.5,360.5,253.5"></path><path id="kity_path_51" fill="none" stroke="rgb(115, 161, 191)" stroke-width="1" d="M464.5,253.5C484.5,253.5,484.5,253.5,504.5,253.5"></path><path id="kity_path_53" fill="none" stroke="rgb(115, 161, 191)" stroke-width="1" d="M76.5,469.5A174,128,0,0,1,250.5,341.5"></path><path id="kity_path_55" fill="none" stroke="rgb(115, 161, 191)" stroke-width="1" d="M320.5,341.5C340.5,341.5,340.5,315.5,360.5,315.5"></path><path id="kity_path_57" fill="none" stroke="rgb(115, 161, 191)" stroke-width="1" d="M320.5,341.5C340.5,341.5,340.5,367.5,360.5,367.5"></path><path id="kity_path_59" fill="none" stroke="rgb(115, 161, 191)" stroke-width="1" d="M428.5,367.5C448.5,367.5,448.5,367.5,468.5,367.5"></path><path id="kity_path_61" fill="none" stroke="rgb(115, 161, 191)" stroke-width="1" d="M76.5,469.5A174,14,0,0,1,250.5,455.5"></path><path id="kity_path_63" fill="none" stroke="rgb(115, 161, 191)" stroke-width="1" d="M306.5,455.5C326.5,455.5,326.5,429.5,346.5,429.5"></path><path id="kity_path_65" fill="none" stroke="rgb(115, 161, 191)" stroke-width="1" d="M378.5,429.5C398.5,429.5,398.5,429.5,418.5,429.5"></path><path id="kity_path_67" fill="none" stroke="rgb(115, 161, 191)" stroke-width="1" d="M306.5,455.5C326.5,455.5,326.5,481.5,346.5,481.5"></path><path id="kity_path_69" fill="none" stroke="rgb(115, 161, 191)" stroke-width="1" d="M390.5,481.5C410.5,481.5,410.5,481.5,430.5,481.5"></path><path id="kity_path_71" fill="none" stroke="rgb(115, 161, 191)" stroke-width="1" d="M76.5,469.5A174,126,0,0,0,250.5,595.5"></path><path id="kity_path_73" fill="none" stroke="rgb(115, 161, 191)" stroke-width="1" d="M334.5,595.5C354.5,595.5,354.5,543.5,374.5,543.5"></path><path id="kity_path_75" fill="none" stroke="rgb(115, 161, 191)" stroke-width="1" d="M334.5,595.5C354.5,595.5,354.5,595.5,374.5,595.5"></path><path id="kity_path_77" fill="none" stroke="rgb(115, 161, 191)" stroke-width="1" d="M334.5,595.5C354.5,595.5,354.5,647.5,374.5,647.5"></path><path id="kity_path_79" fill="none" stroke="rgb(115, 161, 191)" stroke-width="1" d="M76.5,469.5A174,242,0,0,0,250.5,711.5"></path><path id="kity_path_81" fill="none" stroke="rgb(115, 161, 191)" stroke-width="1" d="M320.5,711.5C340.5,711.5,340.5,711.5,360.5,711.5"></path><path id="kity_path_83" fill="none" stroke="rgb(115, 161, 191)" stroke-width="1" d="M76.5,469.5A174,436,0,0,0,250.5,905.5"></path><path id="kity_path_85" fill="none" stroke="rgb(115, 161, 191)" stroke-width="1" d="M376.5,905.5C396.5,905.5,396.5,827.5,416.5,827.5"></path><path id="kity_path_87" fill="none" stroke="rgb(115, 161, 191)" stroke-width="1" d="M508.5,827.5C528.5,827.5,528.5,827.5,548.5,827.5"></path><path id="kity_path_89" fill="none" stroke="rgb(115, 161, 191)" stroke-width="1" d="M642.5,827.5C662.5,827.5,662.5,775.5,682.5,775.5"></path><path id="kity_path_91" fill="none" stroke="rgb(115, 161, 191)" stroke-width="1" d="M642.5,827.5C662.5,827.5,662.5,827.5,682.5,827.5"></path><path id="kity_path_93" fill="none" stroke="rgb(115, 161, 191)" stroke-width="1" d="M642.5,827.5C662.5,827.5,662.5,879.5,682.5,879.5"></path><path id="kity_path_95" fill="none" stroke="rgb(115, 161, 191)" stroke-width="1" d="M376.5,905.5C396.5,905.5,396.5,983.5,416.5,983.5"></path><path id="kity_path_97" fill="none" stroke="rgb(115, 161, 191)" stroke-width="1" d="M532.5,983.5C552.5,983.5,552.5,983.5,572.5,983.5"></path><path id="kity_path_99" fill="none" stroke="rgb(115, 161, 191)" stroke-width="1" d="M670.5,983.5C690.5,983.5,690.5,931.5,710.5,931.5"></path><path id="kity_path_101" fill="none" stroke="rgb(115, 161, 191)" stroke-width="1" d="M670.5,983.5C690.5,983.5,690.5,983.5,710.5,983.5"></path><path id="kity_path_103" fill="none" stroke="rgb(115, 161, 191)" stroke-width="1" d="M670.5,983.5C690.5,983.5,690.5,1035.5,710.5,1035.5"></path></g><g id="minder_node1"><path id="node_outline1" fill="rgb(115, 161, 191)" stroke="rgb(115, 161, 191)" d="M25.5,449.5h102a5,5,0,0,1,5,5v30a5,5,0,0,1,-5,5h-102a5,5,0,0,1,-5,-5v-30a5,5,0,0,1,5,-5z" stroke-width="3"></path><g id="node_text1" fill="white"><text id="kity_text_22" text-rendering="inherit" font-size="16" dy=".8em" y="461.5" x="44.5">基本形状</text></g></g><g id="kity_g_12"><path id="kity_path_13" fill="none" stroke="none" d="M44.5,469.5h0v0h0z"></path></g><g id="kity_g_14"><path id="kity_path_15" fill="none" stroke="none" d="M44.5,469.5h0v0h0z"></path><path id="kity_path_16" fill="none" stroke="none"></path></g><g id="minder_node2"><g id="node_expander2" style="cursor: pointer;"><path id="kity_path_219" fill="white" stroke="gray" d="M251.5,33.5A6,6,0,1,1,239.5,33.5A6,6,0,1,1,251.5,33.5"></path><path id="kity_path_220" fill="none" stroke="gray" d="M241,33.5L250,33.5"></path></g><path id="node_outline3" fill="rgb(238, 243, 246)" stroke="rgb(115, 161, 191)" d="M255.5,20.5h62a3,3,0,0,1,3,3v20a3,3,0,0,1,-3,3h-62a3,3,0,0,1,-3,-3v-20a3,3,0,0,1,3,-3z" stroke-width="1"></path><g id="node_text3" fill="black"><text id="kity_text_107" text-rendering="inherit" font-size="14" dy=".8em" y="26.5" x="272.5">线段</text></g></g><g id="minder_node3"><g id="node_expander1" display="none" style="cursor: pointer;"><path id="kity_path_216" fill="white" stroke="gray" d="M376.5,33.5A6,6,0,1,1,364.5,33.5A6,6,0,1,1,376.5,33.5"></path><path id="kity_path_217" fill="none" stroke="gray"></path></g><path id="node_outline2" fill="none" stroke="none" d="M365.5,22.5h311a5,5,0,0,1,5,5v12a5,5,0,0,1,-5,5h-311a5,5,0,0,1,-5,-5v-12a5,5,0,0,1,5,-5z"></path><g id="node_text2" fill="black"><text id="kity_text_105" text-rendering="inherit" font-size="12" dy=".8em" y="27.5" x="370.5">&lt;line x1="start-x" y1="start-y" x2="end-x" y2="end-y" /&gt;</text></g></g><g id="minder_node4"><g id="node_expander11" style="cursor: pointer;"><path id="kity_path_246" fill="white" stroke="gray" d="M251.5,175.5A6,6,0,1,1,239.5,175.5A6,6,0,1,1,251.5,175.5"></path><path id="kity_path_247" fill="none" stroke="gray" d="M241,175.5L250,175.5"></path></g><path id="node_outline12" fill="rgb(238, 243, 246)" stroke="rgb(115, 161, 191)" d="M255.5,162.5h62a3,3,0,0,1,3,3v20a3,3,0,0,1,-3,3h-62a3,3,0,0,1,-3,-3v-20a3,3,0,0,1,3,-3z" stroke-width="1"></path><g id="node_text12" fill="black"><text id="kity_text_125" text-rendering="inherit" font-size="14" dy=".8em" y="168.5" x="272.5">笔画</text></g></g><g id="minder_node5"><g id="node_expander4" style="cursor: pointer;"><path id="kity_path_225" fill="white" stroke="gray" d="M360.5,97.5A6,6,0,1,1,348.5,97.5A6,6,0,1,1,360.5,97.5"></path><path id="kity_path_226" fill="none" stroke="gray" d="M350,97.5L359,97.5"></path></g><path id="node_outline5" fill="none" stroke="none" d="M365.5,86.5h34a5,5,0,0,1,5,5v12a5,5,0,0,1,-5,5h-34a5,5,0,0,1,-5,-5v-12a5,5,0,0,1,5,-5z"></path><g id="node_text5" fill="black"><text id="kity_text_111" text-rendering="inherit" font-size="12" dy=".8em" y="91.5" x="370.5">宽度</text></g></g><g id="minder_node6"><g id="node_expander3" display="none" style="cursor: pointer;"><path id="kity_path_222" fill="white" stroke="gray" d="M460.5,97.5A6,6,0,1,1,448.5,97.5A6,6,0,1,1,460.5,97.5"></path><path id="kity_path_223" fill="none" stroke="gray"></path></g><path id="node_outline4" fill="none" stroke="none" d="M449.5,86.5h80a5,5,0,0,1,5,5v12a5,5,0,0,1,-5,5h-80a5,5,0,0,1,-5,-5v-12a5,5,0,0,1,5,-5z"></path><g id="node_text4" fill="black"><text id="kity_text_109" text-rendering="inherit" font-size="12" dy=".8em" y="91.5" x="454.5">stroke-width</text></g></g><g id="minder_node7"><g id="node_expander6" style="cursor: pointer;"><path id="kity_path_231" fill="white" stroke="gray" d="M360.5,149.5A6,6,0,1,1,348.5,149.5A6,6,0,1,1,360.5,149.5"></path><path id="kity_path_232" fill="none" stroke="gray" d="M350,149.5L359,149.5"></path></g><path id="node_outline7" fill="none" stroke="none" d="M365.5,138.5h34a5,5,0,0,1,5,5v12a5,5,0,0,1,-5,5h-34a5,5,0,0,1,-5,-5v-12a5,5,0,0,1,5,-5z"></path><g id="node_text7" fill="black"><text id="kity_text_115" text-rendering="inherit" font-size="12" dy=".8em" y="143.5" x="370.5">颜色</text></g></g><g id="minder_node8"><g id="node_expander5" display="none" style="cursor: pointer;"><path id="kity_path_228" fill="white" stroke="gray" d="M460.5,149.5A6,6,0,1,1,448.5,149.5A6,6,0,1,1,460.5,149.5"></path><path id="kity_path_229" fill="none" stroke="gray"></path></g><path id="node_outline6" fill="none" stroke="none" d="M449.5,138.5h44a5,5,0,0,1,5,5v12a5,5,0,0,1,-5,5h-44a5,5,0,0,1,-5,-5v-12a5,5,0,0,1,5,-5z"></path><g id="node_text6" fill="black"><text id="kity_text_113" text-rendering="inherit" font-size="12" dy=".8em" y="143.5" x="454.5">stroke</text></g></g><g id="minder_node9"><g id="node_expander8" style="cursor: pointer;"><path id="kity_path_237" fill="white" stroke="gray" d="M360.5,201.5A6,6,0,1,1,348.5,201.5A6,6,0,1,1,360.5,201.5"></path><path id="kity_path_238" fill="none" stroke="gray" d="M350,201.5L359,201.5"></path></g><path id="node_outline9" fill="none" stroke="none" d="M365.5,190.5h46a5,5,0,0,1,5,5v12a5,5,0,0,1,-5,5h-46a5,5,0,0,1,-5,-5v-12a5,5,0,0,1,5,-5z"></path><g id="node_text9" fill="black"><text id="kity_text_119" text-rendering="inherit" font-size="12" dy=".8em" y="195.5" x="370.5">透明度</text></g></g><g id="minder_node10"><g id="node_expander7" display="none" style="cursor: pointer;"><path id="kity_path_234" fill="white" stroke="gray" d="M472.5,201.5A6,6,0,1,1,460.5,201.5A6,6,0,1,1,472.5,201.5"></path><path id="kity_path_235" fill="none" stroke="gray"></path></g><path id="node_outline8" fill="none" stroke="none" d="M461.5,190.5h93a5,5,0,0,1,5,5v12a5,5,0,0,1,-5,5h-93a5,5,0,0,1,-5,-5v-12a5,5,0,0,1,5,-5z"></path><g id="node_text8" fill="black"><text id="kity_text_117" text-rendering="inherit" font-size="12" dy=".8em" y="195.5" x="466.5">stroke-opacity</text></g></g><g id="minder_node11"><g id="node_expander10" style="cursor: pointer;"><path id="kity_path_243" fill="white" stroke="gray" d="M360.5,253.5A6,6,0,1,1,348.5,253.5A6,6,0,1,1,360.5,253.5"></path><path id="kity_path_244" fill="none" stroke="gray" d="M350,253.5L359,253.5"></path></g><path id="node_outline11" fill="none" stroke="none" d="M365.5,242.5h94a5,5,0,0,1,5,5v12a5,5,0,0,1,-5,5h-94a5,5,0,0,1,-5,-5v-12a5,5,0,0,1,5,-5z"></path><g id="node_text11" fill="black"><text id="kity_text_123" text-rendering="inherit" font-size="12" dy=".8em" y="247.5" x="370.5">线与空隙的长度</text></g></g><g id="minder_node12"><g id="node_expander9" display="none" style="cursor: pointer;"><path id="kity_path_240" fill="white" stroke="gray" d="M520.5,253.5A6,6,0,1,1,508.5,253.5A6,6,0,1,1,520.5,253.5"></path><path id="kity_path_241" fill="none" stroke="gray"></path></g><path id="node_outline10" fill="none" stroke="none" d="M509.5,242.5h106a5,5,0,0,1,5,5v12a5,5,0,0,1,-5,5h-106a5,5,0,0,1,-5,-5v-12a5,5,0,0,1,5,-5z"></path><g id="node_text10" fill="black"><text id="kity_text_121" text-rendering="inherit" font-size="12" dy=".8em" y="247.5" x="514.5">stroke-dasharray</text></g></g><g id="minder_node13"><g id="node_expander15" style="cursor: pointer;"><path id="kity_path_258" fill="white" stroke="gray" d="M251.5,341.5A6,6,0,1,1,239.5,341.5A6,6,0,1,1,251.5,341.5"></path><path id="kity_path_259" fill="none" stroke="gray" d="M241,341.5L250,341.5"></path></g><path id="node_outline16" fill="rgb(238, 243, 246)" stroke="rgb(115, 161, 191)" d="M255.5,328.5h62a3,3,0,0,1,3,3v20a3,3,0,0,1,-3,3h-62a3,3,0,0,1,-3,-3v-20a3,3,0,0,1,3,-3z" stroke-width="1"></path><g id="node_text16" fill="black"><text id="kity_text_133" text-rendering="inherit" font-size="14" dy=".8em" y="334.5" x="272.5">矩形</text></g></g><g id="minder_node14"><g id="node_expander12" display="none" style="cursor: pointer;"><path id="kity_path_249" fill="white" stroke="gray" d="M376.5,315.5A6,6,0,1,1,364.5,315.5A6,6,0,1,1,376.5,315.5"></path><path id="kity_path_250" fill="none" stroke="gray"></path></g><path id="node_outline13" fill="none" stroke="none" d="M365.5,304.5h261a5,5,0,0,1,5,5v12a5,5,0,0,1,-5,5h-261a5,5,0,0,1,-5,-5v-12a5,5,0,0,1,5,-5z"></path><g id="node_text13" fill="black"><text id="kity_text_127" text-rendering="inherit" font-size="12" dy=".8em" y="309.5" x="370.5">&lt;rect x="10" y="10" width="20" height="40" /&gt;</text></g></g><g id="minder_node15"><g id="node_expander14" style="cursor: pointer;"><path id="kity_path_255" fill="white" stroke="gray" d="M360.5,367.5A6,6,0,1,1,348.5,367.5A6,6,0,1,1,360.5,367.5"></path><path id="kity_path_256" fill="none" stroke="gray" d="M350,367.5L359,367.5"></path></g><path id="node_outline15" fill="none" stroke="none" d="M365.5,356.5h58a5,5,0,0,1,5,5v12a5,5,0,0,1,-5,5h-58a5,5,0,0,1,-5,-5v-12a5,5,0,0,1,5,-5z"></path><g id="node_text15" fill="black"><text id="kity_text_131" text-rendering="inherit" font-size="12" dy=".8em" y="361.5" x="370.5">圆角矩形</text></g></g><g id="minder_node16"><g id="node_expander13" display="none" style="cursor: pointer;"><path id="kity_path_252" fill="white" stroke="gray" d="M484.5,367.5A6,6,0,1,1,472.5,367.5A6,6,0,1,1,484.5,367.5"></path><path id="kity_path_253" fill="none" stroke="gray"></path></g><path id="node_outline14" fill="none" stroke="none" d="M473.5,356.5h343a5,5,0,0,1,5,5v12a5,5,0,0,1,-5,5h-343a5,5,0,0,1,-5,-5v-12a5,5,0,0,1,5,-5z"></path><g id="node_text14" fill="black"><text id="kity_text_129" text-rendering="inherit" font-size="12" dy=".8em" y="361.5" x="478.5">&lt;rect x="10" y="10" width="20" height="40" rx="10" ry="20" /&gt;</text></g></g><g id="minder_node17"><g id="node_expander20" style="cursor: pointer;"><path id="kity_path_273" fill="white" stroke="gray" d="M251.5,455.5A6,6,0,1,1,239.5,455.5A6,6,0,1,1,251.5,455.5"></path><path id="kity_path_274" fill="none" stroke="gray" d="M241,455.5L250,455.5"></path></g><path id="node_outline21" fill="rgb(238, 243, 246)" stroke="rgb(115, 161, 191)" d="M255.5,442.5h48a3,3,0,0,1,3,3v20a3,3,0,0,1,-3,3h-48a3,3,0,0,1,-3,-3v-20a3,3,0,0,1,3,-3z" stroke-width="1"></path><g id="node_text21" fill="black"><text id="kity_text_143" text-rendering="inherit" font-size="14" dy=".8em" y="448.5" x="272.5">圆</text></g></g><g id="minder_node18"><g id="node_expander17" style="cursor: pointer;"><path id="kity_path_264" fill="white" stroke="gray" d="M346.5,429.5A6,6,0,1,1,334.5,429.5A6,6,0,1,1,346.5,429.5"></path><path id="kity_path_265" fill="none" stroke="gray" d="M336,429.5L345,429.5"></path></g><path id="node_outline18" fill="none" stroke="none" d="M351.5,418.5h22a5,5,0,0,1,5,5v12a5,5,0,0,1,-5,5h-22a5,5,0,0,1,-5,-5v-12a5,5,0,0,1,5,-5z"></path><g id="node_text18" fill="black"><text id="kity_text_137" text-rendering="inherit" font-size="12" dy=".8em" y="423.5" x="356.5">圆</text></g></g><g id="minder_node19"><g id="node_expander16" display="none" style="cursor: pointer;"><path id="kity_path_261" fill="white" stroke="gray" d="M434.5,429.5A6,6,0,1,1,422.5,429.5A6,6,0,1,1,434.5,429.5"></path><path id="kity_path_262" fill="none" stroke="gray"></path></g><path id="node_outline17" fill="none" stroke="none" d="M423.5,418.5h181a5,5,0,0,1,5,5v12a5,5,0,0,1,-5,5h-181a5,5,0,0,1,-5,-5v-12a5,5,0,0,1,5,-5z"></path><g id="node_text17" fill="black"><text id="kity_text_135" text-rendering="inherit" font-size="12" dy=".8em" y="423.5" x="428.5">&lt;circle cx="80" cy="90" r="20"&gt;</text></g></g><g id="minder_node20"><g id="node_expander19" style="cursor: pointer;"><path id="kity_path_270" fill="white" stroke="gray" d="M346.5,481.5A6,6,0,1,1,334.5,481.5A6,6,0,1,1,346.5,481.5"></path><path id="kity_path_271" fill="none" stroke="gray" d="M336,481.5L345,481.5"></path></g><path id="node_outline20" fill="none" stroke="none" d="M351.5,470.5h34a5,5,0,0,1,5,5v12a5,5,0,0,1,-5,5h-34a5,5,0,0,1,-5,-5v-12a5,5,0,0,1,5,-5z"></path><g id="node_text20" fill="black"><text id="kity_text_141" text-rendering="inherit" font-size="12" dy=".8em" y="475.5" x="356.5">椭圆</text></g></g><g id="minder_node21"><g id="node_expander18" display="none" style="cursor: pointer;"><path id="kity_path_267" fill="white" stroke="gray" d="M446.5,481.5A6,6,0,1,1,434.5,481.5A6,6,0,1,1,446.5,481.5"></path><path id="kity_path_268" fill="none" stroke="gray"></path></g><path id="node_outline19" fill="none" stroke="none" d="M435.5,470.5h239a5,5,0,0,1,5,5v12a5,5,0,0,1,-5,5h-239a5,5,0,0,1,-5,-5v-12a5,5,0,0,1,5,-5z"></path><g id="node_text19" fill="black"><text id="kity_text_139" text-rendering="inherit" font-size="12" dy=".8em" y="475.5" x="440.5">&lt;ellipse cx="30" cy="80" rx="20" ry="10" /&gt;</text></g></g><g id="minder_node22"><g id="node_expander24" style="cursor: pointer;"><path id="kity_path_285" fill="white" stroke="gray" d="M251.5,595.5A6,6,0,1,1,239.5,595.5A6,6,0,1,1,251.5,595.5"></path><path id="kity_path_286" fill="none" stroke="gray" d="M241,595.5L250,595.5"></path></g><path id="node_outline25" fill="rgb(238, 243, 246)" stroke="rgb(115, 161, 191)" d="M255.5,582.5h76a3,3,0,0,1,3,3v20a3,3,0,0,1,-3,3h-76a3,3,0,0,1,-3,-3v-20a3,3,0,0,1,3,-3z" stroke-width="1"></path><g id="node_text25" fill="black"><text id="kity_text_151" text-rendering="inherit" font-size="14" dy=".8em" y="588.5" x="272.5">多边形</text></g></g><g id="minder_node23"><g id="node_expander21" display="none" style="cursor: pointer;"><path id="kity_path_276" fill="white" stroke="gray" d="M390.5,543.5A6,6,0,1,1,378.5,543.5A6,6,0,1,1,390.5,543.5"></path><path id="kity_path_277" fill="none" stroke="gray"></path></g><path id="node_outline22" fill="none" stroke="none" d="M379.5,532.5h70a5,5,0,0,1,5,5v12a5,5,0,0,1,-5,5h-70a5,5,0,0,1,-5,-5v-12a5,5,0,0,1,5,-5z"></path><g id="node_text22" fill="black"><text id="kity_text_145" text-rendering="inherit" font-size="12" dy=".8em" y="537.5" x="384.5">不规则图形</text></g></g><g id="minder_node24"><g id="node_expander22" display="none" style="cursor: pointer;"><path id="kity_path_279" fill="white" stroke="gray" d="M390.5,595.5A6,6,0,1,1,378.5,595.5A6,6,0,1,1,390.5,595.5"></path><path id="kity_path_280" fill="none" stroke="gray"></path></g><path id="node_outline23" fill="none" stroke="none" d="M379.5,584.5h58a5,5,0,0,1,5,5v12a5,5,0,0,1,-5,5h-58a5,5,0,0,1,-5,-5v-12a5,5,0,0,1,5,-5z"></path><g id="node_text23" fill="black"><text id="kity_text_147" text-rendering="inherit" font-size="12" dy=".8em" y="589.5" x="384.5">填充规则</text></g></g><g id="minder_node25"><g id="node_expander23" display="none" style="cursor: pointer;"><path id="kity_path_282" fill="white" stroke="gray" d="M390.5,647.5A6,6,0,1,1,378.5,647.5A6,6,0,1,1,390.5,647.5"></path><path id="kity_path_283" fill="none" stroke="gray"></path></g><path id="node_outline24" fill="none" stroke="none" d="M379.5,636.5h255a5,5,0,0,1,5,5v12a5,5,0,0,1,-5,5h-255a5,5,0,0,1,-5,-5v-12a5,5,0,0,1,5,-5z"></path><g id="node_text24" fill="black"><text id="kity_text_149" text-rendering="inherit" font-size="12" dy=".8em" y="641.5" x="384.5">&lt;polygon points="15,10 55,10 45,20 5,20" /&gt;</text></g></g><g id="minder_node26"><g id="node_expander26" style="cursor: pointer;"><path id="kity_path_291" fill="white" stroke="gray" d="M251.5,711.5A6,6,0,1,1,239.5,711.5A6,6,0,1,1,251.5,711.5"></path><path id="kity_path_292" fill="none" stroke="gray" d="M241,711.5L250,711.5"></path></g><path id="node_outline27" fill="rgb(238, 243, 246)" stroke="rgb(115, 161, 191)" d="M255.5,698.5h62a3,3,0,0,1,3,3v20a3,3,0,0,1,-3,3h-62a3,3,0,0,1,-3,-3v-20a3,3,0,0,1,3,-3z" stroke-width="1"></path><g id="node_text27" fill="black"><text id="kity_text_155" text-rendering="inherit" font-size="14" dy=".8em" y="704.5" x="272.5">折线</text></g></g><g id="minder_node27"><g id="node_expander25" display="none" style="cursor: pointer;"><path id="kity_path_288" fill="white" stroke="gray" d="M376.5,711.5A6,6,0,1,1,364.5,711.5A6,6,0,1,1,376.5,711.5"></path><path id="kity_path_289" fill="none" stroke="gray"></path></g><path id="node_outline26" fill="none" stroke="none" d="M365.5,700.5h296a5,5,0,0,1,5,5v12a5,5,0,0,1,-5,5h-296a5,5,0,0,1,-5,-5v-12a5,5,0,0,1,5,-5z"></path><g id="node_text26" fill="black"><text id="kity_text_153" text-rendering="inherit" font-size="12" dy=".8em" y="705.5" x="370.5">&lt;polyline points="5 20, 20 20, 25 10, 35 30, 45 10" /&gt;</text></g></g><g id="minder_node28"><g id="node_expander37" style="cursor: pointer;"><path id="kity_path_324" fill="white" stroke="gray" d="M251.5,905.5A6,6,0,1,1,239.5,905.5A6,6,0,1,1,251.5,905.5"></path><path id="kity_path_325" fill="none" stroke="gray" d="M241,905.5L250,905.5"></path></g><path id="node_outline38" fill="rgb(238, 243, 246)" stroke="rgb(115, 161, 191)" d="M255.5,892.5h118a3,3,0,0,1,3,3v20a3,3,0,0,1,-3,3h-118a3,3,0,0,1,-3,-3v-20a3,3,0,0,1,3,-3z" stroke-width="1"></path><g id="node_text38" fill="black"><text id="kity_text_177" text-rendering="inherit" font-size="14" dy=".8em" y="898.5" x="272.5">线帽和线连接</text></g></g><g id="minder_node29"><g id="node_expander31" style="cursor: pointer;"><path id="kity_path_306" fill="white" stroke="gray" d="M416.5,827.5A6,6,0,1,1,404.5,827.5A6,6,0,1,1,416.5,827.5"></path><path id="kity_path_307" fill="none" stroke="gray" d="M406,827.5L415,827.5"></path></g><path id="node_outline32" fill="none" stroke="none" d="M421.5,816.5h82a5,5,0,0,1,5,5v12a5,5,0,0,1,-5,5h-82a5,5,0,0,1,-5,-5v-12a5,5,0,0,1,5,-5z"></path><g id="node_text32" fill="black"><text id="kity_text_165" text-rendering="inherit" font-size="12" dy=".8em" y="821.5" x="426.5">线的头尾形状</text></g></g><g id="minder_node30"><g id="node_expander30" style="cursor: pointer;"><path id="kity_path_303" fill="white" stroke="gray" d="M548.5,827.5A6,6,0,1,1,536.5,827.5A6,6,0,1,1,548.5,827.5"></path><path id="kity_path_304" fill="none" stroke="gray" d="M538,827.5L547,827.5"></path></g><path id="node_outline31" fill="none" stroke="none" d="M553.5,816.5h84a5,5,0,0,1,5,5v12a5,5,0,0,1,-5,5h-84a5,5,0,0,1,-5,-5v-12a5,5,0,0,1,5,-5z"></path><g id="node_text31" fill="black"><text id="kity_text_163" text-rendering="inherit" font-size="12" dy=".8em" y="821.5" x="558.5">stroke-lincap</text></g></g><g id="minder_node31"><g id="node_expander27" display="none" style="cursor: pointer;"><path id="kity_path_294" fill="white" stroke="gray" d="M698.5,775.5A6,6,0,1,1,686.5,775.5A6,6,0,1,1,698.5,775.5"></path><path id="kity_path_295" fill="none" stroke="gray"></path></g><path id="node_outline28" fill="none" stroke="none" d="M687.5,764.5h34a5,5,0,0,1,5,5v12a5,5,0,0,1,-5,5h-34a5,5,0,0,1,-5,-5v-12a5,5,0,0,1,5,-5z"></path><g id="node_text28" fill="black"><text id="kity_text_157" text-rendering="inherit" font-size="12" dy=".8em" y="769.5" x="692.5">butt</text></g></g><g id="minder_node32"><g id="node_expander28" display="none" style="cursor: pointer;"><path id="kity_path_297" fill="white" stroke="gray" d="M698.5,827.5A6,6,0,1,1,686.5,827.5A6,6,0,1,1,698.5,827.5"></path><path id="kity_path_298" fill="none" stroke="gray"></path></g><path id="node_outline29" fill="none" stroke="none" d="M687.5,816.5h44a5,5,0,0,1,5,5v12a5,5,0,0,1,-5,5h-44a5,5,0,0,1,-5,-5v-12a5,5,0,0,1,5,-5z"></path><g id="node_text29" fill="black"><text id="kity_text_159" text-rendering="inherit" font-size="12" dy=".8em" y="821.5" x="692.5">round</text></g></g><g id="minder_node33"><g id="node_expander29" display="none" style="cursor: pointer;"><path id="kity_path_300" fill="white" stroke="gray" d="M698.5,879.5A6,6,0,1,1,686.5,879.5A6,6,0,1,1,698.5,879.5"></path><path id="kity_path_301" fill="none" stroke="gray"></path></g><path id="node_outline30" fill="none" stroke="none" d="M687.5,868.5h50a5,5,0,0,1,5,5v12a5,5,0,0,1,-5,5h-50a5,5,0,0,1,-5,-5v-12a5,5,0,0,1,5,-5z"></path><g id="node_text30" fill="black"><text id="kity_text_161" text-rendering="inherit" font-size="12" dy=".8em" y="873.5" x="692.5">square</text></g></g><g id="minder_node34"><g id="node_expander36" style="cursor: pointer;"><path id="kity_path_321" fill="white" stroke="gray" d="M416.5,983.5A6,6,0,1,1,404.5,983.5A6,6,0,1,1,416.5,983.5"></path><path id="kity_path_322" fill="none" stroke="gray" d="M406,983.5L415,983.5"></path></g><path id="node_outline37" fill="none" stroke="none" d="M421.5,972.5h106a5,5,0,0,1,5,5v12a5,5,0,0,1,-5,5h-106a5,5,0,0,1,-5,-5v-12a5,5,0,0,1,5,-5z"></path><g id="node_text37" fill="black"><text id="kity_text_175" text-rendering="inherit" font-size="12" dy=".8em" y="977.5" x="426.5">菱角处的交叉效果</text></g></g><g id="minder_node35"><g id="node_expander35" style="cursor: pointer;"><path id="kity_path_318" fill="white" stroke="gray" d="M572.5,983.5A6,6,0,1,1,560.5,983.5A6,6,0,1,1,572.5,983.5"></path><path id="kity_path_319" fill="none" stroke="gray" d="M562,983.5L571,983.5"></path></g><path id="node_outline36" fill="none" stroke="none" d="M577.5,972.5h88a5,5,0,0,1,5,5v12a5,5,0,0,1,-5,5h-88a5,5,0,0,1,-5,-5v-12a5,5,0,0,1,5,-5z"></path><g id="node_text36" fill="black"><text id="kity_text_173" text-rendering="inherit" font-size="12" dy=".8em" y="977.5" x="582.5">stroke-linejoin</text></g></g><g id="minder_node36"><g id="node_expander32" display="none" style="cursor: pointer;"><path id="kity_path_309" fill="white" stroke="gray" d="M726.5,931.5A6,6,0,1,1,714.5,931.5A6,6,0,1,1,726.5,931.5"></path><path id="kity_path_310" fill="none" stroke="gray"></path></g><path id="node_outline33" fill="none" stroke="none" d="M715.5,920.5h39a5,5,0,0,1,5,5v12a5,5,0,0,1,-5,5h-39a5,5,0,0,1,-5,-5v-12a5,5,0,0,1,5,-5z"></path><g id="node_text33" fill="black"><text id="kity_text_167" text-rendering="inherit" font-size="12" dy=".8em" y="925.5" x="720.5">miter</text></g></g><g id="minder_node37"><g id="node_expander33" display="none" style="cursor: pointer;"><path id="kity_path_312" fill="white" stroke="gray" d="M726.5,983.5A6,6,0,1,1,714.5,983.5A6,6,0,1,1,726.5,983.5"></path><path id="kity_path_313" fill="none" stroke="gray"></path></g><path id="node_outline34" fill="none" stroke="none" d="M715.5,972.5h44a5,5,0,0,1,5,5v12a5,5,0,0,1,-5,5h-44a5,5,0,0,1,-5,-5v-12a5,5,0,0,1,5,-5z"></path><g id="node_text34" fill="black"><text id="kity_text_169" text-rendering="inherit" font-size="12" dy=".8em" y="977.5" x="720.5">round</text></g></g><g id="minder_node38"><g id="node_expander34" display="none" style="cursor: pointer;"><path id="kity_path_315" fill="white" stroke="gray" d="M726.5,1035.5A6,6,0,1,1,714.5,1035.5A6,6,0,1,1,726.5,1035.5"></path><path id="kity_path_316" fill="none" stroke="gray"></path></g><path id="node_outline35" fill="none" stroke="none" d="M715.5,1024.5h43a5,5,0,0,1,5,5v12a5,5,0,0,1,-5,5h-43a5,5,0,0,1,-5,-5v-12a5,5,0,0,1,5,-5z"></path><g id="node_text35" fill="black"><text id="kity_text_171" text-rendering="inherit" font-size="12" dy=".8em" y="1029.5" x="720.5">bevel</text></g></g></g></g></svg>