<svg id="kity_svg_6" xmlns="http://www.w3.org/2000/svg" xmlns:xlink="http://www.w3.org/1999/xlink" version="1.1" width="767" height="854" style="background: rgb(251, 251, 251); visibility: visible;" viewBox="0 0 767 854"><defs id="kity_defs_7"><linearGradient id="kity_linearGradient_17" x1="0" y1="0" x2="0" y2="1"><stop id="kity_stop_18" offset="0" stop-color="rgb(255, 255, 255)"></stop><stop id="kity_stop_19" offset="1" stop-color="rgb(204, 204, 204)"></stop></linearGradient><marker id="kity_marker_2" orient="auto" refX="6" refY="0" viewBox="-7 -7 14 14" markerWidth="7" markerHeight="7" markerUnits="userSpaceOnUse"><path id="kity_path_3" fill="rgb(115, 161, 191)" stroke="none" d="M6,0A6,6,0,1,1,-6,0A6,6,0,1,1,6,0"></path></marker></defs><g id="kity_g_8"><g id="minder1" text-rendering="optimize-speed"><g id="minder_connect_group1"><path id="kity_path_31" fill="none" stroke="rgb(115, 161, 191)" stroke-width="1" d="M76.5,440.5A174,357,0,0,1,250.5,83.5"></path><path id="kity_path_33" fill="none" stroke="rgb(115, 161, 191)" stroke-width="1" d="M355.5,83.5C375.5,83.5,375.5,31.5,395.5,31.5"></path><path id="kity_path_35" fill="none" stroke="rgb(115, 161, 191)" stroke-width="1" d="M355.5,83.5C375.5,83.5,375.5,83.5,395.5,83.5"></path><path id="kity_path_37" fill="none" stroke="rgb(115, 161, 191)" stroke-width="1" d="M355.5,83.5C375.5,83.5,375.5,135.5,395.5,135.5"></path><path id="kity_path_39" fill="none" stroke="rgb(115, 161, 191)" stroke-width="1" d="M76.5,440.5A174,241,0,0,1,250.5,199.5"></path><path id="kity_path_41" fill="none" stroke="rgb(115, 161, 191)" stroke-width="1" d="M351.5,199.5C371.5,199.5,371.5,199.5,391.5,199.5"></path><path id="kity_path_43" fill="none" stroke="rgb(115, 161, 191)" stroke-width="1" d="M76.5,440.5A174,151,0,0,1,250.5,289.5"></path><path id="kity_path_45" fill="none" stroke="rgb(115, 161, 191)" stroke-width="1" d="M328.5,289.5C348.5,289.5,348.5,263.5,368.5,263.5"></path><path id="kity_path_47" fill="none" stroke="rgb(115, 161, 191)" stroke-width="1" d="M328.5,289.5C348.5,289.5,348.5,315.5,368.5,315.5"></path><path id="kity_path_49" fill="none" stroke="rgb(115, 161, 191)" stroke-width="1" d="M76.5,440.5A174,37,0,0,1,250.5,403.5"></path><path id="kity_path_51" fill="none" stroke="rgb(115, 161, 191)" stroke-width="1" d="M334.5,403.5C354.5,403.5,354.5,377.5,374.5,377.5"></path><path id="kity_path_53" fill="none" stroke="rgb(115, 161, 191)" stroke-width="1" d="M442.5,377.5C462.5,377.5,462.5,377.5,482.5,377.5"></path><path id="kity_path_55" fill="none" stroke="rgb(115, 161, 191)" stroke-width="1" d="M334.5,403.5C354.5,403.5,354.5,429.5,374.5,429.5"></path><path id="kity_path_57" fill="none" stroke="rgb(115, 161, 191)" stroke-width="1" d="M454.5,429.5C474.5,429.5,474.5,429.5,494.5,429.5"></path><path id="kity_path_59" fill="none" stroke="rgb(115, 161, 191)" stroke-width="1" d="M76.5,440.5A174,77,0,0,0,250.5,517.5"></path><path id="kity_path_61" fill="none" stroke="rgb(115, 161, 191)" stroke-width="1" d="M325.5,517.5C345.5,517.5,345.5,491.5,365.5,491.5"></path><path id="kity_path_63" fill="none" stroke="rgb(115, 161, 191)" stroke-width="1" d="M325.5,517.5C345.5,517.5,345.5,543.5,365.5,543.5"></path><path id="kity_path_65" fill="none" stroke="rgb(115, 161, 191)" stroke-width="1" d="M76.5,440.5A174,217,0,0,0,250.5,657.5"></path><path id="kity_path_67" fill="none" stroke="rgb(115, 161, 191)" stroke-width="1" d="M348.5,657.5C368.5,657.5,368.5,605.5,388.5,605.5"></path><path id="kity_path_69" fill="none" stroke="rgb(115, 161, 191)" stroke-width="1" d="M348.5,657.5C368.5,657.5,368.5,657.5,388.5,657.5"></path><path id="kity_path_71" fill="none" stroke="rgb(115, 161, 191)" stroke-width="1" d="M348.5,657.5C368.5,657.5,368.5,709.5,388.5,709.5"></path><path id="kity_path_73" fill="none" stroke="rgb(115, 161, 191)" stroke-width="1" d="M76.5,440.5A174,357,0,0,0,250.5,797.5"></path><path id="kity_path_75" fill="none" stroke="rgb(115, 161, 191)" stroke-width="1" d="M390.5,797.5C410.5,797.5,410.5,771.5,430.5,771.5"></path><path id="kity_path_77" fill="none" stroke="rgb(115, 161, 191)" stroke-width="1" d="M390.5,797.5C410.5,797.5,410.5,823.5,430.5,823.5"></path></g><g id="minder_node1"><path id="node_outline1" fill="rgb(115, 161, 191)" stroke="rgb(115, 161, 191)" d="M25.5,420.5h102a5,5,0,0,1,5,5v30a5,5,0,0,1,-5,5h-102a5,5,0,0,1,-5,-5v-30a5,5,0,0,1,5,-5z" stroke-width="3"></path><g id="node_text1" fill="white"><text id="kity_text_22" text-rendering="inherit" font-size="16" dy=".8em" y="432.5" x="44.5">坐标变换</text></g></g><g id="kity_g_12"><path id="kity_path_13" fill="none" stroke="none" d="M44.5,440.5h0v0h0z"></path></g><g id="kity_g_14"><path id="kity_path_15" fill="none" stroke="none" d="M44.5,440.5h0v0h0z"></path><path id="kity_path_16" fill="none" stroke="none"></path></g><g id="minder_node2"><g id="node_expander4" style="cursor: pointer;"><path id="kity_path_160" fill="white" stroke="gray" d="M251.5,83.5A6,6,0,1,1,239.5,83.5A6,6,0,1,1,251.5,83.5"></path><path id="kity_path_161" fill="none" stroke="gray" d="M241,83.5L250,83.5"></path></g><path id="node_outline5" fill="rgb(238, 243, 246)" stroke="rgb(115, 161, 191)" d="M255.5,70.5h97a3,3,0,0,1,3,3v20a3,3,0,0,1,-3,3h-97a3,3,0,0,1,-3,-3v-20a3,3,0,0,1,3,-3z" stroke-width="1"></path><g id="node_text5" fill="black"><text id="kity_text_85" text-rendering="inherit" font-size="14" dy=".8em" y="76.5" x="272.5">transform</text></g></g><g id="minder_node3"><g id="node_expander1" display="none" style="cursor: pointer;"><path id="kity_path_151" fill="white" stroke="gray" d="M411.5,31.5A6,6,0,1,1,399.5,31.5A6,6,0,1,1,411.5,31.5"></path><path id="kity_path_152" fill="none" stroke="gray"></path></g><path id="node_outline2" fill="none" stroke="none" d="M400.5,20.5h241a5,5,0,0,1,5,5v12a5,5,0,0,1,-5,5h-241a5,5,0,0,1,-5,-5v-12a5,5,0,0,1,5,-5z"></path><g id="node_text2" fill="black"><text id="kity_text_79" text-rendering="inherit" font-size="12" dy=".8em" y="25.5" x="405.5">向SVG元素添加tranform元素进行坐标变换</text></g></g><g id="minder_node4"><g id="node_expander2" display="none" style="cursor: pointer;"><path id="kity_path_154" fill="white" stroke="gray" d="M411.5,83.5A6,6,0,1,1,399.5,83.5A6,6,0,1,1,411.5,83.5"></path><path id="kity_path_155" fill="none" stroke="gray"></path></g><path id="node_outline3" fill="none" stroke="none" d="M400.5,72.5h310a5,5,0,0,1,5,5v12a5,5,0,0,1,-5,5h-310a5,5,0,0,1,-5,-5v-12a5,5,0,0,1,5,-5z"></path><g id="node_text3" fill="black"><text id="kity_text_81" text-rendering="inherit" font-size="12" dy=".8em" y="77.5" x="405.5">变换的是坐标系统，图形相对于坐标系统的位置是不变的</text></g></g><g id="minder_node5"><g id="node_expander3" display="none" style="cursor: pointer;"><path id="kity_path_157" fill="white" stroke="gray" d="M411.5,135.5A6,6,0,1,1,399.5,135.5A6,6,0,1,1,411.5,135.5"></path><path id="kity_path_158" fill="none" stroke="gray"></path></g><path id="node_outline4" fill="none" stroke="none" d="M400.5,124.5h163a5,5,0,0,1,5,5v12a5,5,0,0,1,-5,5h-163a5,5,0,0,1,-5,-5v-12a5,5,0,0,1,5,-5z"></path><g id="node_text4" fill="black"><text id="kity_text_83" text-rendering="inherit" font-size="12" dy=".8em" y="129.5" x="405.5">变换基准点:transform-origin</text></g></g><g id="minder_node6"><g id="node_expander6" style="cursor: pointer;"><path id="kity_path_166" fill="white" stroke="gray" d="M251.5,199.5A6,6,0,1,1,239.5,199.5A6,6,0,1,1,251.5,199.5"></path><path id="kity_path_167" fill="none" stroke="gray" d="M241,199.5L250,199.5"></path></g><path id="node_outline7" fill="rgb(238, 243, 246)" stroke="rgb(115, 161, 191)" d="M255.5,186.5h93a3,3,0,0,1,3,3v20a3,3,0,0,1,-3,3h-93a3,3,0,0,1,-3,-3v-20a3,3,0,0,1,3,-3z" stroke-width="1"></path><g id="node_text7" fill="black"><text id="kity_text_89" text-rendering="inherit" font-size="14" dy=".8em" y="192.5" x="272.5">translate</text></g></g><g id="minder_node7"><g id="node_expander5" display="none" style="cursor: pointer;"><path id="kity_path_163" fill="white" stroke="gray" d="M407.5,199.5A6,6,0,1,1,395.5,199.5A6,6,0,1,1,407.5,199.5"></path><path id="kity_path_164" fill="none" stroke="gray"></path></g><path id="node_outline6" fill="none" stroke="none" d="M396.5,188.5h85a5,5,0,0,1,5,5v12a5,5,0,0,1,-5,5h-85a5,5,0,0,1,-5,-5v-12a5,5,0,0,1,5,-5z"></path><g id="node_text6" fill="black"><text id="kity_text_87" text-rendering="inherit" font-size="12" dy=".8em" y="193.5" x="401.5">translate(x,y)</text></g></g><g id="minder_node8"><g id="node_expander9" style="cursor: pointer;"><path id="kity_path_175" fill="white" stroke="gray" d="M251.5,289.5A6,6,0,1,1,239.5,289.5A6,6,0,1,1,251.5,289.5"></path><path id="kity_path_176" fill="none" stroke="gray" d="M241,289.5L250,289.5"></path></g><path id="node_outline10" fill="rgb(238, 243, 246)" stroke="rgb(115, 161, 191)" d="M255.5,276.5h70a3,3,0,0,1,3,3v20a3,3,0,0,1,-3,3h-70a3,3,0,0,1,-3,-3v-20a3,3,0,0,1,3,-3z" stroke-width="1"></path><g id="node_text10" fill="black"><text id="kity_text_95" text-rendering="inherit" font-size="14" dy=".8em" y="282.5" x="272.5">scale</text></g></g><g id="minder_node9"><g id="node_expander7" display="none" style="cursor: pointer;"><path id="kity_path_169" fill="white" stroke="gray" d="M384.5,263.5A6,6,0,1,1,372.5,263.5A6,6,0,1,1,384.5,263.5"></path><path id="kity_path_170" fill="none" stroke="gray"></path></g><path id="node_outline8" fill="none" stroke="none" d="M373.5,252.5h82a5,5,0,0,1,5,5v12a5,5,0,0,1,-5,5h-82a5,5,0,0,1,-5,-5v-12a5,5,0,0,1,5,-5z"></path><g id="node_text8" fill="black"><text id="kity_text_91" text-rendering="inherit" font-size="12" dy=".8em" y="257.5" x="378.5">scale(value)</text></g></g><g id="minder_node10"><g id="node_expander8" display="none" style="cursor: pointer;"><path id="kity_path_172" fill="white" stroke="gray" d="M384.5,315.5A6,6,0,1,1,372.5,315.5A6,6,0,1,1,384.5,315.5"></path><path id="kity_path_173" fill="none" stroke="gray"></path></g><path id="node_outline9" fill="none" stroke="none" d="M373.5,304.5h138a5,5,0,0,1,5,5v12a5,5,0,0,1,-5,5h-138a5,5,0,0,1,-5,-5v-12a5,5,0,0,1,5,-5z"></path><g id="node_text9" fill="black"><text id="kity_text_93" text-rendering="inherit" font-size="12" dy=".8em" y="309.5" x="378.5">scale(x-value,y-value)</text></g></g><g id="minder_node11"><g id="node_expander14" style="cursor: pointer;"><path id="kity_path_190" fill="white" stroke="gray" d="M251.5,403.5A6,6,0,1,1,239.5,403.5A6,6,0,1,1,251.5,403.5"></path><path id="kity_path_191" fill="none" stroke="gray" d="M241,403.5L250,403.5"></path></g><path id="node_outline15" fill="rgb(238, 243, 246)" stroke="rgb(115, 161, 191)" d="M255.5,390.5h76a3,3,0,0,1,3,3v20a3,3,0,0,1,-3,3h-76a3,3,0,0,1,-3,-3v-20a3,3,0,0,1,3,-3z" stroke-width="1"></path><g id="node_text15" fill="black"><text id="kity_text_105" text-rendering="inherit" font-size="14" dy=".8em" y="396.5" x="272.5">rotate</text></g></g><g id="minder_node12"><g id="node_expander11" style="cursor: pointer;"><path id="kity_path_181" fill="white" stroke="gray" d="M374.5,377.5A6,6,0,1,1,362.5,377.5A6,6,0,1,1,374.5,377.5"></path><path id="kity_path_182" fill="none" stroke="gray" d="M364,377.5L373,377.5"></path></g><path id="node_outline12" fill="none" stroke="none" d="M379.5,366.5h58a5,5,0,0,1,5,5v12a5,5,0,0,1,-5,5h-58a5,5,0,0,1,-5,-5v-12a5,5,0,0,1,5,-5z"></path><g id="node_text12" fill="black"><text id="kity_text_99" text-rendering="inherit" font-size="12" dy=".8em" y="371.5" x="384.5">围绕原点</text></g></g><g id="minder_node13"><g id="node_expander10" display="none" style="cursor: pointer;"><path id="kity_path_178" fill="white" stroke="gray" d="M498.5,377.5A6,6,0,1,1,486.5,377.5A6,6,0,1,1,498.5,377.5"></path><path id="kity_path_179" fill="none" stroke="gray"></path></g><path id="node_outline11" fill="none" stroke="none" d="M487.5,366.5h88a5,5,0,0,1,5,5v12a5,5,0,0,1,-5,5h-88a5,5,0,0,1,-5,-5v-12a5,5,0,0,1,5,-5z"></path><g id="node_text11" fill="black"><text id="kity_text_97" text-rendering="inherit" font-size="12" dy=".8em" y="371.5" x="492.5">rotate(angle)</text></g></g><g id="minder_node14"><g id="node_expander13" style="cursor: pointer;"><path id="kity_path_187" fill="white" stroke="gray" d="M374.5,429.5A6,6,0,1,1,362.5,429.5A6,6,0,1,1,374.5,429.5"></path><path id="kity_path_188" fill="none" stroke="gray" d="M364,429.5L373,429.5"></path></g><path id="node_outline14" fill="none" stroke="none" d="M379.5,418.5h70a5,5,0,0,1,5,5v12a5,5,0,0,1,-5,5h-70a5,5,0,0,1,-5,-5v-12a5,5,0,0,1,5,-5z"></path><g id="node_text14" fill="black"><text id="kity_text_103" text-rendering="inherit" font-size="12" dy=".8em" y="423.5" x="384.5">围绕中心点</text></g></g><g id="minder_node15"><g id="node_expander12" display="none" style="cursor: pointer;"><path id="kity_path_184" fill="white" stroke="gray" d="M510.5,429.5A6,6,0,1,1,498.5,429.5A6,6,0,1,1,510.5,429.5"></path><path id="kity_path_185" fill="none" stroke="gray"></path></g><path id="node_outline13" fill="none" stroke="none" d="M499.5,418.5h186a5,5,0,0,1,5,5v12a5,5,0,0,1,-5,5h-186a5,5,0,0,1,-5,-5v-12a5,5,0,0,1,5,-5z"></path><g id="node_text13" fill="black"><text id="kity_text_101" text-rendering="inherit" font-size="12" dy=".8em" y="423.5" x="504.5">rotate(angle,centerX,centerY)</text></g></g><g id="minder_node16"><g id="node_expander17" style="cursor: pointer;"><path id="kity_path_199" fill="white" stroke="gray" d="M251.5,517.5A6,6,0,1,1,239.5,517.5A6,6,0,1,1,251.5,517.5"></path><path id="kity_path_200" fill="none" stroke="gray" d="M241,517.5L250,517.5"></path></g><path id="node_outline18" fill="rgb(238, 243, 246)" stroke="rgb(115, 161, 191)" d="M255.5,504.5h67a3,3,0,0,1,3,3v20a3,3,0,0,1,-3,3h-67a3,3,0,0,1,-3,-3v-20a3,3,0,0,1,3,-3z" stroke-width="1"></path><g id="node_text18" fill="black"><text id="kity_text_111" text-rendering="inherit" font-size="14" dy=".8em" y="510.5" x="272.5">skew</text></g></g><g id="minder_node17"><g id="node_expander15" display="none" style="cursor: pointer;"><path id="kity_path_193" fill="white" stroke="gray" d="M381.5,491.5A6,6,0,1,1,369.5,491.5A6,6,0,1,1,381.5,491.5"></path><path id="kity_path_194" fill="none" stroke="gray"></path></g><path id="node_outline16" fill="none" stroke="none" d="M370.5,480.5h88a5,5,0,0,1,5,5v12a5,5,0,0,1,-5,5h-88a5,5,0,0,1,-5,-5v-12a5,5,0,0,1,5,-5z"></path><g id="node_text16" fill="black"><text id="kity_text_107" text-rendering="inherit" font-size="12" dy=".8em" y="485.5" x="375.5">skewX(angle)</text></g></g><g id="minder_node18"><g id="node_expander16" display="none" style="cursor: pointer;"><path id="kity_path_196" fill="white" stroke="gray" d="M381.5,543.5A6,6,0,1,1,369.5,543.5A6,6,0,1,1,381.5,543.5"></path><path id="kity_path_197" fill="none" stroke="gray"></path></g><path id="node_outline17" fill="none" stroke="none" d="M370.5,532.5h88a5,5,0,0,1,5,5v12a5,5,0,0,1,-5,5h-88a5,5,0,0,1,-5,-5v-12a5,5,0,0,1,5,-5z"></path><g id="node_text17" fill="black"><text id="kity_text_109" text-rendering="inherit" font-size="12" dy=".8em" y="537.5" x="375.5">skewY(angle)</text></g></g><g id="minder_node19"><g id="node_expander21" style="cursor: pointer;"><path id="kity_path_211" fill="white" stroke="gray" d="M251.5,657.5A6,6,0,1,1,239.5,657.5A6,6,0,1,1,251.5,657.5"></path><path id="kity_path_212" fill="none" stroke="gray" d="M241,657.5L250,657.5"></path></g><path id="node_outline22" fill="rgb(238, 243, 246)" stroke="rgb(115, 161, 191)" d="M255.5,644.5h90a3,3,0,0,1,3,3v20a3,3,0,0,1,-3,3h-90a3,3,0,0,1,-3,-3v-20a3,3,0,0,1,3,-3z" stroke-width="1"></path><g id="node_text22" fill="black"><text id="kity_text_119" text-rendering="inherit" font-size="14" dy=".8em" y="650.5" x="272.5">变换序列</text></g></g><g id="minder_node20"><g id="node_expander18" display="none" style="cursor: pointer;"><path id="kity_path_202" fill="white" stroke="gray" d="M404.5,605.5A6,6,0,1,1,392.5,605.5A6,6,0,1,1,404.5,605.5"></path><path id="kity_path_203" fill="none" stroke="gray"></path></g><path id="node_outline19" fill="none" stroke="none" d="M393.5,594.5h217a5,5,0,0,1,5,5v12a5,5,0,0,1,-5,5h-217a5,5,0,0,1,-5,-5v-12a5,5,0,0,1,5,-5z"></path><g id="node_text19" fill="black"><text id="kity_text_113" text-rendering="inherit" font-size="12" dy=".8em" y="599.5" x="398.5">transform="translate(10,10) scale(2)"</text></g></g><g id="minder_node21"><g id="node_expander19" display="none" style="cursor: pointer;"><path id="kity_path_205" fill="white" stroke="gray" d="M404.5,657.5A6,6,0,1,1,392.5,657.5A6,6,0,1,1,404.5,657.5"></path><path id="kity_path_206" fill="none" stroke="gray"></path></g><path id="node_outline20" fill="none" stroke="none" d="M393.5,646.5h217a5,5,0,0,1,5,5v12a5,5,0,0,1,-5,5h-217a5,5,0,0,1,-5,-5v-12a5,5,0,0,1,5,-5z"></path><g id="node_text20" fill="black"><text id="kity_text_115" text-rendering="inherit" font-size="12" dy=".8em" y="651.5" x="398.5">transform="scale(2) translate(10,10)"</text></g></g><g id="minder_node22"><g id="node_expander20" display="none" style="cursor: pointer;"><path id="kity_path_208" fill="white" stroke="gray" d="M404.5,709.5A6,6,0,1,1,392.5,709.5A6,6,0,1,1,404.5,709.5"></path><path id="kity_path_209" fill="none" stroke="gray"></path></g><path id="node_outline21" fill="none" stroke="none" d="M393.5,698.5h166a5,5,0,0,1,5,5v12a5,5,0,0,1,-5,5h-166a5,5,0,0,1,-5,-5v-12a5,5,0,0,1,5,-5z"></path><g id="node_text21" fill="black"><text id="kity_text_117" text-rendering="inherit" font-size="12" dy=".8em" y="703.5" x="398.5">上面两种变换的效果是不同的</text></g></g><g id="minder_node23"><g id="node_expander24" style="cursor: pointer;"><path id="kity_path_220" fill="white" stroke="gray" d="M251.5,797.5A6,6,0,1,1,239.5,797.5A6,6,0,1,1,251.5,797.5"></path><path id="kity_path_221" fill="none" stroke="gray" d="M241,797.5L250,797.5"></path></g><path id="node_outline25" fill="rgb(238, 243, 246)" stroke="rgb(115, 161, 191)" d="M255.5,784.5h132a3,3,0,0,1,3,3v20a3,3,0,0,1,-3,3h-132a3,3,0,0,1,-3,-3v-20a3,3,0,0,1,3,-3z" stroke-width="1"></path><g id="node_text25" fill="black"><text id="kity_text_125" text-rendering="inherit" font-size="14" dy=".8em" y="790.5" x="272.5">围绕中心点缩放</text></g></g><g id="minder_node24"><g id="node_expander22" display="none" style="cursor: pointer;"><path id="kity_path_214" fill="white" stroke="gray" d="M446.5,771.5A6,6,0,1,1,434.5,771.5A6,6,0,1,1,446.5,771.5"></path><path id="kity_path_215" fill="none" stroke="gray"></path></g><path id="node_outline23" fill="none" stroke="none" d="M435.5,760.5h307a5,5,0,0,1,5,5v12a5,5,0,0,1,-5,5h-307a5,5,0,0,1,-5,-5v-12a5,5,0,0,1,5,-5z"></path><g id="node_text23" fill="black"><text id="kity_text_121" text-rendering="inherit" font-size="12" dy=".8em" y="765.5" x="440.5">1. translate(-centerX*(factor-1), -centerY*(factor-1))</text></g></g><g id="minder_node25"><g id="node_expander23" display="none" style="cursor: pointer;"><path id="kity_path_217" fill="white" stroke="gray" d="M446.5,823.5A6,6,0,1,1,434.5,823.5A6,6,0,1,1,446.5,823.5"></path><path id="kity_path_218" fill="none" stroke="gray"></path></g><path id="node_outline24" fill="none" stroke="none" d="M435.5,812.5h98a5,5,0,0,1,5,5v12a5,5,0,0,1,-5,5h-98a5,5,0,0,1,-5,-5v-12a5,5,0,0,1,5,-5z"></path><g id="node_text24" fill="black"><text id="kity_text_123" text-rendering="inherit" font-size="12" dy=".8em" y="817.5" x="440.5">2. scale(factor)</text></g></g></g></g></svg>