<svg id="kity_svg_6" xmlns="http://www.w3.org/2000/svg" xmlns:xlink="http://www.w3.org/1999/xlink" version="1.1" width="1090" height="955" style="background: rgb(251, 251, 251); visibility: visible;" viewBox="0 0 1090 955"><defs id="kity_defs_7"><linearGradient id="kity_linearGradient_17" x1="0" y1="0" x2="0" y2="1"><stop id="kity_stop_18" offset="0" stop-color="rgb(255, 255, 255)"></stop><stop id="kity_stop_19" offset="1" stop-color="rgb(204, 204, 204)"></stop></linearGradient><marker id="kity_marker_2" orient="auto" refX="6" refY="0" viewBox="-7 -7 14 14" markerWidth="7" markerHeight="7" markerUnits="userSpaceOnUse"><path id="kity_path_3" fill="rgb(115, 161, 191)" stroke="none" d="M6,0A6,6,0,1,1,-6,0A6,6,0,1,1,6,0"></path></marker></defs><g id="kity_g_8"><g id="minder1" text-rendering="optimize-speed"><g id="minder_connect_group1"><path id="kity_path_31" fill="none" stroke="rgb(115, 161, 191)" stroke-width="1" d="M84.5,422.5A182,268,0,0,1,266.5,154.5"></path><path id="kity_path_33" fill="none" stroke="rgb(115, 161, 191)" stroke-width="1" d="M336.5,154.5C356.5,154.5,356.5,57.5,376.5,57.5"></path><path id="kity_path_35" fill="none" stroke="rgb(115, 161, 191)" stroke-width="1" d="M444.5,57.5C464.5,57.5,464.5,31.5,484.5,31.5"></path><path id="kity_path_37" fill="none" stroke="rgb(115, 161, 191)" stroke-width="1" d="M444.5,57.5C464.5,57.5,464.5,83.5,484.5,83.5"></path><path id="kity_path_39" fill="none" stroke="rgb(115, 161, 191)" stroke-width="1" d="M336.5,154.5C356.5,154.5,356.5,252.5,376.5,252.5"></path><path id="kity_path_41" fill="none" stroke="rgb(115, 161, 191)" stroke-width="1" d="M454.5,252.5C474.5,252.5,474.5,161.5,494.5,161.5"></path><path id="kity_path_43" fill="none" stroke="rgb(115, 161, 191)" stroke-width="1" d="M584.5,161.5C604.5,161.5,604.5,135.5,624.5,135.5"></path><path id="kity_path_45" fill="none" stroke="rgb(115, 161, 191)" stroke-width="1" d="M791.5,135.5C811.5,135.5,811.5,135.5,831.5,135.5"></path><path id="kity_path_47" fill="none" stroke="rgb(115, 161, 191)" stroke-width="1" d="M584.5,161.5C604.5,161.5,604.5,187.5,624.5,187.5"></path><path id="kity_path_49" fill="none" stroke="rgb(115, 161, 191)" stroke-width="1" d="M743.5,187.5C763.5,187.5,763.5,187.5,783.5,187.5"></path><path id="kity_path_51" fill="none" stroke="rgb(115, 161, 191)" stroke-width="1" d="M454.5,252.5C474.5,252.5,474.5,265.5,494.5,265.5"></path><path id="kity_path_53" fill="none" stroke="rgb(115, 161, 191)" stroke-width="1" d="M632.5,265.5C652.5,265.5,652.5,239.5,672.5,239.5"></path><path id="kity_path_55" fill="none" stroke="rgb(115, 161, 191)" stroke-width="1" d="M806.5,239.5C826.5,239.5,826.5,239.5,846.5,239.5"></path><path id="kity_path_57" fill="none" stroke="rgb(115, 161, 191)" stroke-width="1" d="M632.5,265.5C652.5,265.5,652.5,291.5,672.5,291.5"></path><path id="kity_path_59" fill="none" stroke="rgb(115, 161, 191)" stroke-width="1" d="M824.5,291.5C844.5,291.5,844.5,291.5,864.5,291.5"></path><path id="kity_path_61" fill="none" stroke="rgb(115, 161, 191)" stroke-width="1" d="M454.5,252.5C474.5,252.5,474.5,343.5,494.5,343.5"></path><path id="kity_path_63" fill="none" stroke="rgb(115, 161, 191)" stroke-width="1" d="M84.5,422.5A182,268,0,0,0,266.5,690.5"></path><path id="kity_path_65" fill="none" stroke="rgb(115, 161, 191)" stroke-width="1" d="M336.5,690.5C356.5,690.5,356.5,560.5,376.5,560.5"></path><path id="kity_path_67" fill="none" stroke="rgb(115, 161, 191)" stroke-width="1" d="M494.5,560.5C514.5,560.5,514.5,456.5,534.5,456.5"></path><path id="kity_path_69" fill="none" stroke="rgb(115, 161, 191)" stroke-width="1" d="M593.5,456.5C613.5,456.5,613.5,404.5,633.5,404.5"></path><path id="kity_path_71" fill="none" stroke="rgb(115, 161, 191)" stroke-width="1" d="M593.5,456.5C613.5,456.5,613.5,456.5,633.5,456.5"></path><path id="kity_path_73" fill="none" stroke="rgb(115, 161, 191)" stroke-width="1" d="M593.5,456.5C613.5,456.5,613.5,508.5,633.5,508.5"></path><path id="kity_path_75" fill="none" stroke="rgb(115, 161, 191)" stroke-width="1" d="M494.5,560.5C514.5,560.5,514.5,560.5,534.5,560.5"></path><path id="kity_path_77" fill="none" stroke="rgb(115, 161, 191)" stroke-width="1" d="M602.5,560.5C622.5,560.5,622.5,560.5,642.5,560.5"></path><path id="kity_path_79" fill="none" stroke="rgb(115, 161, 191)" stroke-width="1" d="M494.5,560.5C514.5,560.5,514.5,664.5,534.5,664.5"></path><path id="kity_path_81" fill="none" stroke="rgb(115, 161, 191)" stroke-width="1" d="M641.5,664.5C661.5,664.5,661.5,612.5,681.5,612.5"></path><path id="kity_path_83" fill="none" stroke="rgb(115, 161, 191)" stroke-width="1" d="M641.5,664.5C661.5,664.5,661.5,664.5,681.5,664.5"></path><path id="kity_path_85" fill="none" stroke="rgb(115, 161, 191)" stroke-width="1" d="M641.5,664.5C661.5,664.5,661.5,716.5,681.5,716.5"></path><path id="kity_path_87" fill="none" stroke="rgb(115, 161, 191)" stroke-width="1" d="M336.5,690.5C356.5,690.5,356.5,820.5,376.5,820.5"></path><path id="kity_path_89" fill="none" stroke="rgb(115, 161, 191)" stroke-width="1" d="M496.5,820.5C516.5,820.5,516.5,768.5,536.5,768.5"></path><path id="kity_path_91" fill="none" stroke="rgb(115, 161, 191)" stroke-width="1" d="M604.5,768.5C624.5,768.5,624.5,768.5,644.5,768.5"></path><path id="kity_path_93" fill="none" stroke="rgb(115, 161, 191)" stroke-width="1" d="M496.5,820.5C516.5,820.5,516.5,872.5,536.5,872.5"></path><path id="kity_path_95" fill="none" stroke="rgb(115, 161, 191)" stroke-width="1" d="M643.5,872.5C663.5,872.5,663.5,820.5,683.5,820.5"></path><path id="kity_path_97" fill="none" stroke="rgb(115, 161, 191)" stroke-width="1" d="M643.5,872.5C663.5,872.5,663.5,872.5,683.5,872.5"></path><path id="kity_path_99" fill="none" stroke="rgb(115, 161, 191)" stroke-width="1" d="M643.5,872.5C663.5,872.5,663.5,924.5,683.5,924.5"></path></g><g id="minder_node1"><path id="node_outline1" fill="rgb(115, 161, 191)" stroke="rgb(115, 161, 191)" d="M25.5,402.5h118a5,5,0,0,1,5,5v30a5,5,0,0,1,-5,5h-118a5,5,0,0,1,-5,-5v-30a5,5,0,0,1,5,-5z" stroke-width="3"></path><g id="node_text1" fill="white"><text id="kity_text_22" text-rendering="inherit" font-size="16" dy=".8em" y="414.5" x="44.5">图案和渐变</text></g></g><g id="kity_g_12"><path id="kity_path_13" fill="none" stroke="none" d="M44.5,422.5h0v0h0z"></path></g><g id="kity_g_14"><path id="kity_path_15" fill="none" stroke="none" d="M44.5,422.5h0v0h0z"></path><path id="kity_path_16" fill="none" stroke="none"></path></g><g id="minder_node2"><g id="node_expander16" style="cursor: pointer;"><path id="kity_path_251" fill="white" stroke="gray" d="M267.5,154.5A6,6,0,1,1,255.5,154.5A6,6,0,1,1,267.5,154.5"></path><path id="kity_path_252" fill="none" stroke="gray" d="M257,154.5L266,154.5"></path></g><path id="node_outline17" fill="rgb(238, 243, 246)" stroke="rgb(115, 161, 191)" d="M271.5,141.5h62a3,3,0,0,1,3,3v20a3,3,0,0,1,-3,3h-62a3,3,0,0,1,-3,-3v-20a3,3,0,0,1,3,-3z" stroke-width="1"></path><g id="node_text17" fill="black"><text id="kity_text_131" text-rendering="inherit" font-size="14" dy=".8em" y="147.5" x="288.5">图案</text></g></g><g id="minder_node3"><g id="node_expander3" style="cursor: pointer;"><path id="kity_path_212" fill="white" stroke="gray" d="M376.5,57.5A6,6,0,1,1,364.5,57.5A6,6,0,1,1,376.5,57.5"></path><path id="kity_path_213" fill="none" stroke="gray" d="M366,57.5L375,57.5"></path></g><path id="node_outline4" fill="none" stroke="none" d="M381.5,46.5h58a5,5,0,0,1,5,5v12a5,5,0,0,1,-5,5h-58a5,5,0,0,1,-5,-5v-12a5,5,0,0,1,5,-5z"></path><g id="node_text4" fill="black"><text id="kity_text_105" text-rendering="inherit" font-size="12" dy=".8em" y="51.5" x="386.5">填充图案</text></g></g><g id="minder_node4"><g id="node_expander1" display="none" style="cursor: pointer;"><path id="kity_path_206" fill="white" stroke="gray" d="M500.5,31.5A6,6,0,1,1,488.5,31.5A6,6,0,1,1,500.5,31.5"></path><path id="kity_path_207" fill="none" stroke="gray"></path></g><path id="node_outline2" fill="none" stroke="none" d="M489.5,20.5h264a5,5,0,0,1,5,5v12a5,5,0,0,1,-5,5h-264a5,5,0,0,1,-5,-5v-12a5,5,0,0,1,5,-5z"></path><g id="node_text2" fill="black"><text id="kity_text_101" text-rendering="inherit" font-size="12" dy=".8em" y="25.5" x="494.5">1.定义一个水平或垂直重复的图形(pattern元素)</text></g></g><g id="minder_node5"><g id="node_expander2" display="none" style="cursor: pointer;"><path id="kity_path_209" fill="white" stroke="gray" d="M500.5,83.5A6,6,0,1,1,488.5,83.5A6,6,0,1,1,500.5,83.5"></path><path id="kity_path_210" fill="none" stroke="gray"></path></g><path id="node_outline3" fill="none" stroke="none" d="M489.5,72.5h142a5,5,0,0,1,5,5v12a5,5,0,0,1,-5,5h-142a5,5,0,0,1,-5,-5v-12a5,5,0,0,1,5,-5z"></path><g id="node_text3" fill="black"><text id="kity_text_103" text-rendering="inherit" font-size="12" dy=".8em" y="77.5" x="494.5">2. 设置fill属性为指定图形</text></g></g><g id="minder_node6"><g id="node_expander15" style="cursor: pointer;"><path id="kity_path_248" fill="white" stroke="gray" d="M376.5,252.5A6,6,0,1,1,364.5,252.5A6,6,0,1,1,376.5,252.5"></path><path id="kity_path_249" fill="none" stroke="gray" d="M366,252.5L375,252.5"></path></g><path id="node_outline16" fill="none" stroke="none" d="M381.5,241.5h68a5,5,0,0,1,5,5v12a5,5,0,0,1,-5,5h-68a5,5,0,0,1,-5,-5v-12a5,5,0,0,1,5,-5z"></path><g id="node_text16" fill="black"><text id="kity_text_129" text-rendering="inherit" font-size="12" dy=".8em" y="246.5" x="386.5">&lt;pattern&gt;</text></g></g><g id="minder_node7"><g id="node_expander8" style="cursor: pointer;"><path id="kity_path_227" fill="white" stroke="gray" d="M494.5,161.5A6,6,0,1,1,482.5,161.5A6,6,0,1,1,494.5,161.5"></path><path id="kity_path_228" fill="none" stroke="gray" d="M484,161.5L493,161.5"></path></g><path id="node_outline9" fill="none" stroke="none" d="M499.5,150.5h80a5,5,0,0,1,5,5v12a5,5,0,0,1,-5,5h-80a5,5,0,0,1,-5,-5v-12a5,5,0,0,1,5,-5z"></path><g id="node_text9" fill="black"><text id="kity_text_115" text-rendering="inherit" font-size="12" dy=".8em" y="155.5" x="504.5">patternUnits</text></g></g><g id="minder_node8"><g id="node_expander5" style="cursor: pointer;"><path id="kity_path_218" fill="white" stroke="gray" d="M624.5,135.5A6,6,0,1,1,612.5,135.5A6,6,0,1,1,624.5,135.5"></path><path id="kity_path_219" fill="none" stroke="gray" d="M614,135.5L623,135.5"></path></g><path id="node_outline6" fill="none" stroke="none" d="M629.5,124.5h157a5,5,0,0,1,5,5v12a5,5,0,0,1,-5,5h-157a5,5,0,0,1,-5,-5v-12a5,5,0,0,1,5,-5z"></path><g id="node_text6" fill="black"><text id="kity_text_109" text-rendering="inherit" font-size="12" dy=".8em" y="129.5" x="634.5">objectBoundingBox(默认)</text></g></g><g id="minder_node9"><g id="node_expander4" display="none" style="cursor: pointer;"><path id="kity_path_215" fill="white" stroke="gray" d="M847.5,135.5A6,6,0,1,1,835.5,135.5A6,6,0,1,1,847.5,135.5"></path><path id="kity_path_216" fill="none" stroke="gray"></path></g><path id="node_outline5" fill="none" stroke="none" d="M836.5,124.5h154a5,5,0,0,1,5,5v12a5,5,0,0,1,-5,5h-154a5,5,0,0,1,-5,-5v-12a5,5,0,0,1,5,-5z"></path><g id="node_text5" fill="black"><text id="kity_text_107" text-rendering="inherit" font-size="12" dy=".8em" y="129.5" x="841.5">图案尺寸为百分比自动适配</text></g></g><g id="minder_node10"><g id="node_expander7" style="cursor: pointer;"><path id="kity_path_224" fill="white" stroke="gray" d="M624.5,187.5A6,6,0,1,1,612.5,187.5A6,6,0,1,1,624.5,187.5"></path><path id="kity_path_225" fill="none" stroke="gray" d="M614,187.5L623,187.5"></path></g><path id="node_outline8" fill="none" stroke="none" d="M629.5,176.5h109a5,5,0,0,1,5,5v12a5,5,0,0,1,-5,5h-109a5,5,0,0,1,-5,-5v-12a5,5,0,0,1,5,-5z"></path><g id="node_text8" fill="black"><text id="kity_text_113" text-rendering="inherit" font-size="12" dy=".8em" y="181.5" x="634.5">userSpaceOnUse</text></g></g><g id="minder_node11"><g id="node_expander6" display="none" style="cursor: pointer;"><path id="kity_path_221" fill="white" stroke="gray" d="M799.5,187.5A6,6,0,1,1,787.5,187.5A6,6,0,1,1,799.5,187.5"></path><path id="kity_path_222" fill="none" stroke="gray"></path></g><path id="node_outline7" fill="none" stroke="none" d="M788.5,176.5h82a5,5,0,0,1,5,5v12a5,5,0,0,1,-5,5h-82a5,5,0,0,1,-5,-5v-12a5,5,0,0,1,5,-5z"></path><g id="node_text7" fill="black"><text id="kity_text_111" text-rendering="inherit" font-size="12" dy=".8em" y="181.5" x="793.5">图案尺寸固定</text></g></g><g id="minder_node12"><g id="node_expander13" style="cursor: pointer;"><path id="kity_path_242" fill="white" stroke="gray" d="M494.5,265.5A6,6,0,1,1,482.5,265.5A6,6,0,1,1,494.5,265.5"></path><path id="kity_path_243" fill="none" stroke="gray" d="M484,265.5L493,265.5"></path></g><path id="node_outline14" fill="none" stroke="none" d="M499.5,254.5h128a5,5,0,0,1,5,5v12a5,5,0,0,1,-5,5h-128a5,5,0,0,1,-5,-5v-12a5,5,0,0,1,5,-5z"></path><g id="node_text14" fill="black"><text id="kity_text_125" text-rendering="inherit" font-size="12" dy=".8em" y="259.5" x="504.5">patternContentUnits</text></g></g><g id="minder_node13"><g id="node_expander10" style="cursor: pointer;"><path id="kity_path_233" fill="white" stroke="gray" d="M672.5,239.5A6,6,0,1,1,660.5,239.5A6,6,0,1,1,672.5,239.5"></path><path id="kity_path_234" fill="none" stroke="gray" d="M662,239.5L671,239.5"></path></g><path id="node_outline11" fill="none" stroke="none" d="M677.5,228.5h124a5,5,0,0,1,5,5v12a5,5,0,0,1,-5,5h-124a5,5,0,0,1,-5,-5v-12a5,5,0,0,1,5,-5z"></path><g id="node_text11" fill="black"><text id="kity_text_119" text-rendering="inherit" font-size="12" dy=".8em" y="233.5" x="682.5">objectBoundingBox</text></g></g><g id="minder_node14"><g id="node_expander9" display="none" style="cursor: pointer;"><path id="kity_path_230" fill="white" stroke="gray" d="M862.5,239.5A6,6,0,1,1,850.5,239.5A6,6,0,1,1,862.5,239.5"></path><path id="kity_path_231" fill="none" stroke="gray"></path></g><path id="node_outline10" fill="none" stroke="none" d="M851.5,228.5h214a5,5,0,0,1,5,5v12a5,5,0,0,1,-5,5h-214a5,5,0,0,1,-5,-5v-12a5,5,0,0,1,5,-5z"></path><g id="node_text10" fill="black"><text id="kity_text_117" text-rendering="inherit" font-size="12" dy=".8em" y="233.5" x="856.5">路径本身的数据点由被填充的对象确定</text></g></g><g id="minder_node15"><g id="node_expander12" style="cursor: pointer;"><path id="kity_path_239" fill="white" stroke="gray" d="M672.5,291.5A6,6,0,1,1,660.5,291.5A6,6,0,1,1,672.5,291.5"></path><path id="kity_path_240" fill="none" stroke="gray" d="M662,291.5L671,291.5"></path></g><path id="node_outline13" fill="none" stroke="none" d="M677.5,280.5h142a5,5,0,0,1,5,5v12a5,5,0,0,1,-5,5h-142a5,5,0,0,1,-5,-5v-12a5,5,0,0,1,5,-5z"></path><g id="node_text13" fill="black"><text id="kity_text_123" text-rendering="inherit" font-size="12" dy=".8em" y="285.5" x="682.5">userSpaceOnUse(默认)</text></g></g><g id="minder_node16"><g id="node_expander11" display="none" style="cursor: pointer;"><path id="kity_path_236" fill="white" stroke="gray" d="M880.5,291.5A6,6,0,1,1,868.5,291.5A6,6,0,1,1,880.5,291.5"></path><path id="kity_path_237" fill="none" stroke="gray"></path></g><path id="node_outline12" fill="none" stroke="none" d="M869.5,280.5h118a5,5,0,0,1,5,5v12a5,5,0,0,1,-5,5h-118a5,5,0,0,1,-5,-5v-12a5,5,0,0,1,5,-5z"></path><g id="node_text12" fill="black"><text id="kity_text_121" text-rendering="inherit" font-size="12" dy=".8em" y="285.5" x="874.5">固定的图案内部内容</text></g></g><g id="minder_node17"><g id="node_expander14" display="none" style="cursor: pointer;"><path id="kity_path_245" fill="white" stroke="gray" d="M510.5,343.5A6,6,0,1,1,498.5,343.5A6,6,0,1,1,510.5,343.5"></path><path id="kity_path_246" fill="none" stroke="gray"></path></g><path id="node_outline15" fill="none" stroke="none" d="M499.5,332.5h58a5,5,0,0,1,5,5v12a5,5,0,0,1,-5,5h-58a5,5,0,0,1,-5,-5v-12a5,5,0,0,1,5,-5z"></path><g id="node_text15" fill="black"><text id="kity_text_127" text-rendering="inherit" font-size="12" dy=".8em" y="337.5" x="504.5">图案嵌套</text></g></g><g id="minder_node18"><g id="node_expander35" style="cursor: pointer;"><path id="kity_path_308" fill="white" stroke="gray" d="M267.5,690.5A6,6,0,1,1,255.5,690.5A6,6,0,1,1,267.5,690.5"></path><path id="kity_path_309" fill="none" stroke="gray" d="M257,690.5L266,690.5"></path></g><path id="node_outline36" fill="rgb(238, 243, 246)" stroke="rgb(115, 161, 191)" d="M271.5,677.5h62a3,3,0,0,1,3,3v20a3,3,0,0,1,-3,3h-62a3,3,0,0,1,-3,-3v-20a3,3,0,0,1,3,-3z" stroke-width="1"></path><g id="node_text36" fill="black"><text id="kity_text_169" text-rendering="inherit" font-size="14" dy=".8em" y="683.5" x="288.5">渐变</text></g></g><g id="minder_node19"><g id="node_expander27" style="cursor: pointer;"><path id="kity_path_284" fill="white" stroke="gray" d="M376.5,560.5A6,6,0,1,1,364.5,560.5A6,6,0,1,1,376.5,560.5"></path><path id="kity_path_285" fill="none" stroke="gray" d="M366,560.5L375,560.5"></path></g><path id="node_outline28" fill="none" stroke="none" d="M381.5,549.5h108a5,5,0,0,1,5,5v12a5,5,0,0,1,-5,5h-108a5,5,0,0,1,-5,-5v-12a5,5,0,0,1,5,-5z"></path><g id="node_text28" fill="black"><text id="kity_text_153" text-rendering="inherit" font-size="12" dy=".8em" y="554.5" x="386.5">&lt;linearGradient&gt;</text></g></g><g id="minder_node20"><g id="node_expander20" style="cursor: pointer;"><path id="kity_path_263" fill="white" stroke="gray" d="M534.5,456.5A6,6,0,1,1,522.5,456.5A6,6,0,1,1,534.5,456.5"></path><path id="kity_path_264" fill="none" stroke="gray" d="M524,456.5L533,456.5"></path></g><path id="node_outline21" fill="none" stroke="none" d="M539.5,445.5h49a5,5,0,0,1,5,5v12a5,5,0,0,1,-5,5h-49a5,5,0,0,1,-5,-5v-12a5,5,0,0,1,5,-5z"></path><g id="node_text21" fill="black"><text id="kity_text_139" text-rendering="inherit" font-size="12" dy=".8em" y="450.5" x="544.5">&lt;stop&gt;</text></g></g><g id="minder_node21"><g id="node_expander17" display="none" style="cursor: pointer;"><path id="kity_path_254" fill="white" stroke="gray" d="M649.5,404.5A6,6,0,1,1,637.5,404.5A6,6,0,1,1,649.5,404.5"></path><path id="kity_path_255" fill="none" stroke="gray"></path></g><path id="node_outline18" fill="none" stroke="none" d="M638.5,393.5h42a5,5,0,0,1,5,5v12a5,5,0,0,1,-5,5h-42a5,5,0,0,1,-5,-5v-12a5,5,0,0,1,5,-5z"></path><g id="node_text18" fill="black"><text id="kity_text_133" text-rendering="inherit" font-size="12" dy=".8em" y="398.5" x="643.5">offset</text></g></g><g id="minder_node22"><g id="node_expander18" display="none" style="cursor: pointer;"><path id="kity_path_257" fill="white" stroke="gray" d="M649.5,456.5A6,6,0,1,1,637.5,456.5A6,6,0,1,1,649.5,456.5"></path><path id="kity_path_258" fill="none" stroke="gray"></path></g><path id="node_outline19" fill="none" stroke="none" d="M638.5,445.5h68a5,5,0,0,1,5,5v12a5,5,0,0,1,-5,5h-68a5,5,0,0,1,-5,-5v-12a5,5,0,0,1,5,-5z"></path><g id="node_text19" fill="black"><text id="kity_text_135" text-rendering="inherit" font-size="12" dy=".8em" y="450.5" x="643.5">stop-color</text></g></g><g id="minder_node23"><g id="node_expander19" display="none" style="cursor: pointer;"><path id="kity_path_260" fill="white" stroke="gray" d="M649.5,508.5A6,6,0,1,1,637.5,508.5A6,6,0,1,1,649.5,508.5"></path><path id="kity_path_261" fill="none" stroke="gray"></path></g><path id="node_outline20" fill="none" stroke="none" d="M638.5,497.5h84a5,5,0,0,1,5,5v12a5,5,0,0,1,-5,5h-84a5,5,0,0,1,-5,-5v-12a5,5,0,0,1,5,-5z"></path><g id="node_text20" fill="black"><text id="kity_text_137" text-rendering="inherit" font-size="12" dy=".8em" y="502.5" x="643.5">stop-opacity</text></g></g><g id="minder_node24"><g id="node_expander22" style="cursor: pointer;"><path id="kity_path_269" fill="white" stroke="gray" d="M534.5,560.5A6,6,0,1,1,522.5,560.5A6,6,0,1,1,534.5,560.5"></path><path id="kity_path_270" fill="none" stroke="gray" d="M524,560.5L533,560.5"></path></g><path id="node_outline23" fill="none" stroke="none" d="M539.5,549.5h58a5,5,0,0,1,5,5v12a5,5,0,0,1,-5,5h-58a5,5,0,0,1,-5,-5v-12a5,5,0,0,1,5,-5z"></path><g id="node_text23" fill="black"><text id="kity_text_143" text-rendering="inherit" font-size="12" dy=".8em" y="554.5" x="544.5">渐变方向</text></g></g><g id="minder_node25"><g id="node_expander21" display="none" style="cursor: pointer;"><path id="kity_path_266" fill="white" stroke="gray" d="M658.5,560.5A6,6,0,1,1,646.5,560.5A6,6,0,1,1,658.5,560.5"></path><path id="kity_path_267" fill="none" stroke="gray"></path></g><path id="node_outline22" fill="none" stroke="none" d="M647.5,549.5h224a5,5,0,0,1,5,5v12a5,5,0,0,1,-5,5h-224a5,5,0,0,1,-5,-5v-12a5,5,0,0,1,5,-5z"></path><g id="node_text22" fill="black"><text id="kity_text_141" text-rendering="inherit" font-size="12" dy=".8em" y="554.5" x="652.5">设置x1,y1和x2,y2决定渐变的起点和终点</text></g></g><g id="minder_node26"><g id="node_expander26" style="cursor: pointer;"><path id="kity_path_281" fill="white" stroke="gray" d="M534.5,664.5A6,6,0,1,1,522.5,664.5A6,6,0,1,1,534.5,664.5"></path><path id="kity_path_282" fill="none" stroke="gray" d="M524,664.5L533,664.5"></path></g><path id="node_outline27" fill="none" stroke="none" d="M539.5,653.5h97a5,5,0,0,1,5,5v12a5,5,0,0,1,-5,5h-97a5,5,0,0,1,-5,-5v-12a5,5,0,0,1,5,-5z"></path><g id="node_text27" fill="black"><text id="kity_text_151" text-rendering="inherit" font-size="12" dy=".8em" y="658.5" x="544.5">spreadMethod</text></g></g><g id="minder_node27"><g id="node_expander23" display="none" style="cursor: pointer;"><path id="kity_path_272" fill="white" stroke="gray" d="M697.5,612.5A6,6,0,1,1,685.5,612.5A6,6,0,1,1,697.5,612.5"></path><path id="kity_path_273" fill="none" stroke="gray"></path></g><path id="node_outline24" fill="none" stroke="none" d="M686.5,601.5h35a5,5,0,0,1,5,5v12a5,5,0,0,1,-5,5h-35a5,5,0,0,1,-5,-5v-12a5,5,0,0,1,5,-5z"></path><g id="node_text24" fill="black"><text id="kity_text_145" text-rendering="inherit" font-size="12" dy=".8em" y="606.5" x="691.5">pad</text></g></g><g id="minder_node28"><g id="node_expander24" display="none" style="cursor: pointer;"><path id="kity_path_275" fill="white" stroke="gray" d="M697.5,664.5A6,6,0,1,1,685.5,664.5A6,6,0,1,1,697.5,664.5"></path><path id="kity_path_276" fill="none" stroke="gray"></path></g><path id="node_outline25" fill="none" stroke="none" d="M686.5,653.5h50a5,5,0,0,1,5,5v12a5,5,0,0,1,-5,5h-50a5,5,0,0,1,-5,-5v-12a5,5,0,0,1,5,-5z"></path><g id="node_text25" fill="black"><text id="kity_text_147" text-rendering="inherit" font-size="12" dy=".8em" y="658.5" x="691.5">repeat</text></g></g><g id="minder_node29"><g id="node_expander25" display="none" style="cursor: pointer;"><path id="kity_path_278" fill="white" stroke="gray" d="M697.5,716.5A6,6,0,1,1,685.5,716.5A6,6,0,1,1,697.5,716.5"></path><path id="kity_path_279" fill="none" stroke="gray"></path></g><path id="node_outline26" fill="none" stroke="none" d="M686.5,705.5h47a5,5,0,0,1,5,5v12a5,5,0,0,1,-5,5h-47a5,5,0,0,1,-5,-5v-12a5,5,0,0,1,5,-5z"></path><g id="node_text26" fill="black"><text id="kity_text_149" text-rendering="inherit" font-size="12" dy=".8em" y="710.5" x="691.5">reflect</text></g></g><g id="minder_node30"><g id="node_expander34" style="cursor: pointer;"><path id="kity_path_305" fill="white" stroke="gray" d="M376.5,820.5A6,6,0,1,1,364.5,820.5A6,6,0,1,1,376.5,820.5"></path><path id="kity_path_306" fill="none" stroke="gray" d="M366,820.5L375,820.5"></path></g><path id="node_outline35" fill="none" stroke="none" d="M381.5,809.5h110a5,5,0,0,1,5,5v12a5,5,0,0,1,-5,5h-110a5,5,0,0,1,-5,-5v-12a5,5,0,0,1,5,-5z"></path><g id="node_text35" fill="black"><text id="kity_text_167" text-rendering="inherit" font-size="12" dy=".8em" y="814.5" x="386.5">&lt;radialGradient&gt;</text></g></g><g id="minder_node31"><g id="node_expander29" style="cursor: pointer;"><path id="kity_path_290" fill="white" stroke="gray" d="M536.5,768.5A6,6,0,1,1,524.5,768.5A6,6,0,1,1,536.5,768.5"></path><path id="kity_path_291" fill="none" stroke="gray" d="M526,768.5L535,768.5"></path></g><path id="node_outline30" fill="none" stroke="none" d="M541.5,757.5h58a5,5,0,0,1,5,5v12a5,5,0,0,1,-5,5h-58a5,5,0,0,1,-5,-5v-12a5,5,0,0,1,5,-5z"></path><g id="node_text30" fill="black"><text id="kity_text_157" text-rendering="inherit" font-size="12" dy=".8em" y="762.5" x="546.5">渐变范围</text></g></g><g id="minder_node32"><g id="node_expander28" display="none" style="cursor: pointer;"><path id="kity_path_287" fill="white" stroke="gray" d="M660.5,768.5A6,6,0,1,1,648.5,768.5A6,6,0,1,1,660.5,768.5"></path><path id="kity_path_288" fill="none" stroke="gray"></path></g><path id="node_outline29" fill="none" stroke="none" d="M649.5,757.5h54a5,5,0,0,1,5,5v12a5,5,0,0,1,-5,5h-54a5,5,0,0,1,-5,-5v-12a5,5,0,0,1,5,-5z"></path><g id="node_text29" fill="black"><text id="kity_text_155" text-rendering="inherit" font-size="12" dy=".8em" y="762.5" x="654.5">cx, cy, r</text></g></g><g id="minder_node33"><g id="node_expander33" style="cursor: pointer;"><path id="kity_path_302" fill="white" stroke="gray" d="M536.5,872.5A6,6,0,1,1,524.5,872.5A6,6,0,1,1,536.5,872.5"></path><path id="kity_path_303" fill="none" stroke="gray" d="M526,872.5L535,872.5"></path></g><path id="node_outline34" fill="none" stroke="none" d="M541.5,861.5h97a5,5,0,0,1,5,5v12a5,5,0,0,1,-5,5h-97a5,5,0,0,1,-5,-5v-12a5,5,0,0,1,5,-5z"></path><g id="node_text34" fill="black"><text id="kity_text_165" text-rendering="inherit" font-size="12" dy=".8em" y="866.5" x="546.5">spreadMethod</text></g></g><g id="minder_node34"><g id="node_expander30" display="none" style="cursor: pointer;"><path id="kity_path_293" fill="white" stroke="gray" d="M699.5,820.5A6,6,0,1,1,687.5,820.5A6,6,0,1,1,699.5,820.5"></path><path id="kity_path_294" fill="none" stroke="gray"></path></g><path id="node_outline31" fill="none" stroke="none" d="M688.5,809.5h35a5,5,0,0,1,5,5v12a5,5,0,0,1,-5,5h-35a5,5,0,0,1,-5,-5v-12a5,5,0,0,1,5,-5z"></path><g id="node_text31" fill="black"><text id="kity_text_159" text-rendering="inherit" font-size="12" dy=".8em" y="814.5" x="693.5">pad</text></g></g><g id="minder_node35"><g id="node_expander31" display="none" style="cursor: pointer;"><path id="kity_path_296" fill="white" stroke="gray" d="M699.5,872.5A6,6,0,1,1,687.5,872.5A6,6,0,1,1,699.5,872.5"></path><path id="kity_path_297" fill="none" stroke="gray"></path></g><path id="node_outline32" fill="none" stroke="none" d="M688.5,861.5h50a5,5,0,0,1,5,5v12a5,5,0,0,1,-5,5h-50a5,5,0,0,1,-5,-5v-12a5,5,0,0,1,5,-5z"></path><g id="node_text32" fill="black"><text id="kity_text_161" text-rendering="inherit" font-size="12" dy=".8em" y="866.5" x="693.5">repeat</text></g></g><g id="minder_node36"><g id="node_expander32" display="none" style="cursor: pointer;"><path id="kity_path_299" fill="white" stroke="gray" d="M699.5,924.5A6,6,0,1,1,687.5,924.5A6,6,0,1,1,699.5,924.5"></path><path id="kity_path_300" fill="none" stroke="gray"></path></g><path id="node_outline33" fill="none" stroke="none" d="M688.5,913.5h47a5,5,0,0,1,5,5v12a5,5,0,0,1,-5,5h-47a5,5,0,0,1,-5,-5v-12a5,5,0,0,1,5,-5z"></path><g id="node_text33" fill="black"><text id="kity_text_163" text-rendering="inherit" font-size="12" dy=".8em" y="918.5" x="693.5">reflect</text></g></g></g></g></svg>