<svg id="kity_svg_6" xmlns="http://www.w3.org/2000/svg" xmlns:xlink="http://www.w3.org/1999/xlink" version="1.1" width="814" height="541" style="background: rgb(251, 251, 251); visibility: visible;" viewBox="0 0 814 541"><defs id="kity_defs_7"><linearGradient id="kity_linearGradient_17" x1="0" y1="0" x2="0" y2="1"><stop id="kity_stop_18" offset="0" stop-color="rgb(255, 255, 255)"></stop><stop id="kity_stop_19" offset="1" stop-color="rgb(204, 204, 204)"></stop></linearGradient><marker id="kity_marker_2" orient="auto" refX="6" refY="0" viewBox="-7 -7 14 14" markerWidth="7" markerHeight="7" markerUnits="userSpaceOnUse"><path id="kity_path_3" fill="rgb(115, 161, 191)" stroke="none" d="M6,0A6,6,0,1,1,-6,0A6,6,0,1,1,6,0"></path></marker></defs><g id="kity_g_8"><g id="minder1" text-rendering="optimize-speed"><g id="minder_connect_group1"><path id="kity_path_31" fill="none" stroke="rgb(115, 161, 191)" stroke-width="1" d="M84.5,280.5A182,145,0,0,1,266.5,135.5"></path><path id="kity_path_33" fill="none" stroke="rgb(115, 161, 191)" stroke-width="1" d="M336.5,135.5C356.5,135.5,356.5,83.5,376.5,83.5"></path><path id="kity_path_35" fill="none" stroke="rgb(115, 161, 191)" stroke-width="1" d="M458.5,83.5C478.5,83.5,478.5,31.5,498.5,31.5"></path><path id="kity_path_37" fill="none" stroke="rgb(115, 161, 191)" stroke-width="1" d="M458.5,83.5C478.5,83.5,478.5,83.5,498.5,83.5"></path><path id="kity_path_39" fill="none" stroke="rgb(115, 161, 191)" stroke-width="1" d="M458.5,83.5C478.5,83.5,478.5,135.5,498.5,135.5"></path><path id="kity_path_41" fill="none" stroke="rgb(115, 161, 191)" stroke-width="1" d="M336.5,135.5C356.5,135.5,356.5,187.5,376.5,187.5"></path><path id="kity_path_43" fill="none" stroke="rgb(115, 161, 191)" stroke-width="1" d="M84.5,280.5A182,145,0,0,0,266.5,425.5"></path><path id="kity_path_45" fill="none" stroke="rgb(115, 161, 191)" stroke-width="1" d="M336.5,425.5C356.5,425.5,356.5,341.5,376.5,341.5"></path><path id="kity_path_47" fill="none" stroke="rgb(115, 161, 191)" stroke-width="1" d="M441.5,341.5C461.5,341.5,461.5,250.5,481.5,250.5"></path><path id="kity_path_49" fill="none" stroke="rgb(115, 161, 191)" stroke-width="1" d="M441.5,341.5C461.5,341.5,461.5,328.5,481.5,328.5"></path><path id="kity_path_51" fill="none" stroke="rgb(115, 161, 191)" stroke-width="1" d="M557.5,328.5C577.5,328.5,577.5,302.5,597.5,302.5"></path><path id="kity_path_53" fill="none" stroke="rgb(115, 161, 191)" stroke-width="1" d="M557.5,328.5C577.5,328.5,577.5,354.5,597.5,354.5"></path><path id="kity_path_55" fill="none" stroke="rgb(115, 161, 191)" stroke-width="1" d="M441.5,341.5C461.5,341.5,461.5,432.5,481.5,432.5"></path><path id="kity_path_57" fill="none" stroke="rgb(115, 161, 191)" stroke-width="1" d="M602.5,432.5C622.5,432.5,622.5,406.5,642.5,406.5"></path><path id="kity_path_59" fill="none" stroke="rgb(115, 161, 191)" stroke-width="1" d="M602.5,432.5C622.5,432.5,622.5,458.5,642.5,458.5"></path><path id="kity_path_61" fill="none" stroke="rgb(115, 161, 191)" stroke-width="1" d="M336.5,425.5C356.5,425.5,356.5,510.5,376.5,510.5"></path></g><g id="minder_node1"><path id="node_outline1" fill="rgb(115, 161, 191)" stroke="rgb(115, 161, 191)" d="M25.5,260.5h118a5,5,0,0,1,5,5v30a5,5,0,0,1,-5,5h-118a5,5,0,0,1,-5,-5v-30a5,5,0,0,1,5,-5z" stroke-width="3"></path><g id="node_text1" fill="white"><text id="kity_text_22" text-rendering="inherit" font-size="16" dy=".8em" y="272.5" x="44.5">裁剪和蒙版</text></g></g><g id="kity_g_12"><path id="kity_path_13" fill="none" stroke="none" d="M44.5,280.5h0v0h0z"></path></g><g id="kity_g_14"><path id="kity_path_15" fill="none" stroke="none" d="M44.5,280.5h0v0h0z"></path><path id="kity_path_16" fill="none" stroke="none"></path></g><g id="minder_node2"><g id="node_expander6" style="cursor: pointer;"><path id="kity_path_126" fill="white" stroke="gray" d="M267.5,135.5A6,6,0,1,1,255.5,135.5A6,6,0,1,1,267.5,135.5"></path><path id="kity_path_127" fill="none" stroke="gray" d="M257,135.5L266,135.5"></path></g><path id="node_outline7" fill="rgb(238, 243, 246)" stroke="rgb(115, 161, 191)" d="M271.5,122.5h62a3,3,0,0,1,3,3v20a3,3,0,0,1,-3,3h-62a3,3,0,0,1,-3,-3v-20a3,3,0,0,1,3,-3z" stroke-width="1"></path><g id="node_text7" fill="black"><text id="kity_text_73" text-rendering="inherit" font-size="14" dy=".8em" y="128.5" x="288.5">裁剪</text></g></g><g id="minder_node3"><g id="node_expander4" style="cursor: pointer;"><path id="kity_path_120" fill="white" stroke="gray" d="M376.5,83.5A6,6,0,1,1,364.5,83.5A6,6,0,1,1,376.5,83.5"></path><path id="kity_path_121" fill="none" stroke="gray" d="M366,83.5L375,83.5"></path></g><path id="node_outline5" fill="none" stroke="none" d="M381.5,72.5h72a5,5,0,0,1,5,5v12a5,5,0,0,1,-5,5h-72a5,5,0,0,1,-5,-5v-12a5,5,0,0,1,5,-5z"></path><g id="node_text5" fill="black"><text id="kity_text_69" text-rendering="inherit" font-size="12" dy=".8em" y="77.5" x="386.5">&lt;clipPath&gt;</text></g></g><g id="minder_node4"><g id="node_expander1" display="none" style="cursor: pointer;"><path id="kity_path_111" fill="white" stroke="gray" d="M514.5,31.5A6,6,0,1,1,502.5,31.5A6,6,0,1,1,514.5,31.5"></path><path id="kity_path_112" fill="none" stroke="gray"></path></g><path id="node_outline2" fill="none" stroke="none" d="M503.5,20.5h58a5,5,0,0,1,5,5v12a5,5,0,0,1,-5,5h-58a5,5,0,0,1,-5,-5v-12a5,5,0,0,1,5,-5z"></path><g id="node_text2" fill="black"><text id="kity_text_63" text-rendering="inherit" font-size="12" dy=".8em" y="25.5" x="508.5">曲线剪裁</text></g></g><g id="minder_node5"><g id="node_expander2" display="none" style="cursor: pointer;"><path id="kity_path_114" fill="white" stroke="gray" d="M514.5,83.5A6,6,0,1,1,502.5,83.5A6,6,0,1,1,514.5,83.5"></path><path id="kity_path_115" fill="none" stroke="gray"></path></g><path id="node_outline3" fill="none" stroke="none" d="M503.5,72.5h58a5,5,0,0,1,5,5v12a5,5,0,0,1,-5,5h-58a5,5,0,0,1,-5,-5v-12a5,5,0,0,1,5,-5z"></path><g id="node_text3" fill="black"><text id="kity_text_65" text-rendering="inherit" font-size="12" dy=".8em" y="77.5" x="508.5">文本剪裁</text></g></g><g id="minder_node6"><g id="node_expander3" display="none" style="cursor: pointer;"><path id="kity_path_117" fill="white" stroke="gray" d="M514.5,135.5A6,6,0,1,1,502.5,135.5A6,6,0,1,1,514.5,135.5"></path><path id="kity_path_118" fill="none" stroke="gray"></path></g><path id="node_outline4" fill="none" stroke="none" d="M503.5,124.5h58a5,5,0,0,1,5,5v12a5,5,0,0,1,-5,5h-58a5,5,0,0,1,-5,-5v-12a5,5,0,0,1,5,-5z"></path><g id="node_text4" fill="black"><text id="kity_text_67" text-rendering="inherit" font-size="12" dy=".8em" y="129.5" x="508.5">图形剪裁</text></g></g><g id="minder_node7"><g id="node_expander5" display="none" style="cursor: pointer;"><path id="kity_path_123" fill="white" stroke="gray" d="M392.5,187.5A6,6,0,1,1,380.5,187.5A6,6,0,1,1,392.5,187.5"></path><path id="kity_path_124" fill="none" stroke="gray"></path></g><path id="node_outline6" fill="none" stroke="none" d="M381.5,176.5h215a5,5,0,0,1,5,5v12a5,5,0,0,1,-5,5h-215a5,5,0,0,1,-5,-5v-12a5,5,0,0,1,5,-5z"></path><g id="node_text6" fill="black"><text id="kity_text_71" text-rendering="inherit" font-size="12" dy=".8em" y="181.5" x="386.5">style="clip-path:url(#yourClipPath);"</text></g></g><g id="minder_node8"><g id="node_expander16" style="cursor: pointer;"><path id="kity_path_156" fill="white" stroke="gray" d="M267.5,425.5A6,6,0,1,1,255.5,425.5A6,6,0,1,1,267.5,425.5"></path><path id="kity_path_157" fill="none" stroke="gray" d="M257,425.5L266,425.5"></path></g><path id="node_outline17" fill="rgb(238, 243, 246)" stroke="rgb(115, 161, 191)" d="M271.5,412.5h62a3,3,0,0,1,3,3v20a3,3,0,0,1,-3,3h-62a3,3,0,0,1,-3,-3v-20a3,3,0,0,1,3,-3z" stroke-width="1"></path><g id="node_text17" fill="black"><text id="kity_text_93" text-rendering="inherit" font-size="14" dy=".8em" y="418.5" x="288.5">蒙版</text></g></g><g id="minder_node9"><g id="node_expander14" style="cursor: pointer;"><path id="kity_path_150" fill="white" stroke="gray" d="M376.5,341.5A6,6,0,1,1,364.5,341.5A6,6,0,1,1,376.5,341.5"></path><path id="kity_path_151" fill="none" stroke="gray" d="M366,341.5L375,341.5"></path></g><path id="node_outline15" fill="none" stroke="none" d="M381.5,330.5h55a5,5,0,0,1,5,5v12a5,5,0,0,1,-5,5h-55a5,5,0,0,1,-5,-5v-12a5,5,0,0,1,5,-5z"></path><g id="node_text15" fill="black"><text id="kity_text_89" text-rendering="inherit" font-size="12" dy=".8em" y="335.5" x="386.5">&lt;mask&gt;</text></g></g><g id="minder_node10"><g id="node_expander7" display="none" style="cursor: pointer;"><path id="kity_path_129" fill="white" stroke="gray" d="M497.5,250.5A6,6,0,1,1,485.5,250.5A6,6,0,1,1,497.5,250.5"></path><path id="kity_path_130" fill="none" stroke="gray"></path></g><path id="node_outline8" fill="none" stroke="none" d="M486.5,239.5h101a5,5,0,0,1,5,5v12a5,5,0,0,1,-5,5h-101a5,5,0,0,1,-5,-5v-12a5,5,0,0,1,5,-5z"></path><g id="node_text8" fill="black"><text id="kity_text_75" text-rendering="inherit" font-size="12" dy=".8em" y="244.5" x="491.5">x,y,width,height</text></g></g><g id="minder_node11"><g id="node_expander10" style="cursor: pointer;"><path id="kity_path_138" fill="white" stroke="gray" d="M481.5,328.5A6,6,0,1,1,469.5,328.5A6,6,0,1,1,481.5,328.5"></path><path id="kity_path_139" fill="none" stroke="gray" d="M471,328.5L480,328.5"></path></g><path id="node_outline11" fill="none" stroke="none" d="M486.5,317.5h66a5,5,0,0,1,5,5v12a5,5,0,0,1,-5,5h-66a5,5,0,0,1,-5,-5v-12a5,5,0,0,1,5,-5z"></path><g id="node_text11" fill="black"><text id="kity_text_81" text-rendering="inherit" font-size="12" dy=".8em" y="322.5" x="491.5">maskUnits</text></g></g><g id="minder_node12"><g id="node_expander8" display="none" style="cursor: pointer;"><path id="kity_path_132" fill="white" stroke="gray" d="M613.5,302.5A6,6,0,1,1,601.5,302.5A6,6,0,1,1,613.5,302.5"></path><path id="kity_path_133" fill="none" stroke="gray"></path></g><path id="node_outline9" fill="none" stroke="none" d="M602.5,291.5h157a5,5,0,0,1,5,5v12a5,5,0,0,1,-5,5h-157a5,5,0,0,1,-5,-5v-12a5,5,0,0,1,5,-5z"></path><g id="node_text9" fill="black"><text id="kity_text_77" text-rendering="inherit" font-size="12" dy=".8em" y="296.5" x="607.5">objectBoundingBox(默认)</text></g></g><g id="minder_node13"><g id="node_expander9" display="none" style="cursor: pointer;"><path id="kity_path_135" fill="white" stroke="gray" d="M613.5,354.5A6,6,0,1,1,601.5,354.5A6,6,0,1,1,613.5,354.5"></path><path id="kity_path_136" fill="none" stroke="gray"></path></g><path id="node_outline10" fill="none" stroke="none" d="M602.5,343.5h109a5,5,0,0,1,5,5v12a5,5,0,0,1,-5,5h-109a5,5,0,0,1,-5,-5v-12a5,5,0,0,1,5,-5z"></path><g id="node_text10" fill="black"><text id="kity_text_79" text-rendering="inherit" font-size="12" dy=".8em" y="348.5" x="607.5">userSpaceOnUse</text></g></g><g id="minder_node14"><g id="node_expander13" style="cursor: pointer;"><path id="kity_path_147" fill="white" stroke="gray" d="M481.5,432.5A6,6,0,1,1,469.5,432.5A6,6,0,1,1,481.5,432.5"></path><path id="kity_path_148" fill="none" stroke="gray" d="M471,432.5L480,432.5"></path></g><path id="node_outline14" fill="none" stroke="none" d="M486.5,421.5h111a5,5,0,0,1,5,5v12a5,5,0,0,1,-5,5h-111a5,5,0,0,1,-5,-5v-12a5,5,0,0,1,5,-5z"></path><g id="node_text14" fill="black"><text id="kity_text_87" text-rendering="inherit" font-size="12" dy=".8em" y="426.5" x="491.5">maskContenUnits</text></g></g><g id="minder_node15"><g id="node_expander11" display="none" style="cursor: pointer;"><path id="kity_path_141" fill="white" stroke="gray" d="M658.5,406.5A6,6,0,1,1,646.5,406.5A6,6,0,1,1,658.5,406.5"></path><path id="kity_path_142" fill="none" stroke="gray"></path></g><path id="node_outline12" fill="none" stroke="none" d="M647.5,395.5h124a5,5,0,0,1,5,5v12a5,5,0,0,1,-5,5h-124a5,5,0,0,1,-5,-5v-12a5,5,0,0,1,5,-5z"></path><g id="node_text12" fill="black"><text id="kity_text_83" text-rendering="inherit" font-size="12" dy=".8em" y="400.5" x="652.5">objectBoundingBox</text></g></g><g id="minder_node16"><g id="node_expander12" display="none" style="cursor: pointer;"><path id="kity_path_144" fill="white" stroke="gray" d="M658.5,458.5A6,6,0,1,1,646.5,458.5A6,6,0,1,1,658.5,458.5"></path><path id="kity_path_145" fill="none" stroke="gray"></path></g><path id="node_outline13" fill="none" stroke="none" d="M647.5,447.5h142a5,5,0,0,1,5,5v12a5,5,0,0,1,-5,5h-142a5,5,0,0,1,-5,-5v-12a5,5,0,0,1,5,-5z"></path><g id="node_text13" fill="black"><text id="kity_text_85" text-rendering="inherit" font-size="12" dy=".8em" y="452.5" x="652.5">userSpaceOnUse(默认)</text></g></g><g id="minder_node17"><g id="node_expander15" display="none" style="cursor: pointer;"><path id="kity_path_153" fill="white" stroke="gray" d="M392.5,510.5A6,6,0,1,1,380.5,510.5A6,6,0,1,1,392.5,510.5"></path><path id="kity_path_154" fill="none" stroke="gray"></path></g><path id="node_outline16" fill="none" stroke="none" d="M381.5,499.5h176a5,5,0,0,1,5,5v12a5,5,0,0,1,-5,5h-176a5,5,0,0,1,-5,-5v-12a5,5,0,0,1,5,-5z"></path><g id="node_text16" fill="black"><text id="kity_text_91" text-rendering="inherit" font-size="12" dy=".8em" y="504.5" x="386.5">style="mask: url(#yourMask);"</text></g></g></g></g></svg>