<svg id="kity_svg_6" xmlns="http://www.w3.org/2000/svg" xmlns:xlink="http://www.w3.org/1999/xlink" version="1.1" width="739" height="294" style="background: rgb(251, 251, 251); visibility: visible;" viewBox="0 0 739 294"><defs id="kity_defs_7"><linearGradient id="kity_linearGradient_17" x1="0" y1="0" x2="0" y2="1"><stop id="kity_stop_18" offset="0" stop-color="rgb(255, 255, 255)"></stop><stop id="kity_stop_19" offset="1" stop-color="rgb(204, 204, 204)"></stop></linearGradient><marker id="kity_marker_2" orient="auto" refX="6" refY="0" viewBox="-7 -7 14 14" markerWidth="7" markerHeight="7" markerUnits="userSpaceOnUse"><path id="kity_path_3" fill="rgb(115, 161, 191)" stroke="none" d="M6,0A6,6,0,1,1,-6,0A6,6,0,1,1,6,0"></path></marker></defs><g id="kity_g_8"><g id="minder1" text-rendering="optimize-speed"><g id="minder_connect_group1"><path id="kity_path_31" fill="none" stroke="rgb(115, 161, 191)" stroke-width="1" d="M60.5,147.5A158,90,0,0,1,218.5,57.5"></path><path id="kity_path_33" fill="none" stroke="rgb(115, 161, 191)" stroke-width="1" d="M316.5,57.5C336.5,57.5,336.5,31.5,356.5,31.5"></path><path id="kity_path_35" fill="none" stroke="rgb(115, 161, 191)" stroke-width="1" d="M448.5,31.5C468.5,31.5,468.5,31.5,488.5,31.5"></path><path id="kity_path_37" fill="none" stroke="rgb(115, 161, 191)" stroke-width="1" d="M316.5,57.5C336.5,57.5,336.5,83.5,356.5,83.5"></path><path id="kity_path_39" fill="none" stroke="rgb(115, 161, 191)" stroke-width="1" d="M434.5,83.5C454.5,83.5,454.5,83.5,474.5,83.5"></path><path id="kity_path_41" fill="none" stroke="rgb(115, 161, 191)" stroke-width="1" d="M60.5,147.5A158,0,0,0,1,218.5,147.5"></path><path id="kity_path_43" fill="none" stroke="rgb(115, 161, 191)" stroke-width="1" d="M344.5,147.5C364.5,147.5,364.5,147.5,384.5,147.5"></path><path id="kity_path_45" fill="none" stroke="rgb(115, 161, 191)" stroke-width="1" d="M529.5,147.5C549.5,147.5,549.5,147.5,569.5,147.5"></path><path id="kity_path_47" fill="none" stroke="rgb(115, 161, 191)" stroke-width="1" d="M60.5,147.5A158,90,0,0,0,218.5,237.5"></path><path id="kity_path_49" fill="none" stroke="rgb(115, 161, 191)" stroke-width="1" d="M316.5,237.5C336.5,237.5,336.5,211.5,356.5,211.5"></path><path id="kity_path_51" fill="none" stroke="rgb(115, 161, 191)" stroke-width="1" d="M316.5,237.5C336.5,237.5,336.5,263.5,356.5,263.5"></path></g><g id="minder_node1"><path id="node_outline1" fill="rgb(115, 161, 191)" stroke="rgb(115, 161, 191)" d="M25.5,127.5h70a5,5,0,0,1,5,5v30a5,5,0,0,1,-5,5h-70a5,5,0,0,1,-5,-5v-30a5,5,0,0,1,5,-5z" stroke-width="3"></path><g id="node_text1" fill="white"><text id="kity_text_22" text-rendering="inherit" font-size="16" dy=".8em" y="139.5" x="44.5">使用</text></g></g><g id="kity_g_12"><path id="kity_path_13" fill="none" stroke="none" d="M44.5,147.5h0v0h0z"></path></g><g id="kity_g_14"><path id="kity_path_15" fill="none" stroke="none" d="M44.5,147.5h0v0h0z"></path><path id="kity_path_16" fill="none" stroke="none"></path></g><g id="minder_node2"><g id="node_expander5" style="cursor: pointer;"><path id="kity_path_98" fill="white" stroke="gray" d="M219.5,57.5A6,6,0,1,1,207.5,57.5A6,6,0,1,1,219.5,57.5"></path><path id="kity_path_99" fill="none" stroke="gray" d="M209,57.5L218,57.5"></path></g><path id="node_outline6" fill="rgb(238, 243, 246)" stroke="rgb(115, 161, 191)" d="M223.5,44.5h90a3,3,0,0,1,3,3v20a3,3,0,0,1,-3,3h-90a3,3,0,0,1,-3,-3v-20a3,3,0,0,1,3,-3z" stroke-width="1"></path><g id="node_text6" fill="black"><text id="kity_text_61" text-rendering="inherit" font-size="14" dy=".8em" y="50.5" x="240.5">作为图像</text></g></g><g id="minder_node3"><g id="node_expander2" style="cursor: pointer;"><path id="kity_path_89" fill="white" stroke="gray" d="M356.5,31.5A6,6,0,1,1,344.5,31.5A6,6,0,1,1,356.5,31.5"></path><path id="kity_path_90" fill="none" stroke="gray" d="M346,31.5L355,31.5"></path></g><path id="node_outline3" fill="none" stroke="none" d="M361.5,20.5h82a5,5,0,0,1,5,5v12a5,5,0,0,1,-5,5h-82a5,5,0,0,1,-5,-5v-12a5,5,0,0,1,5,-5z"></path><g id="node_text3" fill="black"><text id="kity_text_55" text-rendering="inherit" font-size="12" dy=".8em" y="25.5" x="366.5">&lt;img&gt;中包含</text></g></g><g id="minder_node4"><g id="node_expander1" display="none" style="cursor: pointer;"><path id="kity_path_86" fill="white" stroke="gray" d="M504.5,31.5A6,6,0,1,1,492.5,31.5A6,6,0,1,1,504.5,31.5"></path><path id="kity_path_87" fill="none" stroke="gray"></path></g><path id="node_outline2" fill="none" stroke="none" d="M493.5,20.5h123a5,5,0,0,1,5,5v12a5,5,0,0,1,-5,5h-123a5,5,0,0,1,-5,-5v-12a5,5,0,0,1,5,-5z"></path><g id="node_text2" fill="black"><text id="kity_text_53" text-rendering="inherit" font-size="12" dy=".8em" y="25.5" x="498.5">&lt;img src="cat.svg"&gt;</text></g></g><g id="minder_node5"><g id="node_expander4" style="cursor: pointer;"><path id="kity_path_95" fill="white" stroke="gray" d="M356.5,83.5A6,6,0,1,1,344.5,83.5A6,6,0,1,1,356.5,83.5"></path><path id="kity_path_96" fill="none" stroke="gray" d="M346,83.5L355,83.5"></path></g><path id="node_outline5" fill="none" stroke="none" d="M361.5,72.5h68a5,5,0,0,1,5,5v12a5,5,0,0,1,-5,5h-68a5,5,0,0,1,-5,-5v-12a5,5,0,0,1,5,-5z"></path><g id="node_text5" fill="black"><text id="kity_text_59" text-rendering="inherit" font-size="12" dy=".8em" y="77.5" x="366.5">CSS中包含</text></g></g><g id="minder_node6"><g id="node_expander3" display="none" style="cursor: pointer;"><path id="kity_path_92" fill="white" stroke="gray" d="M490.5,83.5A6,6,0,1,1,478.5,83.5A6,6,0,1,1,490.5,83.5"></path><path id="kity_path_93" fill="none" stroke="gray"></path></g><path id="node_outline4" fill="none" stroke="none" d="M479.5,72.5h203a5,5,0,0,1,5,5v12a5,5,0,0,1,-5,5h-203a5,5,0,0,1,-5,-5v-12a5,5,0,0,1,5,-5z"></path><g id="node_text4" fill="black"><text id="kity_text_57" text-rendering="inherit" font-size="12" dy=".8em" y="77.5" x="484.5">background-image: url("cat.svg")</text></g></g><g id="minder_node7"><g id="node_expander8" style="cursor: pointer;"><path id="kity_path_107" fill="white" stroke="gray" d="M219.5,147.5A6,6,0,1,1,207.5,147.5A6,6,0,1,1,219.5,147.5"></path><path id="kity_path_108" fill="none" stroke="gray" d="M209,147.5L218,147.5"></path></g><path id="node_outline9" fill="rgb(238, 243, 246)" stroke="rgb(115, 161, 191)" d="M223.5,134.5h118a3,3,0,0,1,3,3v20a3,3,0,0,1,-3,3h-118a3,3,0,0,1,-3,-3v-20a3,3,0,0,1,3,-3z" stroke-width="1"></path><g id="node_text9" fill="black"><text id="kity_text_67" text-rendering="inherit" font-size="14" dy=".8em" y="140.5" x="240.5">作为应用程序</text></g></g><g id="minder_node8"><g id="node_expander7" style="cursor: pointer;"><path id="kity_path_104" fill="white" stroke="gray" d="M384.5,147.5A6,6,0,1,1,372.5,147.5A6,6,0,1,1,384.5,147.5"></path><path id="kity_path_105" fill="none" stroke="gray" d="M374,147.5L383,147.5"></path></g><path id="node_outline8" fill="none" stroke="none" d="M389.5,136.5h135a5,5,0,0,1,5,5v12a5,5,0,0,1,-5,5h-135a5,5,0,0,1,-5,-5v-12a5,5,0,0,1,5,-5z"></path><g id="node_text8" fill="black"><text id="kity_text_65" text-rendering="inherit" font-size="12" dy=".8em" y="141.5" x="394.5">在&lt;object&gt;元素中嵌入</text></g></g><g id="minder_node9"><g id="node_expander6" display="none" style="cursor: pointer;"><path id="kity_path_101" fill="white" stroke="gray" d="M585.5,147.5A6,6,0,1,1,573.5,147.5A6,6,0,1,1,585.5,147.5"></path><path id="kity_path_102" fill="none" stroke="gray"></path></g><path id="node_outline7" fill="none" stroke="none" d="M574.5,136.5h140a5,5,0,0,1,5,5v12a5,5,0,0,1,-5,5h-140a5,5,0,0,1,-5,-5v-12a5,5,0,0,1,5,-5z"></path><g id="node_text7" fill="black"><text id="kity_text_63" text-rendering="inherit" font-size="12" dy=".8em" y="141.5" x="579.5">type="image/svg+xml"</text></g></g><g id="minder_node10"><g id="node_expander11" style="cursor: pointer;"><path id="kity_path_116" fill="white" stroke="gray" d="M219.5,237.5A6,6,0,1,1,207.5,237.5A6,6,0,1,1,219.5,237.5"></path><path id="kity_path_117" fill="none" stroke="gray" d="M209,237.5L218,237.5"></path></g><path id="node_outline12" fill="rgb(238, 243, 246)" stroke="rgb(115, 161, 191)" d="M223.5,224.5h90a3,3,0,0,1,3,3v20a3,3,0,0,1,-3,3h-90a3,3,0,0,1,-3,-3v-20a3,3,0,0,1,3,-3z" stroke-width="1"></path><g id="node_text12" fill="black"><text id="kity_text_73" text-rendering="inherit" font-size="14" dy=".8em" y="230.5" x="240.5">混合文档</text></g></g><g id="minder_node11"><g id="node_expander9" display="none" style="cursor: pointer;"><path id="kity_path_110" fill="white" stroke="gray" d="M372.5,211.5A6,6,0,1,1,360.5,211.5A6,6,0,1,1,372.5,211.5"></path><path id="kity_path_111" fill="none" stroke="gray"></path></g><path id="node_outline10" fill="none" stroke="none" d="M361.5,200.5h130a5,5,0,0,1,5,5v12a5,5,0,0,1,-5,5h-130a5,5,0,0,1,-5,-5v-12a5,5,0,0,1,5,-5z"></path><g id="node_text10" fill="black"><text id="kity_text_69" text-rendering="inherit" font-size="12" dy=".8em" y="205.5" x="366.5">&lt;foreignObject&gt;元素</text></g></g><g id="minder_node12"><g id="node_expander10" display="none" style="cursor: pointer;"><path id="kity_path_113" fill="white" stroke="gray" d="M372.5,263.5A6,6,0,1,1,360.5,263.5A6,6,0,1,1,372.5,263.5"></path><path id="kity_path_114" fill="none" stroke="gray"></path></g><path id="node_outline11" fill="none" stroke="none" d="M361.5,252.5h132a5,5,0,0,1,5,5v12a5,5,0,0,1,-5,5h-132a5,5,0,0,1,-5,-5v-12a5,5,0,0,1,5,-5z"></path><g id="node_text11" fill="black"><text id="kity_text_71" text-rendering="inherit" font-size="12" dy=".8em" y="257.5" x="366.5">XHTML中包含SVG标记</text></g></g></g></g></svg>