<svg id="kity_svg_6" xmlns="http://www.w3.org/2000/svg" xmlns:xlink="http://www.w3.org/1999/xlink" version="1.1" width="992" height="1588" style="background: rgb(251, 251, 251); visibility: visible;" viewBox="0 0 992 1588"><defs id="kity_defs_7"><linearGradient id="kity_linearGradient_17" x1="0" y1="0" x2="0" y2="1"><stop id="kity_stop_18" offset="0" stop-color="rgb(255, 255, 255)"></stop><stop id="kity_stop_19" offset="1" stop-color="rgb(204, 204, 204)"></stop></linearGradient><marker id="kity_marker_2" orient="auto" refX="6" refY="0" viewBox="-7 -7 14 14" markerWidth="7" markerHeight="7" markerUnits="userSpaceOnUse"><path id="kity_path_3" fill="rgb(115, 161, 191)" stroke="none" d="M6,0A6,6,0,1,1,-6,0A6,6,0,1,1,6,0"></path></marker></defs><g id="kity_g_8"><g id="minder1" text-rendering="optimize-speed"><g id="minder_connect_group1"><path id="kity_path_31" fill="none" stroke="rgb(115, 161, 191)" stroke-width="1" d="M60.5,820.5A158,685,0,0,1,218.5,135.5"></path><path id="kity_path_33" fill="none" stroke="rgb(115, 161, 191)" stroke-width="1" d="M288.5,135.5C308.5,135.5,308.5,31.5,328.5,31.5"></path><path id="kity_path_35" fill="none" stroke="rgb(115, 161, 191)" stroke-width="1" d="M372.5,31.5C392.5,31.5,392.5,31.5,412.5,31.5"></path><path id="kity_path_37" fill="none" stroke="rgb(115, 161, 191)" stroke-width="1" d="M288.5,135.5C308.5,135.5,308.5,83.5,328.5,83.5"></path><path id="kity_path_39" fill="none" stroke="rgb(115, 161, 191)" stroke-width="1" d="M372.5,83.5C392.5,83.5,392.5,83.5,412.5,83.5"></path><path id="kity_path_41" fill="none" stroke="rgb(115, 161, 191)" stroke-width="1" d="M288.5,135.5C308.5,135.5,308.5,135.5,328.5,135.5"></path><path id="kity_path_43" fill="none" stroke="rgb(115, 161, 191)" stroke-width="1" d="M372.5,135.5C392.5,135.5,392.5,135.5,412.5,135.5"></path><path id="kity_path_45" fill="none" stroke="rgb(115, 161, 191)" stroke-width="1" d="M288.5,135.5C308.5,135.5,308.5,187.5,328.5,187.5"></path><path id="kity_path_47" fill="none" stroke="rgb(115, 161, 191)" stroke-width="1" d="M468.5,187.5C488.5,187.5,488.5,187.5,508.5,187.5"></path><path id="kity_path_49" fill="none" stroke="rgb(115, 161, 191)" stroke-width="1" d="M288.5,135.5C308.5,135.5,308.5,239.5,328.5,239.5"></path><path id="kity_path_51" fill="none" stroke="rgb(115, 161, 191)" stroke-width="1" d="M462.5,239.5C482.5,239.5,482.5,239.5,502.5,239.5"></path><path id="kity_path_53" fill="none" stroke="rgb(115, 161, 191)" stroke-width="1" d="M60.5,820.5A158,415,0,0,1,218.5,405.5"></path><path id="kity_path_55" fill="none" stroke="rgb(115, 161, 191)" stroke-width="1" d="M302.5,405.5C322.5,405.5,322.5,301.5,342.5,301.5"></path><path id="kity_path_57" fill="none" stroke="rgb(115, 161, 191)" stroke-width="1" d="M302.5,405.5C322.5,405.5,322.5,353.5,342.5,353.5"></path><path id="kity_path_59" fill="none" stroke="rgb(115, 161, 191)" stroke-width="1" d="M302.5,405.5C322.5,405.5,322.5,405.5,342.5,405.5"></path><path id="kity_path_61" fill="none" stroke="rgb(115, 161, 191)" stroke-width="1" d="M302.5,405.5C322.5,405.5,322.5,457.5,342.5,457.5"></path><path id="kity_path_63" fill="none" stroke="rgb(115, 161, 191)" stroke-width="1" d="M302.5,405.5C322.5,405.5,322.5,509.5,342.5,509.5"></path><path id="kity_path_65" fill="none" stroke="rgb(115, 161, 191)" stroke-width="1" d="M60.5,820.5A158,197,0,0,1,218.5,623.5"></path><path id="kity_path_67" fill="none" stroke="rgb(115, 161, 191)" stroke-width="1" d="M316.5,623.5C336.5,623.5,336.5,623.5,356.5,623.5"></path><path id="kity_path_69" fill="none" stroke="rgb(115, 161, 191)" stroke-width="1" d="M444.5,623.5C464.5,623.5,464.5,571.5,484.5,571.5"></path><path id="kity_path_71" fill="none" stroke="rgb(115, 161, 191)" stroke-width="1" d="M444.5,623.5C464.5,623.5,464.5,623.5,484.5,623.5"></path><path id="kity_path_73" fill="none" stroke="rgb(115, 161, 191)" stroke-width="1" d="M444.5,623.5C464.5,623.5,464.5,675.5,484.5,675.5"></path><path id="kity_path_75" fill="none" stroke="rgb(115, 161, 191)" stroke-width="1" d="M60.5,820.5A158,18,0,0,1,218.5,802.5"></path><path id="kity_path_77" fill="none" stroke="rgb(115, 161, 191)" stroke-width="1" d="M315.5,802.5C335.5,802.5,335.5,737.5,355.5,737.5"></path><path id="kity_path_79" fill="none" stroke="rgb(115, 161, 191)" stroke-width="1" d="M315.5,802.5C335.5,802.5,335.5,789.5,355.5,789.5"></path><path id="kity_path_81" fill="none" stroke="rgb(115, 161, 191)" stroke-width="1" d="M447.5,789.5C467.5,789.5,467.5,789.5,487.5,789.5"></path><path id="kity_path_83" fill="none" stroke="rgb(115, 161, 191)" stroke-width="1" d="M315.5,802.5C335.5,802.5,335.5,867.5,355.5,867.5"></path><path id="kity_path_85" fill="none" stroke="rgb(115, 161, 191)" stroke-width="1" d="M411.5,867.5C431.5,867.5,431.5,867.5,451.5,867.5"></path><path id="kity_path_87" fill="none" stroke="rgb(115, 161, 191)" stroke-width="1" d="M546.5,867.5C566.5,867.5,566.5,841.5,586.5,841.5"></path><path id="kity_path_89" fill="none" stroke="rgb(115, 161, 191)" stroke-width="1" d="M546.5,867.5C566.5,867.5,566.5,893.5,586.5,893.5"></path><path id="kity_path_91" fill="none" stroke="rgb(115, 161, 191)" stroke-width="1" d="M60.5,820.5A158,174,0,0,0,218.5,994.5"></path><path id="kity_path_93" fill="none" stroke="rgb(115, 161, 191)" stroke-width="1" d="M316.5,994.5C336.5,994.5,336.5,955.5,356.5,955.5"></path><path id="kity_path_95" fill="none" stroke="rgb(115, 161, 191)" stroke-width="1" d="M438.5,955.5C458.5,955.5,458.5,955.5,478.5,955.5"></path><path id="kity_path_97" fill="none" stroke="rgb(115, 161, 191)" stroke-width="1" d="M316.5,994.5C336.5,994.5,336.5,1033.5,356.5,1033.5"></path><path id="kity_path_99" fill="none" stroke="rgb(115, 161, 191)" stroke-width="1" d="M449.5,1033.5C469.5,1033.5,469.5,1007.5,489.5,1007.5"></path><path id="kity_path_101" fill="none" stroke="rgb(115, 161, 191)" stroke-width="1" d="M588.5,1007.5C608.5,1007.5,608.5,1007.5,628.5,1007.5"></path><path id="kity_path_103" fill="none" stroke="rgb(115, 161, 191)" stroke-width="1" d="M449.5,1033.5C469.5,1033.5,469.5,1059.5,489.5,1059.5"></path><path id="kity_path_105" fill="none" stroke="rgb(115, 161, 191)" stroke-width="1" d="M619.5,1059.5C639.5,1059.5,639.5,1059.5,659.5,1059.5"></path><path id="kity_path_107" fill="none" stroke="rgb(115, 161, 191)" stroke-width="1" d="M60.5,820.5A158,353,0,0,0,218.5,1173.5"></path><path id="kity_path_109" fill="none" stroke="rgb(115, 161, 191)" stroke-width="1" d="M316.5,1173.5C336.5,1173.5,336.5,1121.5,356.5,1121.5"></path><path id="kity_path_111" fill="none" stroke="rgb(115, 161, 191)" stroke-width="1" d="M535.5,1121.5C555.5,1121.5,555.5,1121.5,575.5,1121.5"></path><path id="kity_path_113" fill="none" stroke="rgb(115, 161, 191)" stroke-width="1" d="M316.5,1173.5C336.5,1173.5,336.5,1173.5,356.5,1173.5"></path><path id="kity_path_115" fill="none" stroke="rgb(115, 161, 191)" stroke-width="1" d="M633.5,1173.5C653.5,1173.5,653.5,1173.5,673.5,1173.5"></path><path id="kity_path_117" fill="none" stroke="rgb(115, 161, 191)" stroke-width="1" d="M316.5,1173.5C336.5,1173.5,336.5,1225.5,356.5,1225.5"></path><path id="kity_path_119" fill="none" stroke="rgb(115, 161, 191)" stroke-width="1" d="M508.5,1225.5C528.5,1225.5,528.5,1225.5,548.5,1225.5"></path><path id="kity_path_121" fill="none" stroke="rgb(115, 161, 191)" stroke-width="1" d="M60.5,820.5A158,519,0,0,0,218.5,1339.5"></path><path id="kity_path_123" fill="none" stroke="rgb(115, 161, 191)" stroke-width="1" d="M302.5,1339.5C322.5,1339.5,322.5,1287.5,342.5,1287.5"></path><path id="kity_path_125" fill="none" stroke="rgb(115, 161, 191)" stroke-width="1" d="M302.5,1339.5C322.5,1339.5,322.5,1339.5,342.5,1339.5"></path><path id="kity_path_127" fill="none" stroke="rgb(115, 161, 191)" stroke-width="1" d="M302.5,1339.5C322.5,1339.5,322.5,1391.5,342.5,1391.5"></path><path id="kity_path_129" fill="none" stroke="rgb(115, 161, 191)" stroke-width="1" d="M60.5,820.5A158,685,0,0,0,218.5,1505.5"></path><path id="kity_path_131" fill="none" stroke="rgb(115, 161, 191)" stroke-width="1" d="M316.5,1505.5C336.5,1505.5,336.5,1505.5,356.5,1505.5"></path><path id="kity_path_133" fill="none" stroke="rgb(115, 161, 191)" stroke-width="1" d="M439.5,1505.5C459.5,1505.5,459.5,1453.5,479.5,1453.5"></path><path id="kity_path_135" fill="none" stroke="rgb(115, 161, 191)" stroke-width="1" d="M439.5,1505.5C459.5,1505.5,459.5,1505.5,479.5,1505.5"></path><path id="kity_path_137" fill="none" stroke="rgb(115, 161, 191)" stroke-width="1" d="M439.5,1505.5C459.5,1505.5,459.5,1557.5,479.5,1557.5"></path></g><g id="minder_node1"><path id="node_outline1" fill="rgb(115, 161, 191)" stroke="rgb(115, 161, 191)" d="M25.5,800.5h70a5,5,0,0,1,5,5v30a5,5,0,0,1,-5,5h-70a5,5,0,0,1,-5,-5v-30a5,5,0,0,1,5,-5z" stroke-width="3"></path><g id="node_text1" fill="white"><text id="kity_text_22" text-rendering="inherit" font-size="16" dy=".8em" y="812.5" x="44.5">文本</text></g></g><g id="kity_g_12"><path id="kity_path_13" fill="none" stroke="none" d="M44.5,820.5h0v0h0z"></path></g><g id="kity_g_14"><path id="kity_path_15" fill="none" stroke="none" d="M44.5,820.5h0v0h0z"></path><path id="kity_path_16" fill="none" stroke="none"></path></g><g id="minder_node2"><g id="node_expander11" style="cursor: pointer;"><path id="kity_path_331" fill="white" stroke="gray" d="M219.5,135.5A6,6,0,1,1,207.5,135.5A6,6,0,1,1,219.5,135.5"></path><path id="kity_path_332" fill="none" stroke="gray" d="M209,135.5L218,135.5"></path></g><path id="node_outline12" fill="rgb(238, 243, 246)" stroke="rgb(115, 161, 191)" d="M223.5,122.5h62a3,3,0,0,1,3,3v20a3,3,0,0,1,-3,3h-62a3,3,0,0,1,-3,-3v-20a3,3,0,0,1,3,-3z" stroke-width="1"></path><g id="node_text12" fill="black"><text id="kity_text_159" text-rendering="inherit" font-size="14" dy=".8em" y="128.5" x="240.5">术语</text></g></g><g id="minder_node3"><g id="node_expander2" style="cursor: pointer;"><path id="kity_path_304" fill="white" stroke="gray" d="M328.5,31.5A6,6,0,1,1,316.5,31.5A6,6,0,1,1,328.5,31.5"></path><path id="kity_path_305" fill="none" stroke="gray" d="M318,31.5L327,31.5"></path></g><path id="node_outline3" fill="none" stroke="none" d="M333.5,20.5h34a5,5,0,0,1,5,5v12a5,5,0,0,1,-5,5h-34a5,5,0,0,1,-5,-5v-12a5,5,0,0,1,5,-5z"></path><g id="node_text3" fill="black"><text id="kity_text_141" text-rendering="inherit" font-size="12" dy=".8em" y="25.5" x="338.5">字符</text></g></g><g id="minder_node4"><g id="node_expander1" display="none" style="cursor: pointer;"><path id="kity_path_301" fill="white" stroke="gray" d="M428.5,31.5A6,6,0,1,1,416.5,31.5A6,6,0,1,1,428.5,31.5"></path><path id="kity_path_302" fill="none" stroke="gray"></path></g><path id="node_outline2" fill="none" stroke="none" d="M417.5,20.5h190a5,5,0,0,1,5,5v12a5,5,0,0,1,-5,5h-190a5,5,0,0,1,-5,-5v-12a5,5,0,0,1,5,-5z"></path><g id="node_text2" fill="black"><text id="kity_text_139" text-rendering="inherit" font-size="12" dy=".8em" y="25.5" x="422.5">带有一个数字值的一个或多个字节</text></g></g><g id="minder_node5"><g id="node_expander4" style="cursor: pointer;"><path id="kity_path_310" fill="white" stroke="gray" d="M328.5,83.5A6,6,0,1,1,316.5,83.5A6,6,0,1,1,328.5,83.5"></path><path id="kity_path_311" fill="none" stroke="gray" d="M318,83.5L327,83.5"></path></g><path id="node_outline5" fill="none" stroke="none" d="M333.5,72.5h34a5,5,0,0,1,5,5v12a5,5,0,0,1,-5,5h-34a5,5,0,0,1,-5,-5v-12a5,5,0,0,1,5,-5z"></path><g id="node_text5" fill="black"><text id="kity_text_145" text-rendering="inherit" font-size="12" dy=".8em" y="77.5" x="338.5">符号</text></g></g><g id="minder_node6"><g id="node_expander3" display="none" style="cursor: pointer;"><path id="kity_path_307" fill="white" stroke="gray" d="M428.5,83.5A6,6,0,1,1,416.5,83.5A6,6,0,1,1,428.5,83.5"></path><path id="kity_path_308" fill="none" stroke="gray"></path></g><path id="node_outline4" fill="none" stroke="none" d="M417.5,72.5h94a5,5,0,0,1,5,5v12a5,5,0,0,1,-5,5h-94a5,5,0,0,1,-5,-5v-12a5,5,0,0,1,5,-5z"></path><g id="node_text4" fill="black"><text id="kity_text_143" text-rendering="inherit" font-size="12" dy=".8em" y="77.5" x="422.5">字符的视觉呈现</text></g></g><g id="minder_node7"><g id="node_expander6" style="cursor: pointer;"><path id="kity_path_316" fill="white" stroke="gray" d="M328.5,135.5A6,6,0,1,1,316.5,135.5A6,6,0,1,1,328.5,135.5"></path><path id="kity_path_317" fill="none" stroke="gray" d="M318,135.5L327,135.5"></path></g><path id="node_outline7" fill="none" stroke="none" d="M333.5,124.5h34a5,5,0,0,1,5,5v12a5,5,0,0,1,-5,5h-34a5,5,0,0,1,-5,-5v-12a5,5,0,0,1,5,-5z"></path><g id="node_text7" fill="black"><text id="kity_text_149" text-rendering="inherit" font-size="12" dy=".8em" y="129.5" x="338.5">字体</text></g></g><g id="minder_node8"><g id="node_expander5" display="none" style="cursor: pointer;"><path id="kity_path_313" fill="white" stroke="gray" d="M428.5,135.5A6,6,0,1,1,416.5,135.5A6,6,0,1,1,428.5,135.5"></path><path id="kity_path_314" fill="none" stroke="gray"></path></g><path id="node_outline6" fill="none" stroke="none" d="M417.5,124.5h58a5,5,0,0,1,5,5v12a5,5,0,0,1,-5,5h-58a5,5,0,0,1,-5,-5v-12a5,5,0,0,1,5,-5z"></path><g id="node_text6" fill="black"><text id="kity_text_147" text-rendering="inherit" font-size="12" dy=".8em" y="129.5" x="422.5">字符集合</text></g></g><g id="minder_node9"><g id="node_expander8" style="cursor: pointer;"><path id="kity_path_322" fill="white" stroke="gray" d="M328.5,187.5A6,6,0,1,1,316.5,187.5A6,6,0,1,1,328.5,187.5"></path><path id="kity_path_323" fill="none" stroke="gray" d="M318,187.5L327,187.5"></path></g><path id="node_outline9" fill="none" stroke="none" d="M333.5,176.5h130a5,5,0,0,1,5,5v12a5,5,0,0,1,-5,5h-130a5,5,0,0,1,-5,-5v-12a5,5,0,0,1,5,-5z"></path><g id="node_text9" fill="black"><text id="kity_text_153" text-rendering="inherit" font-size="12" dy=".8em" y="181.5" x="338.5">基线、上坡度、下坡度</text></g></g><g id="minder_node10"><g id="node_expander7" display="none" style="cursor: pointer;"><path id="kity_path_319" fill="white" stroke="gray" d="M524.5,187.5A6,6,0,1,1,512.5,187.5A6,6,0,1,1,524.5,187.5"></path><path id="kity_path_320" fill="none" stroke="gray"></path></g><path id="node_outline8" fill="none" stroke="none" d="M513.5,176.5h454a5,5,0,0,1,5,5v12a5,5,0,0,1,-5,5h-454a5,5,0,0,1,-5,-5v-12a5,5,0,0,1,5,-5z"></path><g id="node_text8" fill="black"><text id="kity_text_151" text-rendering="inherit" font-size="12" dy=".8em" y="181.5" x="518.5">字体中的符号以基线对齐，基线到最高字符顶部为上坡度，到最低字符底部为下坡度</text></g></g><g id="minder_node11"><g id="node_expander10" style="cursor: pointer;"><path id="kity_path_328" fill="white" stroke="gray" d="M328.5,239.5A6,6,0,1,1,316.5,239.5A6,6,0,1,1,328.5,239.5"></path><path id="kity_path_329" fill="none" stroke="gray" d="M318,239.5L327,239.5"></path></g><path id="node_outline11" fill="none" stroke="none" d="M333.5,228.5h124a5,5,0,0,1,5,5v12a5,5,0,0,1,-5,5h-124a5,5,0,0,1,-5,-5v-12a5,5,0,0,1,5,-5z"></path><g id="node_text11" fill="black"><text id="kity_text_157" text-rendering="inherit" font-size="12" dy=".8em" y="233.5" x="338.5">大写字母高度、x高度</text></g></g><g id="minder_node12"><g id="node_expander9" display="none" style="cursor: pointer;"><path id="kity_path_325" fill="white" stroke="gray" d="M518.5,239.5A6,6,0,1,1,506.5,239.5A6,6,0,1,1,518.5,239.5"></path><path id="kity_path_326" fill="none" stroke="gray"></path></g><path id="node_outline10" fill="none" stroke="none" d="M507.5,228.5h232a5,5,0,0,1,5,5v12a5,5,0,0,1,-5,5h-232a5,5,0,0,1,-5,-5v-12a5,5,0,0,1,5,-5z"></path><g id="node_text10" fill="black"><text id="kity_text_155" text-rendering="inherit" font-size="12" dy=".8em" y="233.5" x="512.5">基线上大写字母的高度，小写x字母的高度</text></g></g><g id="minder_node13"><g id="node_expander17" style="cursor: pointer;"><path id="kity_path_349" fill="white" stroke="gray" d="M219.5,405.5A6,6,0,1,1,207.5,405.5A6,6,0,1,1,219.5,405.5"></path><path id="kity_path_350" fill="none" stroke="gray" d="M209,405.5L218,405.5"></path></g><path id="node_outline18" fill="rgb(238, 243, 246)" stroke="rgb(115, 161, 191)" d="M223.5,392.5h76a3,3,0,0,1,3,3v20a3,3,0,0,1,-3,3h-76a3,3,0,0,1,-3,-3v-20a3,3,0,0,1,3,-3z" stroke-width="1"></path><g id="node_text18" fill="black"><text id="kity_text_171" text-rendering="inherit" font-size="14" dy=".8em" y="398.5" x="240.5">&lt;text&gt;</text></g></g><g id="minder_node14"><g id="node_expander12" display="none" style="cursor: pointer;"><path id="kity_path_334" fill="white" stroke="gray" d="M358.5,301.5A6,6,0,1,1,346.5,301.5A6,6,0,1,1,358.5,301.5"></path><path id="kity_path_335" fill="none" stroke="gray"></path></g><path id="node_outline13" fill="none" stroke="none" d="M347.5,290.5h26a5,5,0,0,1,5,5v12a5,5,0,0,1,-5,5h-26a5,5,0,0,1,-5,-5v-12a5,5,0,0,1,5,-5z"></path><g id="node_text13" fill="black"><text id="kity_text_161" text-rendering="inherit" font-size="12" dy=".8em" y="295.5" x="352.5">x,y</text></g></g><g id="minder_node15"><g id="node_expander13" display="none" style="cursor: pointer;"><path id="kity_path_337" fill="white" stroke="gray" d="M358.5,353.5A6,6,0,1,1,346.5,353.5A6,6,0,1,1,358.5,353.5"></path><path id="kity_path_338" fill="none" stroke="gray"></path></g><path id="node_outline14" fill="none" stroke="none" d="M347.5,342.5h71a5,5,0,0,1,5,5v12a5,5,0,0,1,-5,5h-71a5,5,0,0,1,-5,-5v-12a5,5,0,0,1,5,-5z"></path><g id="node_text14" fill="black"><text id="kity_text_163" text-rendering="inherit" font-size="12" dy=".8em" y="347.5" x="352.5">font-family</text></g></g><g id="minder_node16"><g id="node_expander14" display="none" style="cursor: pointer;"><path id="kity_path_340" fill="white" stroke="gray" d="M358.5,405.5A6,6,0,1,1,346.5,405.5A6,6,0,1,1,358.5,405.5"></path><path id="kity_path_341" fill="none" stroke="gray"></path></g><path id="node_outline15" fill="none" stroke="none" d="M347.5,394.5h136a5,5,0,0,1,5,5v12a5,5,0,0,1,-5,5h-136a5,5,0,0,1,-5,-5v-12a5,5,0,0,1,5,-5z"></path><g id="node_text15" fill="black"><text id="kity_text_165" text-rendering="inherit" font-size="12" dy=".8em" y="399.5" x="352.5">font-size，font-weight</text></g></g><g id="minder_node17"><g id="node_expander15" display="none" style="cursor: pointer;"><path id="kity_path_343" fill="white" stroke="gray" d="M358.5,457.5A6,6,0,1,1,346.5,457.5A6,6,0,1,1,358.5,457.5"></path><path id="kity_path_344" fill="none" stroke="gray"></path></g><path id="node_outline16" fill="none" stroke="none" d="M347.5,446.5h168a5,5,0,0,1,5,5v12a5,5,0,0,1,-5,5h-168a5,5,0,0,1,-5,-5v-12a5,5,0,0,1,5,-5z"></path><g id="node_text16" fill="black"><text id="kity_text_167" text-rendering="inherit" font-size="12" dy=".8em" y="451.5" x="352.5">font-style， text-decoration</text></g></g><g id="minder_node18"><g id="node_expander16" display="none" style="cursor: pointer;"><path id="kity_path_346" fill="white" stroke="gray" d="M358.5,509.5A6,6,0,1,1,346.5,509.5A6,6,0,1,1,358.5,509.5"></path><path id="kity_path_347" fill="none" stroke="gray"></path></g><path id="node_outline17" fill="none" stroke="none" d="M347.5,498.5h183a5,5,0,0,1,5,5v12a5,5,0,0,1,-5,5h-183a5,5,0,0,1,-5,-5v-12a5,5,0,0,1,5,-5z"></path><g id="node_text17" fill="black"><text id="kity_text_169" text-rendering="inherit" font-size="12" dy=".8em" y="503.5" x="352.5">word-spacing，letter-spacing</text></g></g><g id="minder_node19"><g id="node_expander22" style="cursor: pointer;"><path id="kity_path_364" fill="white" stroke="gray" d="M219.5,623.5A6,6,0,1,1,207.5,623.5A6,6,0,1,1,219.5,623.5"></path><path id="kity_path_365" fill="none" stroke="gray" d="M209,623.5L218,623.5"></path></g><path id="node_outline23" fill="rgb(238, 243, 246)" stroke="rgb(115, 161, 191)" d="M223.5,610.5h90a3,3,0,0,1,3,3v20a3,3,0,0,1,-3,3h-90a3,3,0,0,1,-3,-3v-20a3,3,0,0,1,3,-3z" stroke-width="1"></path><g id="node_text23" fill="black"><text id="kity_text_181" text-rendering="inherit" font-size="14" dy=".8em" y="616.5" x="240.5">文本对齐</text></g></g><g id="minder_node20"><g id="node_expander21" style="cursor: pointer;"><path id="kity_path_361" fill="white" stroke="gray" d="M356.5,623.5A6,6,0,1,1,344.5,623.5A6,6,0,1,1,356.5,623.5"></path><path id="kity_path_362" fill="none" stroke="gray" d="M346,623.5L355,623.5"></path></g><path id="node_outline22" fill="none" stroke="none" d="M361.5,612.5h78a5,5,0,0,1,5,5v12a5,5,0,0,1,-5,5h-78a5,5,0,0,1,-5,-5v-12a5,5,0,0,1,5,-5z"></path><g id="node_text22" fill="black"><text id="kity_text_179" text-rendering="inherit" font-size="12" dy=".8em" y="617.5" x="366.5">text-anchor</text></g></g><g id="minder_node21"><g id="node_expander18" display="none" style="cursor: pointer;"><path id="kity_path_352" fill="white" stroke="gray" d="M500.5,571.5A6,6,0,1,1,488.5,571.5A6,6,0,1,1,500.5,571.5"></path><path id="kity_path_353" fill="none" stroke="gray"></path></g><path id="node_outline19" fill="none" stroke="none" d="M489.5,560.5h35a5,5,0,0,1,5,5v12a5,5,0,0,1,-5,5h-35a5,5,0,0,1,-5,-5v-12a5,5,0,0,1,5,-5z"></path><g id="node_text19" fill="black"><text id="kity_text_173" text-rendering="inherit" font-size="12" dy=".8em" y="565.5" x="494.5">start</text></g></g><g id="minder_node22"><g id="node_expander19" display="none" style="cursor: pointer;"><path id="kity_path_355" fill="white" stroke="gray" d="M500.5,623.5A6,6,0,1,1,488.5,623.5A6,6,0,1,1,500.5,623.5"></path><path id="kity_path_356" fill="none" stroke="gray"></path></g><path id="node_outline20" fill="none" stroke="none" d="M489.5,612.5h50a5,5,0,0,1,5,5v12a5,5,0,0,1,-5,5h-50a5,5,0,0,1,-5,-5v-12a5,5,0,0,1,5,-5z"></path><g id="node_text20" fill="black"><text id="kity_text_175" text-rendering="inherit" font-size="12" dy=".8em" y="617.5" x="494.5">middle</text></g></g><g id="minder_node23"><g id="node_expander20" display="none" style="cursor: pointer;"><path id="kity_path_358" fill="white" stroke="gray" d="M500.5,675.5A6,6,0,1,1,488.5,675.5A6,6,0,1,1,500.5,675.5"></path><path id="kity_path_359" fill="none" stroke="gray"></path></g><path id="node_outline21" fill="none" stroke="none" d="M489.5,664.5h33a5,5,0,0,1,5,5v12a5,5,0,0,1,-5,5h-33a5,5,0,0,1,-5,-5v-12a5,5,0,0,1,5,-5z"></path><g id="node_text21" fill="black"><text id="kity_text_177" text-rendering="inherit" font-size="12" dy=".8em" y="669.5" x="494.5">end</text></g></g><g id="minder_node24"><g id="node_expander30" style="cursor: pointer;"><path id="kity_path_388" fill="white" stroke="gray" d="M219.5,802.5A6,6,0,1,1,207.5,802.5A6,6,0,1,1,219.5,802.5"></path><path id="kity_path_389" fill="none" stroke="gray" d="M209,802.5L218,802.5"></path></g><path id="node_outline31" fill="rgb(238, 243, 246)" stroke="rgb(115, 161, 191)" d="M223.5,789.5h89a3,3,0,0,1,3,3v20a3,3,0,0,1,-3,3h-89a3,3,0,0,1,-3,-3v-20a3,3,0,0,1,3,-3z" stroke-width="1"></path><g id="node_text31" fill="black"><text id="kity_text_197" text-rendering="inherit" font-size="14" dy=".8em" y="795.5" x="240.5">&lt;tspan&gt;</text></g></g><g id="minder_node25"><g id="node_expander23" display="none" style="cursor: pointer;"><path id="kity_path_367" fill="white" stroke="gray" d="M371.5,737.5A6,6,0,1,1,359.5,737.5A6,6,0,1,1,371.5,737.5"></path><path id="kity_path_368" fill="none" stroke="gray"></path></g><path id="node_outline24" fill="none" stroke="none" d="M360.5,726.5h202a5,5,0,0,1,5,5v12a5,5,0,0,1,-5,5h-202a5,5,0,0,1,-5,-5v-12a5,5,0,0,1,5,-5z"></path><g id="node_text24" fill="black"><text id="kity_text_183" text-rendering="inherit" font-size="12" dy=".8em" y="731.5" x="365.5">嵌入&lt;text&gt;中，改变其中文本的样式</text></g></g><g id="minder_node26"><g id="node_expander25" style="cursor: pointer;"><path id="kity_path_373" fill="white" stroke="gray" d="M355.5,789.5A6,6,0,1,1,343.5,789.5A6,6,0,1,1,355.5,789.5"></path><path id="kity_path_374" fill="none" stroke="gray" d="M345,789.5L354,789.5"></path></g><path id="node_outline26" fill="none" stroke="none" d="M360.5,778.5h82a5,5,0,0,1,5,5v12a5,5,0,0,1,-5,5h-82a5,5,0,0,1,-5,-5v-12a5,5,0,0,1,5,-5z"></path><g id="node_text26" fill="black"><text id="kity_text_187" text-rendering="inherit" font-size="12" dy=".8em" y="783.5" x="365.5">改变字母位置</text></g></g><g id="minder_node27"><g id="node_expander24" display="none" style="cursor: pointer;"><path id="kity_path_370" fill="white" stroke="gray" d="M503.5,789.5A6,6,0,1,1,491.5,789.5A6,6,0,1,1,503.5,789.5"></path><path id="kity_path_371" fill="none" stroke="gray"></path></g><path id="node_outline25" fill="none" stroke="none" d="M492.5,778.5h98a5,5,0,0,1,5,5v12a5,5,0,0,1,-5,5h-98a5,5,0,0,1,-5,-5v-12a5,5,0,0,1,5,-5z"></path><g id="node_text25" fill="black"><text id="kity_text_185" text-rendering="inherit" font-size="12" dy=".8em" y="783.5" x="497.5">dx，dy，rotate</text></g></g><g id="minder_node28"><g id="node_expander29" style="cursor: pointer;"><path id="kity_path_385" fill="white" stroke="gray" d="M355.5,867.5A6,6,0,1,1,343.5,867.5A6,6,0,1,1,355.5,867.5"></path><path id="kity_path_386" fill="none" stroke="gray" d="M345,867.5L354,867.5"></path></g><path id="node_outline30" fill="none" stroke="none" d="M360.5,856.5h46a5,5,0,0,1,5,5v12a5,5,0,0,1,-5,5h-46a5,5,0,0,1,-5,-5v-12a5,5,0,0,1,5,-5z"></path><g id="node_text30" fill="black"><text id="kity_text_195" text-rendering="inherit" font-size="12" dy=".8em" y="861.5" x="365.5">上下标</text></g></g><g id="minder_node29"><g id="node_expander28" style="cursor: pointer;"><path id="kity_path_382" fill="white" stroke="gray" d="M451.5,867.5A6,6,0,1,1,439.5,867.5A6,6,0,1,1,451.5,867.5"></path><path id="kity_path_383" fill="none" stroke="gray" d="M441,867.5L450,867.5"></path></g><path id="node_outline29" fill="none" stroke="none" d="M456.5,856.5h85a5,5,0,0,1,5,5v12a5,5,0,0,1,-5,5h-85a5,5,0,0,1,-5,-5v-12a5,5,0,0,1,5,-5z"></path><g id="node_text29" fill="black"><text id="kity_text_193" text-rendering="inherit" font-size="12" dy=".8em" y="861.5" x="461.5">baseline-shift</text></g></g><g id="minder_node30"><g id="node_expander26" display="none" style="cursor: pointer;"><path id="kity_path_376" fill="white" stroke="gray" d="M602.5,841.5A6,6,0,1,1,590.5,841.5A6,6,0,1,1,602.5,841.5"></path><path id="kity_path_377" fill="none" stroke="gray"></path></g><path id="node_outline27" fill="none" stroke="none" d="M591.5,830.5h74a5,5,0,0,1,5,5v12a5,5,0,0,1,-5,5h-74a5,5,0,0,1,-5,-5v-12a5,5,0,0,1,5,-5z"></path><g id="node_text27" fill="black"><text id="kity_text_189" text-rendering="inherit" font-size="12" dy=".8em" y="835.5" x="596.5">super(上标)</text></g></g><g id="minder_node31"><g id="node_expander27" display="none" style="cursor: pointer;"><path id="kity_path_379" fill="white" stroke="gray" d="M602.5,893.5A6,6,0,1,1,590.5,893.5A6,6,0,1,1,602.5,893.5"></path><path id="kity_path_380" fill="none" stroke="gray"></path></g><path id="node_outline28" fill="none" stroke="none" d="M591.5,882.5h63a5,5,0,0,1,5,5v12a5,5,0,0,1,-5,5h-63a5,5,0,0,1,-5,-5v-12a5,5,0,0,1,5,-5z"></path><g id="node_text28" fill="black"><text id="kity_text_191" text-rendering="inherit" font-size="12" dy=".8em" y="887.5" x="596.5">sub(下标)</text></g></g><g id="minder_node32"><g id="node_expander38" style="cursor: pointer;"><path id="kity_path_412" fill="white" stroke="gray" d="M219.5,994.5A6,6,0,1,1,207.5,994.5A6,6,0,1,1,219.5,994.5"></path><path id="kity_path_413" fill="none" stroke="gray" d="M209,994.5L218,994.5"></path></g><path id="node_outline39" fill="rgb(238, 243, 246)" stroke="rgb(115, 161, 191)" d="M223.5,981.5h90a3,3,0,0,1,3,3v20a3,3,0,0,1,-3,3h-90a3,3,0,0,1,-3,-3v-20a3,3,0,0,1,3,-3z" stroke-width="1"></path><g id="node_text39" fill="black"><text id="kity_text_213" text-rendering="inherit" font-size="14" dy=".8em" y="987.5" x="240.5">文本长度</text></g></g><g id="minder_node33"><g id="node_expander32" style="cursor: pointer;"><path id="kity_path_394" fill="white" stroke="gray" d="M356.5,955.5A6,6,0,1,1,344.5,955.5A6,6,0,1,1,356.5,955.5"></path><path id="kity_path_395" fill="none" stroke="gray" d="M346,955.5L355,955.5"></path></g><path id="node_outline33" fill="none" stroke="none" d="M361.5,944.5h72a5,5,0,0,1,5,5v12a5,5,0,0,1,-5,5h-72a5,5,0,0,1,-5,-5v-12a5,5,0,0,1,5,-5z"></path><g id="node_text33" fill="black"><text id="kity_text_201" text-rendering="inherit" font-size="12" dy=".8em" y="949.5" x="366.5">textLength</text></g></g><g id="minder_node34"><g id="node_expander31" display="none" style="cursor: pointer;"><path id="kity_path_391" fill="white" stroke="gray" d="M494.5,955.5A6,6,0,1,1,482.5,955.5A6,6,0,1,1,494.5,955.5"></path><path id="kity_path_392" fill="none" stroke="gray"></path></g><path id="node_outline32" fill="none" stroke="none" d="M483.5,944.5h94a5,5,0,0,1,5,5v12a5,5,0,0,1,-5,5h-94a5,5,0,0,1,-5,-5v-12a5,5,0,0,1,5,-5z"></path><g id="node_text32" fill="black"><text id="kity_text_199" text-rendering="inherit" font-size="12" dy=".8em" y="949.5" x="488.5">设置文本的长度</text></g></g><g id="minder_node35"><g id="node_expander37" style="cursor: pointer;"><path id="kity_path_409" fill="white" stroke="gray" d="M356.5,1033.5A6,6,0,1,1,344.5,1033.5A6,6,0,1,1,356.5,1033.5"></path><path id="kity_path_410" fill="none" stroke="gray" d="M346,1033.5L355,1033.5"></path></g><path id="node_outline38" fill="none" stroke="none" d="M361.5,1022.5h83a5,5,0,0,1,5,5v12a5,5,0,0,1,-5,5h-83a5,5,0,0,1,-5,-5v-12a5,5,0,0,1,5,-5z"></path><g id="node_text38" fill="black"><text id="kity_text_211" text-rendering="inherit" font-size="12" dy=".8em" y="1027.5" x="366.5">lengthAdjust</text></g></g><g id="minder_node36"><g id="node_expander34" style="cursor: pointer;"><path id="kity_path_400" fill="white" stroke="gray" d="M489.5,1007.5A6,6,0,1,1,477.5,1007.5A6,6,0,1,1,489.5,1007.5"></path><path id="kity_path_401" fill="none" stroke="gray" d="M479,1007.5L488,1007.5"></path></g><path id="node_outline35" fill="none" stroke="none" d="M494.5,996.5h89a5,5,0,0,1,5,5v12a5,5,0,0,1,-5,5h-89a5,5,0,0,1,-5,-5v-12a5,5,0,0,1,5,-5z"></path><g id="node_text35" fill="black"><text id="kity_text_205" text-rendering="inherit" font-size="12" dy=".8em" y="1001.5" x="499.5">spacing(默认)</text></g></g><g id="minder_node37"><g id="node_expander33" display="none" style="cursor: pointer;"><path id="kity_path_397" fill="white" stroke="gray" d="M644.5,1007.5A6,6,0,1,1,632.5,1007.5A6,6,0,1,1,644.5,1007.5"></path><path id="kity_path_398" fill="none" stroke="gray"></path></g><path id="node_outline34" fill="none" stroke="none" d="M633.5,996.5h94a5,5,0,0,1,5,5v12a5,5,0,0,1,-5,5h-94a5,5,0,0,1,-5,-5v-12a5,5,0,0,1,5,-5z"></path><g id="node_text34" fill="black"><text id="kity_text_203" text-rendering="inherit" font-size="12" dy=".8em" y="1001.5" x="638.5">仅调整字符间距</text></g></g><g id="minder_node38"><g id="node_expander36" style="cursor: pointer;"><path id="kity_path_406" fill="white" stroke="gray" d="M489.5,1059.5A6,6,0,1,1,477.5,1059.5A6,6,0,1,1,489.5,1059.5"></path><path id="kity_path_407" fill="none" stroke="gray" d="M479,1059.5L488,1059.5"></path></g><path id="node_outline37" fill="none" stroke="none" d="M494.5,1048.5h120a5,5,0,0,1,5,5v12a5,5,0,0,1,-5,5h-120a5,5,0,0,1,-5,-5v-12a5,5,0,0,1,5,-5z"></path><g id="node_text37" fill="black"><text id="kity_text_209" text-rendering="inherit" font-size="12" dy=".8em" y="1053.5" x="499.5">spacingAndGlyphs</text></g></g><g id="minder_node39"><g id="node_expander35" display="none" style="cursor: pointer;"><path id="kity_path_403" fill="white" stroke="gray" d="M675.5,1059.5A6,6,0,1,1,663.5,1059.5A6,6,0,1,1,675.5,1059.5"></path><path id="kity_path_404" fill="none" stroke="gray"></path></g><path id="node_outline36" fill="none" stroke="none" d="M664.5,1048.5h166a5,5,0,0,1,5,5v12a5,5,0,0,1,-5,5h-166a5,5,0,0,1,-5,-5v-12a5,5,0,0,1,5,-5z"></path><g id="node_text36" fill="black"><text id="kity_text_207" text-rendering="inherit" font-size="12" dy=".8em" y="1053.5" x="669.5">同时调整字符间距和字符大小</text></g></g><g id="minder_node40"><g id="node_expander45" style="cursor: pointer;"><path id="kity_path_433" fill="white" stroke="gray" d="M219.5,1173.5A6,6,0,1,1,207.5,1173.5A6,6,0,1,1,219.5,1173.5"></path><path id="kity_path_434" fill="none" stroke="gray" d="M209,1173.5L218,1173.5"></path></g><path id="node_outline46" fill="rgb(238, 243, 246)" stroke="rgb(115, 161, 191)" d="M223.5,1160.5h90a3,3,0,0,1,3,3v20a3,3,0,0,1,-3,3h-90a3,3,0,0,1,-3,-3v-20a3,3,0,0,1,3,-3z" stroke-width="1"></path><g id="node_text46" fill="black"><text id="kity_text_227" text-rendering="inherit" font-size="14" dy=".8em" y="1166.5" x="240.5">纵向文本</text></g></g><g id="minder_node41"><g id="node_expander40" style="cursor: pointer;"><path id="kity_path_418" fill="white" stroke="gray" d="M356.5,1121.5A6,6,0,1,1,344.5,1121.5A6,6,0,1,1,356.5,1121.5"></path><path id="kity_path_419" fill="none" stroke="gray" d="M346,1121.5L355,1121.5"></path></g><path id="node_outline41" fill="none" stroke="none" d="M361.5,1110.5h169a5,5,0,0,1,5,5v12a5,5,0,0,1,-5,5h-169a5,5,0,0,1,-5,-5v-12a5,5,0,0,1,5,-5z"></path><g id="node_text41" fill="black"><text id="kity_text_217" text-rendering="inherit" font-size="12" dy=".8em" y="1115.5" x="366.5">设置tranform属性，旋转90度</text></g></g><g id="minder_node42"><g id="node_expander39" display="none" style="cursor: pointer;"><path id="kity_path_415" fill="white" stroke="gray" d="M591.5,1121.5A6,6,0,1,1,579.5,1121.5A6,6,0,1,1,591.5,1121.5"></path><path id="kity_path_416" fill="none" stroke="gray"></path></g><path id="node_outline40" fill="none" stroke="none" d="M580.5,1110.5h170a5,5,0,0,1,5,5v12a5,5,0,0,1,-5,5h-170a5,5,0,0,1,-5,-5v-12a5,5,0,0,1,5,-5z"></path><g id="node_text40" fill="black"><text id="kity_text_215" text-rendering="inherit" font-size="12" dy=".8em" y="1115.5" x="585.5">transform="rotate(90,10,20)"</text></g></g><g id="minder_node43"><g id="node_expander42" style="cursor: pointer;"><path id="kity_path_424" fill="white" stroke="gray" d="M356.5,1173.5A6,6,0,1,1,344.5,1173.5A6,6,0,1,1,356.5,1173.5"></path><path id="kity_path_425" fill="none" stroke="gray" d="M346,1173.5L355,1173.5"></path></g><path id="node_outline43" fill="none" stroke="none" d="M361.5,1162.5h267a5,5,0,0,1,5,5v12a5,5,0,0,1,-5,5h-267a5,5,0,0,1,-5,-5v-12a5,5,0,0,1,5,-5z"></path><g id="node_text43" fill="black"><text id="kity_text_221" text-rendering="inherit" font-size="12" dy=".8em" y="1167.5" x="366.5">设置writting-mode，纵向排列(top-to-bottom)</text></g></g><g id="minder_node44"><g id="node_expander41" display="none" style="cursor: pointer;"><path id="kity_path_421" fill="white" stroke="gray" d="M689.5,1173.5A6,6,0,1,1,677.5,1173.5A6,6,0,1,1,689.5,1173.5"></path><path id="kity_path_422" fill="none" stroke="gray"></path></g><path id="node_outline42" fill="none" stroke="none" d="M678.5,1162.5h153a5,5,0,0,1,5,5v12a5,5,0,0,1,-5,5h-153a5,5,0,0,1,-5,-5v-12a5,5,0,0,1,5,-5z"></path><g id="node_text42" fill="black"><text id="kity_text_219" text-rendering="inherit" font-size="12" dy=".8em" y="1167.5" x="683.5">style="writting-mode: tb;"</text></g></g><g id="minder_node45"><g id="node_expander44" style="cursor: pointer;"><path id="kity_path_430" fill="white" stroke="gray" d="M356.5,1225.5A6,6,0,1,1,344.5,1225.5A6,6,0,1,1,356.5,1225.5"></path><path id="kity_path_431" fill="none" stroke="gray" d="M346,1225.5L355,1225.5"></path></g><path id="node_outline45" fill="none" stroke="none" d="M361.5,1214.5h142a5,5,0,0,1,5,5v12a5,5,0,0,1,-5,5h-142a5,5,0,0,1,-5,-5v-12a5,5,0,0,1,5,-5z"></path><g id="node_text45" fill="black"><text id="kity_text_225" text-rendering="inherit" font-size="12" dy=".8em" y="1219.5" x="366.5">整体排列纵向，字符横向</text></g></g><g id="minder_node46"><g id="node_expander43" display="none" style="cursor: pointer;"><path id="kity_path_427" fill="white" stroke="gray" d="M564.5,1225.5A6,6,0,1,1,552.5,1225.5A6,6,0,1,1,564.5,1225.5"></path><path id="kity_path_428" fill="none" stroke="gray"></path></g><path id="node_outline44" fill="none" stroke="none" d="M553.5,1214.5h315a5,5,0,0,1,5,5v12a5,5,0,0,1,-5,5h-315a5,5,0,0,1,-5,-5v-12a5,5,0,0,1,5,-5z"></path><g id="node_text44" fill="black"><text id="kity_text_223" text-rendering="inherit" font-size="12" dy=".8em" y="1219.5" x="558.5">style="writting-mode: tb;glyph-orientation-vertical: 0;"</text></g></g><g id="minder_node47"><g id="node_expander49" style="cursor: pointer;"><path id="kity_path_445" fill="white" stroke="gray" d="M219.5,1339.5A6,6,0,1,1,207.5,1339.5A6,6,0,1,1,219.5,1339.5"></path><path id="kity_path_446" fill="none" stroke="gray" d="M209,1339.5L218,1339.5"></path></g><path id="node_outline50" fill="rgb(238, 243, 246)" stroke="rgb(115, 161, 191)" d="M223.5,1326.5h76a3,3,0,0,1,3,3v20a3,3,0,0,1,-3,3h-76a3,3,0,0,1,-3,-3v-20a3,3,0,0,1,3,-3z" stroke-width="1"></path><g id="node_text50" fill="black"><text id="kity_text_235" text-rendering="inherit" font-size="14" dy=".8em" y="1332.5" x="240.5">国际化</text></g></g><g id="minder_node48"><g id="node_expander46" display="none" style="cursor: pointer;"><path id="kity_path_436" fill="white" stroke="gray" d="M358.5,1287.5A6,6,0,1,1,346.5,1287.5A6,6,0,1,1,358.5,1287.5"></path><path id="kity_path_437" fill="none" stroke="gray"></path></g><path id="node_outline47" fill="none" stroke="none" d="M347.5,1276.5h215a5,5,0,0,1,5,5v12a5,5,0,0,1,-5,5h-215a5,5,0,0,1,-5,-5v-12a5,5,0,0,1,5,-5z"></path><g id="node_text47" fill="black"><text id="kity_text_229" text-rendering="inherit" font-size="12" dy=".8em" y="1281.5" x="352.5">检测Unicode标准，正确显示书写方向</text></g></g><g id="minder_node49"><g id="node_expander47" display="none" style="cursor: pointer;"><path id="kity_path_439" fill="white" stroke="gray" d="M358.5,1339.5A6,6,0,1,1,346.5,1339.5A6,6,0,1,1,358.5,1339.5"></path><path id="kity_path_440" fill="none" stroke="gray"></path></g><path id="node_outline48" fill="none" stroke="none" d="M347.5,1328.5h215a5,5,0,0,1,5,5v12a5,5,0,0,1,-5,5h-215a5,5,0,0,1,-5,-5v-12a5,5,0,0,1,5,-5z"></path><g id="node_text48" fill="black"><text id="kity_text_231" text-rendering="inherit" font-size="12" dy=".8em" y="1333.5" x="352.5">&lt;switch&gt;元素+systemLanguage属性</text></g></g><g id="minder_node50"><g id="node_expander48" display="none" style="cursor: pointer;"><path id="kity_path_442" fill="white" stroke="gray" d="M358.5,1391.5A6,6,0,1,1,346.5,1391.5A6,6,0,1,1,358.5,1391.5"></path><path id="kity_path_443" fill="none" stroke="gray"></path></g><path id="node_outline49" fill="none" stroke="none" d="M347.5,1380.5h94a5,5,0,0,1,5,5v12a5,5,0,0,1,-5,5h-94a5,5,0,0,1,-5,-5v-12a5,5,0,0,1,5,-5z"></path><g id="node_text49" fill="black"><text id="kity_text_233" text-rendering="inherit" font-size="12" dy=".8em" y="1385.5" x="352.5">使用自定义字体</text></g></g><g id="minder_node51"><g id="node_expander54" style="cursor: pointer;"><path id="kity_path_460" fill="white" stroke="gray" d="M219.5,1505.5A6,6,0,1,1,207.5,1505.5A6,6,0,1,1,219.5,1505.5"></path><path id="kity_path_461" fill="none" stroke="gray" d="M209,1505.5L218,1505.5"></path></g><path id="node_outline55" fill="rgb(238, 243, 246)" stroke="rgb(115, 161, 191)" d="M223.5,1492.5h90a3,3,0,0,1,3,3v20a3,3,0,0,1,-3,3h-90a3,3,0,0,1,-3,-3v-20a3,3,0,0,1,3,-3z" stroke-width="1"></path><g id="node_text55" fill="black"><text id="kity_text_245" text-rendering="inherit" font-size="14" dy=".8em" y="1498.5" x="240.5">文本路径</text></g></g><g id="minder_node52"><g id="node_expander53" style="cursor: pointer;"><path id="kity_path_457" fill="white" stroke="gray" d="M356.5,1505.5A6,6,0,1,1,344.5,1505.5A6,6,0,1,1,356.5,1505.5"></path><path id="kity_path_458" fill="none" stroke="gray" d="M346,1505.5L355,1505.5"></path></g><path id="node_outline54" fill="none" stroke="none" d="M361.5,1494.5h73a5,5,0,0,1,5,5v12a5,5,0,0,1,-5,5h-73a5,5,0,0,1,-5,-5v-12a5,5,0,0,1,5,-5z"></path><g id="node_text54" fill="black"><text id="kity_text_243" text-rendering="inherit" font-size="12" dy=".8em" y="1499.5" x="366.5">&lt;textPath&gt;</text></g></g><g id="minder_node53"><g id="node_expander50" display="none" style="cursor: pointer;"><path id="kity_path_448" fill="white" stroke="gray" d="M495.5,1453.5A6,6,0,1,1,483.5,1453.5A6,6,0,1,1,495.5,1453.5"></path><path id="kity_path_449" fill="none" stroke="gray"></path></g><path id="node_outline51" fill="none" stroke="none" d="M484.5,1442.5h210a5,5,0,0,1,5,5v12a5,5,0,0,1,-5,5h-210a5,5,0,0,1,-5,-5v-12a5,5,0,0,1,5,-5z"></path><g id="node_text51" fill="black"><text id="kity_text_237" text-rendering="inherit" font-size="12" dy=".8em" y="1447.5" x="489.5">xlink:href中引用一个定义好的&lt;path&gt;</text></g></g><g id="minder_node54"><g id="node_expander51" display="none" style="cursor: pointer;"><path id="kity_path_451" fill="white" stroke="gray" d="M495.5,1505.5A6,6,0,1,1,483.5,1505.5A6,6,0,1,1,495.5,1505.5"></path><path id="kity_path_452" fill="none" stroke="gray"></path></g><path id="node_outline52" fill="none" stroke="none" d="M484.5,1494.5h169a5,5,0,0,1,5,5v12a5,5,0,0,1,-5,5h-169a5,5,0,0,1,-5,-5v-12a5,5,0,0,1,5,-5z"></path><g id="node_text52" fill="black"><text id="kity_text_239" text-rendering="inherit" font-size="12" dy=".8em" y="1499.5" x="489.5">将文本放入&lt;textPath&gt;元素中</text></g></g><g id="minder_node55"><g id="node_expander52" display="none" style="cursor: pointer;"><path id="kity_path_454" fill="white" stroke="gray" d="M495.5,1557.5A6,6,0,1,1,483.5,1557.5A6,6,0,1,1,495.5,1557.5"></path><path id="kity_path_455" fill="none" stroke="gray"></path></g><path id="node_outline53" fill="none" stroke="none" d="M484.5,1546.5h153a5,5,0,0,1,5,5v12a5,5,0,0,1,-5,5h-153a5,5,0,0,1,-5,-5v-12a5,5,0,0,1,5,-5z"></path><g id="node_text53" fill="black"><text id="kity_text_241" text-rendering="inherit" font-size="12" dy=".8em" y="1551.5" x="489.5">设置起始位置：startOffset</text></g></g></g></g></svg>