<svg id="kity_svg_6" xmlns="http://www.w3.org/2000/svg" xmlns:xlink="http://www.w3.org/1999/xlink" version="1.1" width="1139" height="1796" style="background: rgb(251, 251, 251); visibility: visible;" viewBox="0 0 1139 1796"><defs id="kity_defs_7"><linearGradient id="kity_linearGradient_17" x1="0" y1="0" x2="0" y2="1"><stop id="kity_stop_18" offset="0" stop-color="rgb(255, 255, 255)"></stop><stop id="kity_stop_19" offset="1" stop-color="rgb(204, 204, 204)"></stop></linearGradient><marker id="kity_marker_2" orient="auto" refX="6" refY="0" viewBox="-7 -7 14 14" markerWidth="7" markerHeight="7" markerUnits="userSpaceOnUse"><path id="kity_path_3" fill="rgb(115, 161, 191)" stroke="none" d="M6,0A6,6,0,1,1,-6,0A6,6,0,1,1,6,0"></path></marker></defs><g id="kity_g_8"><g id="minder1" text-rendering="optimize-speed"><g id="minder_connect_group1"><path id="kity_path_31" fill="none" stroke="rgb(115, 161, 191)" stroke-width="1" d="M60.5,885.5A158,828,0,0,1,218.5,57.5"></path><path id="kity_path_33" fill="none" stroke="rgb(115, 161, 191)" stroke-width="1" d="M309.5,57.5C329.5,57.5,329.5,31.5,349.5,31.5"></path><path id="kity_path_35" fill="none" stroke="rgb(115, 161, 191)" stroke-width="1" d="M309.5,57.5C329.5,57.5,329.5,83.5,349.5,83.5"></path><path id="kity_path_37" fill="none" stroke="rgb(115, 161, 191)" stroke-width="1" d="M60.5,885.5A158,688,0,0,1,218.5,197.5"></path><path id="kity_path_39" fill="none" stroke="rgb(115, 161, 191)" stroke-width="1" d="M288.5,197.5C308.5,197.5,308.5,145.5,328.5,145.5"></path><path id="kity_path_41" fill="none" stroke="rgb(115, 161, 191)" stroke-width="1" d="M393.5,145.5C413.5,145.5,413.5,145.5,433.5,145.5"></path><path id="kity_path_43" fill="none" stroke="rgb(115, 161, 191)" stroke-width="1" d="M288.5,197.5C308.5,197.5,308.5,197.5,328.5,197.5"></path><path id="kity_path_45" fill="none" stroke="rgb(115, 161, 191)" stroke-width="1" d="M380.5,197.5C400.5,197.5,400.5,197.5,420.5,197.5"></path><path id="kity_path_47" fill="none" stroke="rgb(115, 161, 191)" stroke-width="1" d="M288.5,197.5C308.5,197.5,308.5,249.5,328.5,249.5"></path><path id="kity_path_49" fill="none" stroke="rgb(115, 161, 191)" stroke-width="1" d="M406.5,249.5C426.5,249.5,426.5,249.5,446.5,249.5"></path><path id="kity_path_51" fill="none" stroke="rgb(115, 161, 191)" stroke-width="1" d="M60.5,885.5A158,496,0,0,1,218.5,389.5"></path><path id="kity_path_53" fill="none" stroke="rgb(115, 161, 191)" stroke-width="1" d="M316.5,389.5C336.5,389.5,336.5,311.5,356.5,311.5"></path><path id="kity_path_55" fill="none" stroke="rgb(115, 161, 191)" stroke-width="1" d="M316.5,389.5C336.5,389.5,336.5,363.5,356.5,363.5"></path><path id="kity_path_57" fill="none" stroke="rgb(115, 161, 191)" stroke-width="1" d="M316.5,389.5C336.5,389.5,336.5,415.5,356.5,415.5"></path><path id="kity_path_59" fill="none" stroke="rgb(115, 161, 191)" stroke-width="1" d="M316.5,389.5C336.5,389.5,336.5,467.5,356.5,467.5"></path><path id="kity_path_61" fill="none" stroke="rgb(115, 161, 191)" stroke-width="1" d="M60.5,885.5A158,278,0,0,1,218.5,607.5"></path><path id="kity_path_63" fill="none" stroke="rgb(115, 161, 191)" stroke-width="1" d="M316.5,607.5C336.5,607.5,336.5,555.5,356.5,555.5"></path><path id="kity_path_65" fill="none" stroke="rgb(115, 161, 191)" stroke-width="1" d="M408.5,555.5C428.5,555.5,428.5,529.5,448.5,529.5"></path><path id="kity_path_67" fill="none" stroke="rgb(115, 161, 191)" stroke-width="1" d="M570.5,529.5C590.5,529.5,590.5,529.5,610.5,529.5"></path><path id="kity_path_69" fill="none" stroke="rgb(115, 161, 191)" stroke-width="1" d="M408.5,555.5C428.5,555.5,428.5,581.5,448.5,581.5"></path><path id="kity_path_71" fill="none" stroke="rgb(115, 161, 191)" stroke-width="1" d="M570.5,581.5C590.5,581.5,590.5,581.5,610.5,581.5"></path><path id="kity_path_73" fill="none" stroke="rgb(115, 161, 191)" stroke-width="1" d="M316.5,607.5C336.5,607.5,336.5,659.5,356.5,659.5"></path><path id="kity_path_75" fill="none" stroke="rgb(115, 161, 191)" stroke-width="1" d="M460.5,659.5C480.5,659.5,480.5,633.5,500.5,633.5"></path><path id="kity_path_77" fill="none" stroke="rgb(115, 161, 191)" stroke-width="1" d="M460.5,659.5C480.5,659.5,480.5,685.5,500.5,685.5"></path><path id="kity_path_79" fill="none" stroke="rgb(115, 161, 191)" stroke-width="1" d="M60.5,885.5A158,18,0,0,0,218.5,903.5"></path><path id="kity_path_81" fill="none" stroke="rgb(115, 161, 191)" stroke-width="1" d="M302.5,903.5C322.5,903.5,322.5,903.5,342.5,903.5"></path><path id="kity_path_83" fill="none" stroke="rgb(115, 161, 191)" stroke-width="1" d="M371.5,903.5C391.5,903.5,391.5,903.5,411.5,903.5"></path><path id="kity_path_85" fill="none" stroke="rgb(115, 161, 191)" stroke-width="1" d="M498.5,903.5C518.5,903.5,518.5,747.5,538.5,747.5"></path><path id="kity_path_87" fill="none" stroke="rgb(115, 161, 191)" stroke-width="1" d="M498.5,903.5C518.5,903.5,518.5,799.5,538.5,799.5"></path><path id="kity_path_89" fill="none" stroke="rgb(115, 161, 191)" stroke-width="1" d="M498.5,903.5C518.5,903.5,518.5,877.5,538.5,877.5"></path><path id="kity_path_91" fill="none" stroke="rgb(115, 161, 191)" stroke-width="1" d="M638.5,877.5C658.5,877.5,658.5,851.5,678.5,851.5"></path><path id="kity_path_93" fill="none" stroke="rgb(115, 161, 191)" stroke-width="1" d="M638.5,877.5C658.5,877.5,658.5,903.5,678.5,903.5"></path><path id="kity_path_95" fill="none" stroke="rgb(115, 161, 191)" stroke-width="1" d="M498.5,903.5C518.5,903.5,518.5,981.5,538.5,981.5"></path><path id="kity_path_97" fill="none" stroke="rgb(115, 161, 191)" stroke-width="1" d="M623.5,981.5C643.5,981.5,643.5,955.5,663.5,955.5"></path><path id="kity_path_99" fill="none" stroke="rgb(115, 161, 191)" stroke-width="1" d="M623.5,981.5C643.5,981.5,643.5,1007.5,663.5,1007.5"></path><path id="kity_path_101" fill="none" stroke="rgb(115, 161, 191)" stroke-width="1" d="M498.5,903.5C518.5,903.5,518.5,1059.5,538.5,1059.5"></path><path id="kity_path_103" fill="none" stroke="rgb(115, 161, 191)" stroke-width="1" d="M60.5,885.5A158,418,0,0,0,218.5,1303.5"></path><path id="kity_path_105" fill="none" stroke="rgb(115, 161, 191)" stroke-width="1" d="M330.5,1303.5C350.5,1303.5,350.5,1199.5,370.5,1199.5"></path><path id="kity_path_107" fill="none" stroke="rgb(115, 161, 191)" stroke-width="1" d="M474.5,1199.5C494.5,1199.5,494.5,1147.5,514.5,1147.5"></path><path id="kity_path_109" fill="none" stroke="rgb(115, 161, 191)" stroke-width="1" d="M597.5,1147.5C617.5,1147.5,617.5,1121.5,637.5,1121.5"></path><path id="kity_path_111" fill="none" stroke="rgb(115, 161, 191)" stroke-width="1" d="M597.5,1147.5C617.5,1147.5,617.5,1173.5,637.5,1173.5"></path><path id="kity_path_113" fill="none" stroke="rgb(115, 161, 191)" stroke-width="1" d="M474.5,1199.5C494.5,1199.5,494.5,1251.5,514.5,1251.5"></path><path id="kity_path_115" fill="none" stroke="rgb(115, 161, 191)" stroke-width="1" d="M557.5,1251.5C577.5,1251.5,577.5,1225.5,597.5,1225.5"></path><path id="kity_path_117" fill="none" stroke="rgb(115, 161, 191)" stroke-width="1" d="M557.5,1251.5C577.5,1251.5,577.5,1277.5,597.5,1277.5"></path><path id="kity_path_119" fill="none" stroke="rgb(115, 161, 191)" stroke-width="1" d="M330.5,1303.5C350.5,1303.5,350.5,1407.5,370.5,1407.5"></path><path id="kity_path_121" fill="none" stroke="rgb(115, 161, 191)" stroke-width="1" d="M474.5,1407.5C494.5,1407.5,494.5,1355.5,514.5,1355.5"></path><path id="kity_path_123" fill="none" stroke="rgb(115, 161, 191)" stroke-width="1" d="M625.5,1355.5C645.5,1355.5,645.5,1329.5,665.5,1329.5"></path><path id="kity_path_125" fill="none" stroke="rgb(115, 161, 191)" stroke-width="1" d="M625.5,1355.5C645.5,1355.5,645.5,1381.5,665.5,1381.5"></path><path id="kity_path_127" fill="none" stroke="rgb(115, 161, 191)" stroke-width="1" d="M474.5,1407.5C494.5,1407.5,494.5,1459.5,514.5,1459.5"></path><path id="kity_path_129" fill="none" stroke="rgb(115, 161, 191)" stroke-width="1" d="M590.5,1459.5C610.5,1459.5,610.5,1433.5,630.5,1433.5"></path><path id="kity_path_131" fill="none" stroke="rgb(115, 161, 191)" stroke-width="1" d="M590.5,1459.5C610.5,1459.5,610.5,1485.5,630.5,1485.5"></path><path id="kity_path_133" fill="none" stroke="rgb(115, 161, 191)" stroke-width="1" d="M60.5,885.5A158,688,0,0,0,218.5,1573.5"></path><path id="kity_path_135" fill="none" stroke="rgb(115, 161, 191)" stroke-width="1" d="M288.5,1573.5C308.5,1573.5,308.5,1547.5,328.5,1547.5"></path><path id="kity_path_137" fill="none" stroke="rgb(115, 161, 191)" stroke-width="1" d="M446.5,1547.5C466.5,1547.5,466.5,1547.5,486.5,1547.5"></path><path id="kity_path_139" fill="none" stroke="rgb(115, 161, 191)" stroke-width="1" d="M288.5,1573.5C308.5,1573.5,308.5,1599.5,328.5,1599.5"></path><path id="kity_path_141" fill="none" stroke="rgb(115, 161, 191)" stroke-width="1" d="M453.5,1599.5C473.5,1599.5,473.5,1599.5,493.5,1599.5"></path><path id="kity_path_143" fill="none" stroke="rgb(115, 161, 191)" stroke-width="1" d="M60.5,885.5A158,828,0,0,0,218.5,1713.5"></path><path id="kity_path_145" fill="none" stroke="rgb(115, 161, 191)" stroke-width="1" d="M288.5,1713.5C308.5,1713.5,308.5,1713.5,328.5,1713.5"></path><path id="kity_path_147" fill="none" stroke="rgb(115, 161, 191)" stroke-width="1" d="M403.5,1713.5C423.5,1713.5,423.5,1661.5,443.5,1661.5"></path><path id="kity_path_149" fill="none" stroke="rgb(115, 161, 191)" stroke-width="1" d="M403.5,1713.5C423.5,1713.5,423.5,1713.5,443.5,1713.5"></path><path id="kity_path_151" fill="none" stroke="rgb(115, 161, 191)" stroke-width="1" d="M403.5,1713.5C423.5,1713.5,423.5,1765.5,443.5,1765.5"></path></g><g id="minder_node1"><path id="node_outline1" fill="rgb(115, 161, 191)" stroke="rgb(115, 161, 191)" d="M25.5,865.5h70a5,5,0,0,1,5,5v30a5,5,0,0,1,-5,5h-70a5,5,0,0,1,-5,-5v-30a5,5,0,0,1,5,-5z" stroke-width="3"></path><g id="node_text1" fill="white"><text id="kity_text_22" text-rendering="inherit" font-size="16" dy=".8em" y="877.5" x="44.5">路径</text></g></g><g id="kity_g_12"><path id="kity_path_13" fill="none" stroke="none" d="M44.5,885.5h0v0h0z"></path></g><g id="kity_g_14"><path id="kity_path_15" fill="none" stroke="none" d="M44.5,885.5h0v0h0z"></path><path id="kity_path_16" fill="none" stroke="none"></path></g><g id="minder_node2"><g id="node_expander3" style="cursor: pointer;"><path id="kity_path_342" fill="white" stroke="gray" d="M219.5,57.5A6,6,0,1,1,207.5,57.5A6,6,0,1,1,219.5,57.5"></path><path id="kity_path_343" fill="none" stroke="gray" d="M209,57.5L218,57.5"></path></g><path id="node_outline4" fill="rgb(238, 243, 246)" stroke="rgb(115, 161, 191)" d="M223.5,44.5h83a3,3,0,0,1,3,3v20a3,3,0,0,1,-3,3h-83a3,3,0,0,1,-3,-3v-20a3,3,0,0,1,3,-3z" stroke-width="1"></path><g id="node_text4" fill="black"><text id="kity_text_157" text-rendering="inherit" font-size="14" dy=".8em" y="50.5" x="240.5">&lt;path&gt;</text></g></g><g id="minder_node3"><g id="node_expander1" display="none" style="cursor: pointer;"><path id="kity_path_336" fill="white" stroke="gray" d="M365.5,31.5A6,6,0,1,1,353.5,31.5A6,6,0,1,1,365.5,31.5"></path><path id="kity_path_337" fill="none" stroke="gray"></path></g><path id="node_outline2" fill="none" stroke="none" d="M354.5,20.5h208a5,5,0,0,1,5,5v12a5,5,0,0,1,-5,5h-208a5,5,0,0,1,-5,-5v-12a5,5,0,0,1,5,-5z"></path><g id="node_text2" fill="black"><text id="kity_text_153" text-rendering="inherit" font-size="12" dy=".8em" y="25.5" x="359.5">所有基本形状都是&lt;path&gt;的简写形式</text></g></g><g id="minder_node4"><g id="node_expander2" display="none" style="cursor: pointer;"><path id="kity_path_339" fill="white" stroke="gray" d="M365.5,83.5A6,6,0,1,1,353.5,83.5A6,6,0,1,1,365.5,83.5"></path><path id="kity_path_340" fill="none" stroke="gray"></path></g><path id="node_outline3" fill="none" stroke="none" d="M354.5,72.5h198a5,5,0,0,1,5,5v12a5,5,0,0,1,-5,5h-198a5,5,0,0,1,-5,-5v-12a5,5,0,0,1,5,-5z"></path><g id="node_text3" fill="black"><text id="kity_text_155" text-rendering="inherit" font-size="12" dy=".8em" y="77.5" x="359.5">所有路径轮廓数据都保存在d属性中</text></g></g><g id="minder_node5"><g id="node_expander10" style="cursor: pointer;"><path id="kity_path_363" fill="white" stroke="gray" d="M219.5,197.5A6,6,0,1,1,207.5,197.5A6,6,0,1,1,219.5,197.5"></path><path id="kity_path_364" fill="none" stroke="gray" d="M209,197.5L218,197.5"></path></g><path id="node_outline11" fill="rgb(238, 243, 246)" stroke="rgb(115, 161, 191)" d="M223.5,184.5h62a3,3,0,0,1,3,3v20a3,3,0,0,1,-3,3h-62a3,3,0,0,1,-3,-3v-20a3,3,0,0,1,3,-3z" stroke-width="1"></path><g id="node_text11" fill="black"><text id="kity_text_171" text-rendering="inherit" font-size="14" dy=".8em" y="190.5" x="240.5">命令</text></g></g><g id="minder_node6"><g id="node_expander5" style="cursor: pointer;"><path id="kity_path_348" fill="white" stroke="gray" d="M328.5,145.5A6,6,0,1,1,316.5,145.5A6,6,0,1,1,328.5,145.5"></path><path id="kity_path_349" fill="none" stroke="gray" d="M318,145.5L327,145.5"></path></g><path id="node_outline6" fill="none" stroke="none" d="M333.5,134.5h55a5,5,0,0,1,5,5v12a5,5,0,0,1,-5,5h-55a5,5,0,0,1,-5,-5v-12a5,5,0,0,1,5,-5z"></path><g id="node_text6" fill="black"><text id="kity_text_161" text-rendering="inherit" font-size="12" dy=".8em" y="139.5" x="338.5">moveto</text></g></g><g id="minder_node7"><g id="node_expander4" display="none" style="cursor: pointer;"><path id="kity_path_345" fill="white" stroke="gray" d="M449.5,145.5A6,6,0,1,1,437.5,145.5A6,6,0,1,1,449.5,145.5"></path><path id="kity_path_346" fill="none" stroke="gray"></path></g><path id="node_outline5" fill="none" stroke="none" d="M438.5,134.5h223a5,5,0,0,1,5,5v12a5,5,0,0,1,-5,5h-223a5,5,0,0,1,-5,-5v-12a5,5,0,0,1,5,-5z"></path><g id="node_text5" fill="black"><text id="kity_text_159" text-rendering="inherit" font-size="12" dy=".8em" y="139.5" x="443.5">M - 每个路径的起始命令，移动到某个点</text></g></g><g id="minder_node8"><g id="node_expander7" style="cursor: pointer;"><path id="kity_path_354" fill="white" stroke="gray" d="M328.5,197.5A6,6,0,1,1,316.5,197.5A6,6,0,1,1,328.5,197.5"></path><path id="kity_path_355" fill="none" stroke="gray" d="M318,197.5L327,197.5"></path></g><path id="node_outline8" fill="none" stroke="none" d="M333.5,186.5h42a5,5,0,0,1,5,5v12a5,5,0,0,1,-5,5h-42a5,5,0,0,1,-5,-5v-12a5,5,0,0,1,5,-5z"></path><g id="node_text8" fill="black"><text id="kity_text_165" text-rendering="inherit" font-size="12" dy=".8em" y="191.5" x="338.5">lineto</text></g></g><g id="minder_node9"><g id="node_expander6" display="none" style="cursor: pointer;"><path id="kity_path_351" fill="white" stroke="gray" d="M436.5,197.5A6,6,0,1,1,424.5,197.5A6,6,0,1,1,436.5,197.5"></path><path id="kity_path_352" fill="none" stroke="gray"></path></g><path id="node_outline7" fill="none" stroke="none" d="M425.5,186.5h134a5,5,0,0,1,5,5v12a5,5,0,0,1,-5,5h-134a5,5,0,0,1,-5,-5v-12a5,5,0,0,1,5,-5z"></path><g id="node_text7" fill="black"><text id="kity_text_163" text-rendering="inherit" font-size="12" dy=".8em" y="191.5" x="430.5">L - 绘制一条线到某个点</text></g></g><g id="minder_node10"><g id="node_expander9" style="cursor: pointer;"><path id="kity_path_360" fill="white" stroke="gray" d="M328.5,249.5A6,6,0,1,1,316.5,249.5A6,6,0,1,1,328.5,249.5"></path><path id="kity_path_361" fill="none" stroke="gray" d="M318,249.5L327,249.5"></path></g><path id="node_outline10" fill="none" stroke="none" d="M333.5,238.5h68a5,5,0,0,1,5,5v12a5,5,0,0,1,-5,5h-68a5,5,0,0,1,-5,-5v-12a5,5,0,0,1,5,-5z"></path><g id="node_text10" fill="black"><text id="kity_text_169" text-rendering="inherit" font-size="12" dy=".8em" y="243.5" x="338.5">closepath</text></g></g><g id="minder_node11"><g id="node_expander8" display="none" style="cursor: pointer;"><path id="kity_path_357" fill="white" stroke="gray" d="M462.5,249.5A6,6,0,1,1,450.5,249.5A6,6,0,1,1,462.5,249.5"></path><path id="kity_path_358" fill="none" stroke="gray"></path></g><path id="node_outline9" fill="none" stroke="none" d="M451.5,238.5h194a5,5,0,0,1,5,5v12a5,5,0,0,1,-5,5h-194a5,5,0,0,1,-5,-5v-12a5,5,0,0,1,5,-5z"></path><g id="node_text9" fill="black"><text id="kity_text_167" text-rendering="inherit" font-size="12" dy=".8em" y="243.5" x="456.5">Z - 绘制一条线到当前路径的起始点</text></g></g><g id="minder_node12"><g id="node_expander15" style="cursor: pointer;"><path id="kity_path_378" fill="white" stroke="gray" d="M219.5,389.5A6,6,0,1,1,207.5,389.5A6,6,0,1,1,219.5,389.5"></path><path id="kity_path_379" fill="none" stroke="gray" d="M209,389.5L218,389.5"></path></g><path id="node_outline16" fill="rgb(238, 243, 246)" stroke="rgb(115, 161, 191)" d="M223.5,376.5h90a3,3,0,0,1,3,3v20a3,3,0,0,1,-3,3h-90a3,3,0,0,1,-3,-3v-20a3,3,0,0,1,3,-3z" stroke-width="1"></path><g id="node_text16" fill="black"><text id="kity_text_181" text-rendering="inherit" font-size="14" dy=".8em" y="382.5" x="240.5">相对位置</text></g></g><g id="minder_node13"><g id="node_expander11" display="none" style="cursor: pointer;"><path id="kity_path_366" fill="white" stroke="gray" d="M372.5,311.5A6,6,0,1,1,360.5,311.5A6,6,0,1,1,372.5,311.5"></path><path id="kity_path_367" fill="none" stroke="gray"></path></g><path id="node_outline12" fill="none" stroke="none" d="M361.5,300.5h332a5,5,0,0,1,5,5v12a5,5,0,0,1,-5,5h-332a5,5,0,0,1,-5,-5v-12a5,5,0,0,1,5,-5z"></path><g id="node_text12" fill="black"><text id="kity_text_173" text-rendering="inherit" font-size="12" dy=".8em" y="305.5" x="366.5">&lt;path d="M 10 10 L 20 10 L 20 30" style="stroke: black;" /&gt;</text></g></g><g id="minder_node14"><g id="node_expander12" display="none" style="cursor: pointer;"><path id="kity_path_369" fill="white" stroke="gray" d="M372.5,363.5A6,6,0,1,1,360.5,363.5A6,6,0,1,1,372.5,363.5"></path><path id="kity_path_370" fill="none" stroke="gray"></path></g><path id="node_outline13" fill="none" stroke="none" d="M361.5,352.5h312a5,5,0,0,1,5,5v12a5,5,0,0,1,-5,5h-312a5,5,0,0,1,-5,-5v-12a5,5,0,0,1,5,-5z"></path><g id="node_text13" fill="black"><text id="kity_text_175" text-rendering="inherit" font-size="12" dy=".8em" y="357.5" x="366.5">&lt;path d="M 10 10 l 10 0 l 0 20" style="stroke: black;" /&gt;</text></g></g><g id="minder_node15"><g id="node_expander13" display="none" style="cursor: pointer;"><path id="kity_path_372" fill="white" stroke="gray" d="M372.5,415.5A6,6,0,1,1,360.5,415.5A6,6,0,1,1,372.5,415.5"></path><path id="kity_path_373" fill="none" stroke="gray"></path></g><path id="node_outline14" fill="none" stroke="none" d="M361.5,404.5h466a5,5,0,0,1,5,5v12a5,5,0,0,1,-5,5h-466a5,5,0,0,1,-5,-5v-12a5,5,0,0,1,5,-5z"></path><g id="node_text14" fill="black"><text id="kity_text_177" text-rendering="inherit" font-size="12" dy=".8em" y="409.5" x="366.5">使用小写字母的命令的坐标会被解析为相对于当前的画笔位置，上面两个路径是相同的</text></g></g><g id="minder_node16"><g id="node_expander14" display="none" style="cursor: pointer;"><path id="kity_path_375" fill="white" stroke="gray" d="M372.5,467.5A6,6,0,1,1,360.5,467.5A6,6,0,1,1,372.5,467.5"></path><path id="kity_path_376" fill="none" stroke="gray"></path></g><path id="node_outline15" fill="none" stroke="none" d="M361.5,456.5h333a5,5,0,0,1,5,5v12a5,5,0,0,1,-5,5h-333a5,5,0,0,1,-5,-5v-12a5,5,0,0,1,5,-5z"></path><g id="node_text15" fill="black"><text id="kity_text_179" text-rendering="inherit" font-size="12" dy=".8em" y="461.5" x="366.5">m命令的坐标为绝对位置，因为没有参照位置来计算相对位置</text></g></g><g id="minder_node17"><g id="node_expander24" style="cursor: pointer;"><path id="kity_path_405" fill="white" stroke="gray" d="M219.5,607.5A6,6,0,1,1,207.5,607.5A6,6,0,1,1,219.5,607.5"></path><path id="kity_path_406" fill="none" stroke="gray" d="M209,607.5L218,607.5"></path></g><path id="node_outline25" fill="rgb(238, 243, 246)" stroke="rgb(115, 161, 191)" d="M223.5,594.5h90a3,3,0,0,1,3,3v20a3,3,0,0,1,-3,3h-90a3,3,0,0,1,-3,-3v-20a3,3,0,0,1,3,-3z" stroke-width="1"></path><g id="node_text25" fill="black"><text id="kity_text_199" text-rendering="inherit" font-size="14" dy=".8em" y="600.5" x="240.5">快捷方式</text></g></g><g id="minder_node18"><g id="node_expander20" style="cursor: pointer;"><path id="kity_path_393" fill="white" stroke="gray" d="M356.5,555.5A6,6,0,1,1,344.5,555.5A6,6,0,1,1,356.5,555.5"></path><path id="kity_path_394" fill="none" stroke="gray" d="M346,555.5L355,555.5"></path></g><path id="node_outline21" fill="none" stroke="none" d="M361.5,544.5h42a5,5,0,0,1,5,5v12a5,5,0,0,1,-5,5h-42a5,5,0,0,1,-5,-5v-12a5,5,0,0,1,5,-5z"></path><g id="node_text21" fill="black"><text id="kity_text_191" text-rendering="inherit" font-size="12" dy=".8em" y="549.5" x="366.5">lineto</text></g></g><g id="minder_node19"><g id="node_expander17" style="cursor: pointer;"><path id="kity_path_384" fill="white" stroke="gray" d="M448.5,529.5A6,6,0,1,1,436.5,529.5A6,6,0,1,1,448.5,529.5"></path><path id="kity_path_385" fill="none" stroke="gray" d="M438,529.5L447,529.5"></path></g><path id="node_outline18" fill="none" stroke="none" d="M453.5,518.5h112a5,5,0,0,1,5,5v12a5,5,0,0,1,-5,5h-112a5,5,0,0,1,-5,-5v-12a5,5,0,0,1,5,-5z"></path><g id="node_text18" fill="black"><text id="kity_text_185" text-rendering="inherit" font-size="12" dy=".8em" y="523.5" x="458.5">H - 绘制一条水平线</text></g></g><g id="minder_node20"><g id="node_expander16" display="none" style="cursor: pointer;"><path id="kity_path_381" fill="white" stroke="gray" d="M626.5,529.5A6,6,0,1,1,614.5,529.5A6,6,0,1,1,626.5,529.5"></path><path id="kity_path_382" fill="none" stroke="gray"></path></g><path id="node_outline17" fill="none" stroke="none" d="M615.5,518.5h133a5,5,0,0,1,5,5v12a5,5,0,0,1,-5,5h-133a5,5,0,0,1,-5,-5v-12a5,5,0,0,1,5,-5z"></path><g id="node_text17" fill="black"><text id="kity_text_183" text-rendering="inherit" font-size="12" dy=".8em" y="523.5" x="620.5">H 20 &#xa0;= &#xa0;L 20 current_y</text></g></g><g id="minder_node21"><g id="node_expander19" style="cursor: pointer;"><path id="kity_path_390" fill="white" stroke="gray" d="M448.5,581.5A6,6,0,1,1,436.5,581.5A6,6,0,1,1,448.5,581.5"></path><path id="kity_path_391" fill="none" stroke="gray" d="M438,581.5L447,581.5"></path></g><path id="node_outline20" fill="none" stroke="none" d="M453.5,570.5h112a5,5,0,0,1,5,5v12a5,5,0,0,1,-5,5h-112a5,5,0,0,1,-5,-5v-12a5,5,0,0,1,5,-5z"></path><g id="node_text20" fill="black"><text id="kity_text_189" text-rendering="inherit" font-size="12" dy=".8em" y="575.5" x="458.5">V - 绘制一条竖直线</text></g></g><g id="minder_node22"><g id="node_expander18" display="none" style="cursor: pointer;"><path id="kity_path_387" fill="white" stroke="gray" d="M626.5,581.5A6,6,0,1,1,614.5,581.5A6,6,0,1,1,626.5,581.5"></path><path id="kity_path_388" fill="none" stroke="gray"></path></g><path id="node_outline19" fill="none" stroke="none" d="M615.5,570.5h132a5,5,0,0,1,5,5v12a5,5,0,0,1,-5,5h-132a5,5,0,0,1,-5,-5v-12a5,5,0,0,1,5,-5z"></path><g id="node_text19" fill="black"><text id="kity_text_187" text-rendering="inherit" font-size="12" dy=".8em" y="575.5" x="620.5">V 20 &#xa0;= &#xa0;L current_x 20</text></g></g><g id="minder_node23"><g id="node_expander23" style="cursor: pointer;"><path id="kity_path_402" fill="white" stroke="gray" d="M356.5,659.5A6,6,0,1,1,344.5,659.5A6,6,0,1,1,356.5,659.5"></path><path id="kity_path_403" fill="none" stroke="gray" d="M346,659.5L355,659.5"></path></g><path id="node_outline24" fill="none" stroke="none" d="M361.5,648.5h94a5,5,0,0,1,5,5v12a5,5,0,0,1,-5,5h-94a5,5,0,0,1,-5,-5v-12a5,5,0,0,1,5,-5z"></path><g id="node_text24" fill="black"><text id="kity_text_197" text-rendering="inherit" font-size="12" dy=".8em" y="653.5" x="366.5">快捷方式表示法</text></g></g><g id="minder_node24"><g id="node_expander21" display="none" style="cursor: pointer;"><path id="kity_path_396" fill="white" stroke="gray" d="M516.5,633.5A6,6,0,1,1,504.5,633.5A6,6,0,1,1,516.5,633.5"></path><path id="kity_path_397" fill="none" stroke="gray"></path></g><path id="node_outline22" fill="none" stroke="none" d="M505.5,622.5h279a5,5,0,0,1,5,5v12a5,5,0,0,1,-5,5h-279a5,5,0,0,1,-5,-5v-12a5,5,0,0,1,5,-5z"></path><g id="node_text22" fill="black"><text id="kity_text_193" text-rendering="inherit" font-size="12" dy=".8em" y="627.5" x="510.5">删除moveto命令后的多个lineto命令，仅保留坐标</text></g></g><g id="minder_node25"><g id="node_expander22" display="none" style="cursor: pointer;"><path id="kity_path_399" fill="white" stroke="gray" d="M516.5,685.5A6,6,0,1,1,504.5,685.5A6,6,0,1,1,516.5,685.5"></path><path id="kity_path_400" fill="none" stroke="gray"></path></g><path id="node_outline23" fill="none" stroke="none" d="M505.5,674.5h250a5,5,0,0,1,5,5v12a5,5,0,0,1,-5,5h-250a5,5,0,0,1,-5,-5v-12a5,5,0,0,1,5,-5z"></path><g id="node_text23" fill="black"><text id="kity_text_195" text-rendering="inherit" font-size="12" dy=".8em" y="679.5" x="510.5">删除命令后的空白，命令和数字间不需要空白</text></g></g><g id="minder_node26"><g id="node_expander36" style="cursor: pointer;"><path id="kity_path_441" fill="white" stroke="gray" d="M219.5,903.5A6,6,0,1,1,207.5,903.5A6,6,0,1,1,219.5,903.5"></path><path id="kity_path_442" fill="none" stroke="gray" d="M209,903.5L218,903.5"></path></g><path id="node_outline37" fill="rgb(238, 243, 246)" stroke="rgb(115, 161, 191)" d="M223.5,890.5h76a3,3,0,0,1,3,3v20a3,3,0,0,1,-3,3h-76a3,3,0,0,1,-3,-3v-20a3,3,0,0,1,3,-3z" stroke-width="1"></path><g id="node_text37" fill="black"><text id="kity_text_223" text-rendering="inherit" font-size="14" dy=".8em" y="896.5" x="240.5">椭圆弧</text></g></g><g id="minder_node27"><g id="node_expander35" style="cursor: pointer;"><path id="kity_path_438" fill="white" stroke="gray" d="M342.5,903.5A6,6,0,1,1,330.5,903.5A6,6,0,1,1,342.5,903.5"></path><path id="kity_path_439" fill="none" stroke="gray" d="M332,903.5L341,903.5"></path></g><path id="node_outline36" fill="none" stroke="none" d="M347.5,892.5h19a5,5,0,0,1,5,5v12a5,5,0,0,1,-5,5h-19a5,5,0,0,1,-5,-5v-12a5,5,0,0,1,5,-5z"></path><g id="node_text36" fill="black"><text id="kity_text_221" text-rendering="inherit" font-size="12" dy=".8em" y="897.5" x="352.5">A</text></g></g><g id="minder_node28"><g id="node_expander34" style="cursor: pointer;"><path id="kity_path_435" fill="white" stroke="gray" d="M411.5,903.5A6,6,0,1,1,399.5,903.5A6,6,0,1,1,411.5,903.5"></path><path id="kity_path_436" fill="none" stroke="gray" d="M401,903.5L410,903.5"></path></g><path id="node_outline35" fill="none" stroke="none" d="M416.5,892.5h77a5,5,0,0,1,5,5v12a5,5,0,0,1,-5,5h-77a5,5,0,0,1,-5,-5v-12a5,5,0,0,1,5,-5z"></path><g id="node_text35" fill="black"><text id="kity_text_219" text-rendering="inherit" font-size="12" dy=".8em" y="897.5" x="421.5">所需7个参数</text></g></g><g id="minder_node29"><g id="node_expander25" display="none" style="cursor: pointer;"><path id="kity_path_408" fill="white" stroke="gray" d="M554.5,747.5A6,6,0,1,1,542.5,747.5A6,6,0,1,1,554.5,747.5"></path><path id="kity_path_409" fill="none" stroke="gray"></path></g><path id="node_outline26" fill="none" stroke="none" d="M543.5,736.5h154a5,5,0,0,1,5,5v12a5,5,0,0,1,-5,5h-154a5,5,0,0,1,-5,-5v-12a5,5,0,0,1,5,-5z"></path><g id="node_text26" fill="black"><text id="kity_text_201" text-rendering="inherit" font-size="12" dy=".8em" y="741.5" x="548.5">点所在椭圆的x半径和y半径</text></g></g><g id="minder_node30"><g id="node_expander26" display="none" style="cursor: pointer;"><path id="kity_path_411" fill="white" stroke="gray" d="M554.5,799.5A6,6,0,1,1,542.5,799.5A6,6,0,1,1,554.5,799.5"></path><path id="kity_path_412" fill="none" stroke="gray"></path></g><path id="node_outline27" fill="none" stroke="none" d="M543.5,788.5h180a5,5,0,0,1,5,5v12a5,5,0,0,1,-5,5h-180a5,5,0,0,1,-5,-5v-12a5,5,0,0,1,5,-5z"></path><g id="node_text27" fill="black"><text id="kity_text_203" text-rendering="inherit" font-size="12" dy=".8em" y="793.5" x="548.5">椭圆x轴旋转角度x-axis-rotation</text></g></g><g id="minder_node31"><g id="node_expander29" style="cursor: pointer;"><path id="kity_path_420" fill="white" stroke="gray" d="M538.5,877.5A6,6,0,1,1,526.5,877.5A6,6,0,1,1,538.5,877.5"></path><path id="kity_path_421" fill="none" stroke="gray" d="M528,877.5L537,877.5"></path></g><path id="node_outline30" fill="none" stroke="none" d="M543.5,866.5h90a5,5,0,0,1,5,5v12a5,5,0,0,1,-5,5h-90a5,5,0,0,1,-5,-5v-12a5,5,0,0,1,5,-5z"></path><g id="node_text30" fill="black"><text id="kity_text_209" text-rendering="inherit" font-size="12" dy=".8em" y="871.5" x="548.5">large-arc-flag</text></g></g><g id="minder_node32"><g id="node_expander27" display="none" style="cursor: pointer;"><path id="kity_path_414" fill="white" stroke="gray" d="M694.5,851.5A6,6,0,1,1,682.5,851.5A6,6,0,1,1,694.5,851.5"></path><path id="kity_path_415" fill="none" stroke="gray"></path></g><path id="node_outline28" fill="none" stroke="none" d="M683.5,840.5h124a5,5,0,0,1,5,5v12a5,5,0,0,1,-5,5h-124a5,5,0,0,1,-5,-5v-12a5,5,0,0,1,5,-5z"></path><g id="node_text28" fill="black"><text id="kity_text_205" text-rendering="inherit" font-size="12" dy=".8em" y="845.5" x="688.5">0， 圆弧角度小于180</text></g></g><g id="minder_node33"><g id="node_expander28" display="none" style="cursor: pointer;"><path id="kity_path_417" fill="white" stroke="gray" d="M694.5,903.5A6,6,0,1,1,682.5,903.5A6,6,0,1,1,694.5,903.5"></path><path id="kity_path_418" fill="none" stroke="gray"></path></g><path id="node_outline29" fill="none" stroke="none" d="M683.5,892.5h124a5,5,0,0,1,5,5v12a5,5,0,0,1,-5,5h-124a5,5,0,0,1,-5,-5v-12a5,5,0,0,1,5,-5z"></path><g id="node_text29" fill="black"><text id="kity_text_207" text-rendering="inherit" font-size="12" dy=".8em" y="897.5" x="688.5">1， 圆弧角度大于180</text></g></g><g id="minder_node34"><g id="node_expander32" style="cursor: pointer;"><path id="kity_path_429" fill="white" stroke="gray" d="M538.5,981.5A6,6,0,1,1,526.5,981.5A6,6,0,1,1,538.5,981.5"></path><path id="kity_path_430" fill="none" stroke="gray" d="M528,981.5L537,981.5"></path></g><path id="node_outline33" fill="none" stroke="none" d="M543.5,970.5h75a5,5,0,0,1,5,5v12a5,5,0,0,1,-5,5h-75a5,5,0,0,1,-5,-5v-12a5,5,0,0,1,5,-5z"></path><g id="node_text33" fill="black"><text id="kity_text_215" text-rendering="inherit" font-size="12" dy=".8em" y="975.5" x="548.5">sweep-flag</text></g></g><g id="minder_node35"><g id="node_expander30" display="none" style="cursor: pointer;"><path id="kity_path_423" fill="white" stroke="gray" d="M679.5,955.5A6,6,0,1,1,667.5,955.5A6,6,0,1,1,679.5,955.5"></path><path id="kity_path_424" fill="none" stroke="gray"></path></g><path id="node_outline31" fill="none" stroke="none" d="M668.5,944.5h87a5,5,0,0,1,5,5v12a5,5,0,0,1,-5,5h-87a5,5,0,0,1,-5,-5v-12a5,5,0,0,1,5,-5z"></path><g id="node_text31" fill="black"><text id="kity_text_211" text-rendering="inherit" font-size="12" dy=".8em" y="949.5" x="673.5">0 - 负角度绘制</text></g></g><g id="minder_node36"><g id="node_expander31" display="none" style="cursor: pointer;"><path id="kity_path_426" fill="white" stroke="gray" d="M679.5,1007.5A6,6,0,1,1,667.5,1007.5A6,6,0,1,1,679.5,1007.5"></path><path id="kity_path_427" fill="none" stroke="gray"></path></g><path id="node_outline32" fill="none" stroke="none" d="M668.5,996.5h87a5,5,0,0,1,5,5v12a5,5,0,0,1,-5,5h-87a5,5,0,0,1,-5,-5v-12a5,5,0,0,1,5,-5z"></path><g id="node_text32" fill="black"><text id="kity_text_213" text-rendering="inherit" font-size="12" dy=".8em" y="1001.5" x="673.5">1 - 正角度绘制</text></g></g><g id="minder_node37"><g id="node_expander33" display="none" style="cursor: pointer;"><path id="kity_path_432" fill="white" stroke="gray" d="M554.5,1059.5A6,6,0,1,1,542.5,1059.5A6,6,0,1,1,554.5,1059.5"></path><path id="kity_path_433" fill="none" stroke="gray"></path></g><path id="node_outline34" fill="none" stroke="none" d="M543.5,1048.5h118a5,5,0,0,1,5,5v12a5,5,0,0,1,-5,5h-118a5,5,0,0,1,-5,-5v-12a5,5,0,0,1,5,-5z"></path><g id="node_text34" fill="black"><text id="kity_text_217" text-rendering="inherit" font-size="12" dy=".8em" y="1053.5" x="548.5">终点的x坐标和y坐标</text></g></g><g id="minder_node38"><g id="node_expander51" style="cursor: pointer;"><path id="kity_path_486" fill="white" stroke="gray" d="M219.5,1303.5A6,6,0,1,1,207.5,1303.5A6,6,0,1,1,219.5,1303.5"></path><path id="kity_path_487" fill="none" stroke="gray" d="M209,1303.5L218,1303.5"></path></g><path id="node_outline52" fill="rgb(238, 243, 246)" stroke="rgb(115, 161, 191)" d="M223.5,1290.5h104a3,3,0,0,1,3,3v20a3,3,0,0,1,-3,3h-104a3,3,0,0,1,-3,-3v-20a3,3,0,0,1,3,-3z" stroke-width="1"></path><g id="node_text52" fill="black"><text id="kity_text_253" text-rendering="inherit" font-size="14" dy=".8em" y="1296.5" x="240.5">贝塞尔曲线</text></g></g><g id="minder_node39"><g id="node_expander43" style="cursor: pointer;"><path id="kity_path_462" fill="white" stroke="gray" d="M370.5,1199.5A6,6,0,1,1,358.5,1199.5A6,6,0,1,1,370.5,1199.5"></path><path id="kity_path_463" fill="none" stroke="gray" d="M360,1199.5L369,1199.5"></path></g><path id="node_outline44" fill="none" stroke="none" d="M375.5,1188.5h94a5,5,0,0,1,5,5v12a5,5,0,0,1,-5,5h-94a5,5,0,0,1,-5,-5v-12a5,5,0,0,1,5,-5z"></path><g id="node_text44" fill="black"><text id="kity_text_237" text-rendering="inherit" font-size="12" dy=".8em" y="1193.5" x="380.5">二次贝塞尔曲线</text></g></g><g id="minder_node40"><g id="node_expander39" style="cursor: pointer;"><path id="kity_path_450" fill="white" stroke="gray" d="M514.5,1147.5A6,6,0,1,1,502.5,1147.5A6,6,0,1,1,514.5,1147.5"></path><path id="kity_path_451" fill="none" stroke="gray" d="M504,1147.5L513,1147.5"></path></g><path id="node_outline40" fill="none" stroke="none" d="M519.5,1136.5h73a5,5,0,0,1,5,5v12a5,5,0,0,1,-5,5h-73a5,5,0,0,1,-5,-5v-12a5,5,0,0,1,5,-5z"></path><g id="node_text40" fill="black"><text id="kity_text_229" text-rendering="inherit" font-size="12" dy=".8em" y="1141.5" x="524.5">Q x1 y1 x y&#xa0;</text></g></g><g id="minder_node41"><g id="node_expander37" display="none" style="cursor: pointer;"><path id="kity_path_444" fill="white" stroke="gray" d="M653.5,1121.5A6,6,0,1,1,641.5,1121.5A6,6,0,1,1,653.5,1121.5"></path><path id="kity_path_445" fill="none" stroke="gray"></path></g><path id="node_outline38" fill="none" stroke="none" d="M642.5,1110.5h84a5,5,0,0,1,5,5v12a5,5,0,0,1,-5,5h-84a5,5,0,0,1,-5,-5v-12a5,5,0,0,1,5,-5z"></path><g id="node_text38" fill="black"><text id="kity_text_225" text-rendering="inherit" font-size="12" dy=".8em" y="1115.5" x="647.5">控制点(x1,y1)</text></g></g><g id="minder_node42"><g id="node_expander38" display="none" style="cursor: pointer;"><path id="kity_path_447" fill="white" stroke="gray" d="M653.5,1173.5A6,6,0,1,1,641.5,1173.5A6,6,0,1,1,653.5,1173.5"></path><path id="kity_path_448" fill="none" stroke="gray"></path></g><path id="node_outline39" fill="none" stroke="none" d="M642.5,1162.5h58a5,5,0,0,1,5,5v12a5,5,0,0,1,-5,5h-58a5,5,0,0,1,-5,-5v-12a5,5,0,0,1,5,-5z"></path><g id="node_text39" fill="black"><text id="kity_text_227" text-rendering="inherit" font-size="12" dy=".8em" y="1167.5" x="647.5">终点(x,y)</text></g></g><g id="minder_node43"><g id="node_expander42" style="cursor: pointer;"><path id="kity_path_459" fill="white" stroke="gray" d="M514.5,1251.5A6,6,0,1,1,502.5,1251.5A6,6,0,1,1,514.5,1251.5"></path><path id="kity_path_460" fill="none" stroke="gray" d="M504,1251.5L513,1251.5"></path></g><path id="node_outline43" fill="none" stroke="none" d="M519.5,1240.5h33a5,5,0,0,1,5,5v12a5,5,0,0,1,-5,5h-33a5,5,0,0,1,-5,-5v-12a5,5,0,0,1,5,-5z"></path><g id="node_text43" fill="black"><text id="kity_text_235" text-rendering="inherit" font-size="12" dy=".8em" y="1245.5" x="524.5">T x y</text></g></g><g id="minder_node44"><g id="node_expander40" display="none" style="cursor: pointer;"><path id="kity_path_453" fill="white" stroke="gray" d="M613.5,1225.5A6,6,0,1,1,601.5,1225.5A6,6,0,1,1,613.5,1225.5"></path><path id="kity_path_454" fill="none" stroke="gray"></path></g><path id="node_outline41" fill="none" stroke="none" d="M602.5,1214.5h380a5,5,0,0,1,5,5v12a5,5,0,0,1,-5,5h-380a5,5,0,0,1,-5,-5v-12a5,5,0,0,1,5,-5z"></path><g id="node_text41" fill="black"><text id="kity_text_231" text-rendering="inherit" font-size="12" dy=".8em" y="1219.5" x="607.5">控制点为前一个Q命令控制点的中心对称点，若没有则当前点为控制点</text></g></g><g id="minder_node45"><g id="node_expander41" display="none" style="cursor: pointer;"><path id="kity_path_456" fill="white" stroke="gray" d="M613.5,1277.5A6,6,0,1,1,601.5,1277.5A6,6,0,1,1,613.5,1277.5"></path><path id="kity_path_457" fill="none" stroke="gray"></path></g><path id="node_outline42" fill="none" stroke="none" d="M602.5,1266.5h58a5,5,0,0,1,5,5v12a5,5,0,0,1,-5,5h-58a5,5,0,0,1,-5,-5v-12a5,5,0,0,1,5,-5z"></path><g id="node_text42" fill="black"><text id="kity_text_233" text-rendering="inherit" font-size="12" dy=".8em" y="1271.5" x="607.5">终点(x,y)</text></g></g><g id="minder_node46"><g id="node_expander50" style="cursor: pointer;"><path id="kity_path_483" fill="white" stroke="gray" d="M370.5,1407.5A6,6,0,1,1,358.5,1407.5A6,6,0,1,1,370.5,1407.5"></path><path id="kity_path_484" fill="none" stroke="gray" d="M360,1407.5L369,1407.5"></path></g><path id="node_outline51" fill="none" stroke="none" d="M375.5,1396.5h94a5,5,0,0,1,5,5v12a5,5,0,0,1,-5,5h-94a5,5,0,0,1,-5,-5v-12a5,5,0,0,1,5,-5z"></path><g id="node_text51" fill="black"><text id="kity_text_251" text-rendering="inherit" font-size="12" dy=".8em" y="1401.5" x="380.5">三次贝塞尔曲线</text></g></g><g id="minder_node47"><g id="node_expander46" style="cursor: pointer;"><path id="kity_path_471" fill="white" stroke="gray" d="M514.5,1355.5A6,6,0,1,1,502.5,1355.5A6,6,0,1,1,514.5,1355.5"></path><path id="kity_path_472" fill="none" stroke="gray" d="M504,1355.5L513,1355.5"></path></g><path id="node_outline47" fill="none" stroke="none" d="M519.5,1344.5h101a5,5,0,0,1,5,5v12a5,5,0,0,1,-5,5h-101a5,5,0,0,1,-5,-5v-12a5,5,0,0,1,5,-5z"></path><g id="node_text47" fill="black"><text id="kity_text_243" text-rendering="inherit" font-size="12" dy=".8em" y="1349.5" x="524.5">C x1 y1 x2 y2 x y</text></g></g><g id="minder_node48"><g id="node_expander44" display="none" style="cursor: pointer;"><path id="kity_path_465" fill="white" stroke="gray" d="M681.5,1329.5A6,6,0,1,1,669.5,1329.5A6,6,0,1,1,681.5,1329.5"></path><path id="kity_path_466" fill="none" stroke="gray"></path></g><path id="node_outline45" fill="none" stroke="none" d="M670.5,1318.5h183a5,5,0,0,1,5,5v12a5,5,0,0,1,-5,5h-183a5,5,0,0,1,-5,-5v-12a5,5,0,0,1,5,-5z"></path><g id="node_text45" fill="black"><text id="kity_text_239" text-rendering="inherit" font-size="12" dy=".8em" y="1323.5" x="675.5">控制点1(x1,y1)，控制点2(x2,y2)</text></g></g><g id="minder_node49"><g id="node_expander45" display="none" style="cursor: pointer;"><path id="kity_path_468" fill="white" stroke="gray" d="M681.5,1381.5A6,6,0,1,1,669.5,1381.5A6,6,0,1,1,681.5,1381.5"></path><path id="kity_path_469" fill="none" stroke="gray"></path></g><path id="node_outline46" fill="none" stroke="none" d="M670.5,1370.5h58a5,5,0,0,1,5,5v12a5,5,0,0,1,-5,5h-58a5,5,0,0,1,-5,-5v-12a5,5,0,0,1,5,-5z"></path><g id="node_text46" fill="black"><text id="kity_text_241" text-rendering="inherit" font-size="12" dy=".8em" y="1375.5" x="675.5">终点(x,y)</text></g></g><g id="minder_node50"><g id="node_expander49" style="cursor: pointer;"><path id="kity_path_480" fill="white" stroke="gray" d="M514.5,1459.5A6,6,0,1,1,502.5,1459.5A6,6,0,1,1,514.5,1459.5"></path><path id="kity_path_481" fill="none" stroke="gray" d="M504,1459.5L513,1459.5"></path></g><path id="node_outline50" fill="none" stroke="none" d="M519.5,1448.5h66a5,5,0,0,1,5,5v12a5,5,0,0,1,-5,5h-66a5,5,0,0,1,-5,-5v-12a5,5,0,0,1,5,-5z"></path><g id="node_text50" fill="black"><text id="kity_text_249" text-rendering="inherit" font-size="12" dy=".8em" y="1453.5" x="524.5">S x2 y2 x y</text></g></g><g id="minder_node51"><g id="node_expander47" display="none" style="cursor: pointer;"><path id="kity_path_474" fill="white" stroke="gray" d="M646.5,1433.5A6,6,0,1,1,634.5,1433.5A6,6,0,1,1,646.5,1433.5"></path><path id="kity_path_475" fill="none" stroke="gray"></path></g><path id="node_outline48" fill="none" stroke="none" d="M635.5,1422.5h479a5,5,0,0,1,5,5v12a5,5,0,0,1,-5,5h-479a5,5,0,0,1,-5,-5v-12a5,5,0,0,1,5,-5z"></path><g id="node_text48" fill="black"><text id="kity_text_245" text-rendering="inherit" font-size="12" dy=".8em" y="1427.5" x="640.5">控制点1为前一个C命令控制点的中心对称点，若没有则当前点为控制点，控制点2(x2,y2)</text></g></g><g id="minder_node52"><g id="node_expander48" display="none" style="cursor: pointer;"><path id="kity_path_477" fill="white" stroke="gray" d="M646.5,1485.5A6,6,0,1,1,634.5,1485.5A6,6,0,1,1,646.5,1485.5"></path><path id="kity_path_478" fill="none" stroke="gray"></path></g><path id="node_outline49" fill="none" stroke="none" d="M635.5,1474.5h58a5,5,0,0,1,5,5v12a5,5,0,0,1,-5,5h-58a5,5,0,0,1,-5,-5v-12a5,5,0,0,1,5,-5z"></path><g id="node_text49" fill="black"><text id="kity_text_247" text-rendering="inherit" font-size="12" dy=".8em" y="1479.5" x="640.5">终点(x,y)</text></g></g><g id="minder_node53"><g id="node_expander56" style="cursor: pointer;"><path id="kity_path_501" fill="white" stroke="gray" d="M219.5,1573.5A6,6,0,1,1,207.5,1573.5A6,6,0,1,1,219.5,1573.5"></path><path id="kity_path_502" fill="none" stroke="gray" d="M209,1573.5L218,1573.5"></path></g><path id="node_outline57" fill="rgb(238, 243, 246)" stroke="rgb(115, 161, 191)" d="M223.5,1560.5h62a3,3,0,0,1,3,3v20a3,3,0,0,1,-3,3h-62a3,3,0,0,1,-3,-3v-20a3,3,0,0,1,3,-3z" stroke-width="1"></path><g id="node_text57" fill="black"><text id="kity_text_263" text-rendering="inherit" font-size="14" dy=".8em" y="1566.5" x="240.5">填充</text></g></g><g id="minder_node54"><g id="node_expander53" style="cursor: pointer;"><path id="kity_path_492" fill="white" stroke="gray" d="M328.5,1547.5A6,6,0,1,1,316.5,1547.5A6,6,0,1,1,328.5,1547.5"></path><path id="kity_path_493" fill="none" stroke="gray" d="M318,1547.5L327,1547.5"></path></g><path id="node_outline54" fill="none" stroke="none" d="M333.5,1536.5h108a5,5,0,0,1,5,5v12a5,5,0,0,1,-5,5h-108a5,5,0,0,1,-5,-5v-12a5,5,0,0,1,5,-5z"></path><g id="node_text54" fill="black"><text id="kity_text_257" text-rendering="inherit" font-size="12" dy=".8em" y="1541.5" x="338.5">fill-rule="nonzero"</text></g></g><g id="minder_node55"><g id="node_expander52" display="none" style="cursor: pointer;"><path id="kity_path_489" fill="white" stroke="gray" d="M502.5,1547.5A6,6,0,1,1,490.5,1547.5A6,6,0,1,1,502.5,1547.5"></path><path id="kity_path_490" fill="none" stroke="gray"></path></g><path id="node_outline53" fill="none" stroke="none" d="M491.5,1536.5h286a5,5,0,0,1,5,5v12a5,5,0,0,1,-5,5h-286a5,5,0,0,1,-5,-5v-12a5,5,0,0,1,5,-5z"></path><g id="node_text53" fill="black"><text id="kity_text_255" text-rendering="inherit" font-size="12" dy=".8em" y="1541.5" x="496.5">确定点在路径内部还是外部时会根据参考线条的方向</text></g></g><g id="minder_node56"><g id="node_expander55" style="cursor: pointer;"><path id="kity_path_498" fill="white" stroke="gray" d="M328.5,1599.5A6,6,0,1,1,316.5,1599.5A6,6,0,1,1,328.5,1599.5"></path><path id="kity_path_499" fill="none" stroke="gray" d="M318,1599.5L327,1599.5"></path></g><path id="node_outline56" fill="none" stroke="none" d="M333.5,1588.5h115a5,5,0,0,1,5,5v12a5,5,0,0,1,-5,5h-115a5,5,0,0,1,-5,-5v-12a5,5,0,0,1,5,-5z"></path><g id="node_text56" fill="black"><text id="kity_text_261" text-rendering="inherit" font-size="12" dy=".8em" y="1593.5" x="338.5">fill-rule="evenodd"</text></g></g><g id="minder_node57"><g id="node_expander54" display="none" style="cursor: pointer;"><path id="kity_path_495" fill="white" stroke="gray" d="M509.5,1599.5A6,6,0,1,1,497.5,1599.5A6,6,0,1,1,509.5,1599.5"></path><path id="kity_path_496" fill="none" stroke="gray"></path></g><path id="node_outline55" fill="none" stroke="none" d="M498.5,1588.5h130a5,5,0,0,1,5,5v12a5,5,0,0,1,-5,5h-130a5,5,0,0,1,-5,-5v-12a5,5,0,0,1,5,-5z"></path><g id="node_text55" fill="black"><text id="kity_text_259" text-rendering="inherit" font-size="12" dy=".8em" y="1593.5" x="503.5">参考的是交叉线的总数</text></g></g><g id="minder_node58"><g id="node_expander61" style="cursor: pointer;"><path id="kity_path_516" fill="white" stroke="gray" d="M219.5,1713.5A6,6,0,1,1,207.5,1713.5A6,6,0,1,1,219.5,1713.5"></path><path id="kity_path_517" fill="none" stroke="gray" d="M209,1713.5L218,1713.5"></path></g><path id="node_outline62" fill="rgb(238, 243, 246)" stroke="rgb(115, 161, 191)" d="M223.5,1700.5h62a3,3,0,0,1,3,3v20a3,3,0,0,1,-3,3h-62a3,3,0,0,1,-3,-3v-20a3,3,0,0,1,3,-3z" stroke-width="1"></path><g id="node_text62" fill="black"><text id="kity_text_273" text-rendering="inherit" font-size="14" dy=".8em" y="1706.5" x="240.5">标记</text></g></g><g id="minder_node59"><g id="node_expander60" style="cursor: pointer;"><path id="kity_path_513" fill="white" stroke="gray" d="M328.5,1713.5A6,6,0,1,1,316.5,1713.5A6,6,0,1,1,328.5,1713.5"></path><path id="kity_path_514" fill="none" stroke="gray" d="M318,1713.5L327,1713.5"></path></g><path id="node_outline61" fill="none" stroke="none" d="M333.5,1702.5h65a5,5,0,0,1,5,5v12a5,5,0,0,1,-5,5h-65a5,5,0,0,1,-5,-5v-12a5,5,0,0,1,5,-5z"></path><g id="node_text61" fill="black"><text id="kity_text_271" text-rendering="inherit" font-size="12" dy=".8em" y="1707.5" x="338.5">&lt;marker&gt;</text></g></g><g id="minder_node60"><g id="node_expander57" display="none" style="cursor: pointer;"><path id="kity_path_504" fill="white" stroke="gray" d="M459.5,1661.5A6,6,0,1,1,447.5,1661.5A6,6,0,1,1,459.5,1661.5"></path><path id="kity_path_505" fill="none" stroke="gray"></path></g><path id="node_outline58" fill="none" stroke="none" d="M448.5,1650.5h169a5,5,0,0,1,5,5v12a5,5,0,0,1,-5,5h-169a5,5,0,0,1,-5,-5v-12a5,5,0,0,1,5,-5z"></path><g id="node_text58" fill="black"><text id="kity_text_265" text-rendering="inherit" font-size="12" dy=".8em" y="1655.5" x="453.5">markerWidth, markerHeight</text></g></g><g id="minder_node61"><g id="node_expander58" display="none" style="cursor: pointer;"><path id="kity_path_507" fill="white" stroke="gray" d="M459.5,1713.5A6,6,0,1,1,447.5,1713.5A6,6,0,1,1,459.5,1713.5"></path><path id="kity_path_508" fill="none" stroke="gray"></path></g><path id="node_outline59" fill="none" stroke="none" d="M448.5,1702.5h61a5,5,0,0,1,5,5v12a5,5,0,0,1,-5,5h-61a5,5,0,0,1,-5,-5v-12a5,5,0,0,1,5,-5z"></path><g id="node_text59" fill="black"><text id="kity_text_267" text-rendering="inherit" font-size="12" dy=".8em" y="1707.5" x="453.5">refX, refY</text></g></g><g id="minder_node62"><g id="node_expander59" display="none" style="cursor: pointer;"><path id="kity_path_510" fill="white" stroke="gray" d="M459.5,1765.5A6,6,0,1,1,447.5,1765.5A6,6,0,1,1,459.5,1765.5"></path><path id="kity_path_511" fill="none" stroke="gray"></path></g><path id="node_outline60" fill="none" stroke="none" d="M448.5,1754.5h43a5,5,0,0,1,5,5v12a5,5,0,0,1,-5,5h-43a5,5,0,0,1,-5,-5v-12a5,5,0,0,1,5,-5z"></path><g id="node_text60" fill="black"><text id="kity_text_269" text-rendering="inherit" font-size="12" dy=".8em" y="1759.5" x="453.5">orient</text></g></g></g></g></svg>