<svg id="kity_svg_6" xmlns="http://www.w3.org/2000/svg" xmlns:xlink="http://www.w3.org/1999/xlink" version="1.1" width="743" height="1288" style="background: rgb(251, 251, 251); visibility: visible;" viewBox="0 0 743 1288"><defs id="kity_defs_7"><linearGradient id="kity_linearGradient_17" x1="0" y1="0" x2="0" y2="1"><stop id="kity_stop_18" offset="0" stop-color="rgb(255, 255, 255)"></stop><stop id="kity_stop_19" offset="1" stop-color="rgb(204, 204, 204)"></stop></linearGradient><marker id="kity_marker_2" orient="auto" refX="6" refY="0" viewBox="-7 -7 14 14" markerWidth="7" markerHeight="7" markerUnits="userSpaceOnUse"><path id="kity_path_3" fill="rgb(115, 161, 191)" stroke="none" d="M6,0A6,6,0,1,1,-6,0A6,6,0,1,1,6,0"></path></marker></defs><g id="kity_g_8"><g id="minder1" text-rendering="optimize-speed"><g id="minder_connect_group1"><path id="kity_path_31" fill="none" stroke="rgb(115, 161, 191)" stroke-width="1" d="M60.5,702.5A158,528,0,0,1,218.5,174.5"></path><path id="kity_path_33" fill="none" stroke="rgb(115, 161, 191)" stroke-width="1" d="M334.5,174.5C354.5,174.5,354.5,31.5,374.5,31.5"></path><path id="kity_path_35" fill="none" stroke="rgb(115, 161, 191)" stroke-width="1" d="M480.5,31.5C500.5,31.5,500.5,31.5,520.5,31.5"></path><path id="kity_path_37" fill="none" stroke="rgb(115, 161, 191)" stroke-width="1" d="M334.5,174.5C354.5,174.5,354.5,109.5,374.5,109.5"></path><path id="kity_path_39" fill="none" stroke="rgb(115, 161, 191)" stroke-width="1" d="M473.5,109.5C493.5,109.5,493.5,83.5,513.5,83.5"></path><path id="kity_path_41" fill="none" stroke="rgb(115, 161, 191)" stroke-width="1" d="M473.5,109.5C493.5,109.5,493.5,135.5,513.5,135.5"></path><path id="kity_path_43" fill="none" stroke="rgb(115, 161, 191)" stroke-width="1" d="M334.5,174.5C354.5,174.5,354.5,187.5,374.5,187.5"></path><path id="kity_path_45" fill="none" stroke="rgb(115, 161, 191)" stroke-width="1" d="M447.5,187.5C467.5,187.5,467.5,187.5,487.5,187.5"></path><path id="kity_path_47" fill="none" stroke="rgb(115, 161, 191)" stroke-width="1" d="M334.5,174.5C354.5,174.5,354.5,239.5,374.5,239.5"></path><path id="kity_path_49" fill="none" stroke="rgb(115, 161, 191)" stroke-width="1" d="M459.5,239.5C479.5,239.5,479.5,239.5,499.5,239.5"></path><path id="kity_path_51" fill="none" stroke="rgb(115, 161, 191)" stroke-width="1" d="M334.5,174.5C354.5,174.5,354.5,317.5,374.5,317.5"></path><path id="kity_path_53" fill="none" stroke="rgb(115, 161, 191)" stroke-width="1" d="M405.5,317.5C425.5,317.5,425.5,291.5,445.5,291.5"></path><path id="kity_path_55" fill="none" stroke="rgb(115, 161, 191)" stroke-width="1" d="M543.5,291.5C563.5,291.5,563.5,291.5,583.5,291.5"></path><path id="kity_path_57" fill="none" stroke="rgb(115, 161, 191)" stroke-width="1" d="M405.5,317.5C425.5,317.5,425.5,343.5,445.5,343.5"></path><path id="kity_path_59" fill="none" stroke="rgb(115, 161, 191)" stroke-width="1" d="M501.5,343.5C521.5,343.5,521.5,343.5,541.5,343.5"></path><path id="kity_path_61" fill="none" stroke="rgb(115, 161, 191)" stroke-width="1" d="M60.5,702.5A158,141,0,0,1,218.5,561.5"></path><path id="kity_path_63" fill="none" stroke="rgb(115, 161, 191)" stroke-width="1" d="M288.5,561.5C308.5,561.5,308.5,405.5,328.5,405.5"></path><path id="kity_path_65" fill="none" stroke="rgb(115, 161, 191)" stroke-width="1" d="M396.5,405.5C416.5,405.5,416.5,405.5,436.5,405.5"></path><path id="kity_path_67" fill="none" stroke="rgb(115, 161, 191)" stroke-width="1" d="M288.5,561.5C308.5,561.5,308.5,483.5,328.5,483.5"></path><path id="kity_path_69" fill="none" stroke="rgb(115, 161, 191)" stroke-width="1" d="M396.5,483.5C416.5,483.5,416.5,457.5,436.5,457.5"></path><path id="kity_path_71" fill="none" stroke="rgb(115, 161, 191)" stroke-width="1" d="M396.5,483.5C416.5,483.5,416.5,509.5,436.5,509.5"></path><path id="kity_path_73" fill="none" stroke="rgb(115, 161, 191)" stroke-width="1" d="M288.5,561.5C308.5,561.5,308.5,561.5,328.5,561.5"></path><path id="kity_path_75" fill="none" stroke="rgb(115, 161, 191)" stroke-width="1" d="M408.5,561.5C428.5,561.5,428.5,561.5,448.5,561.5"></path><path id="kity_path_77" fill="none" stroke="rgb(115, 161, 191)" stroke-width="1" d="M288.5,561.5C308.5,561.5,308.5,717.5,328.5,717.5"></path><path id="kity_path_79" fill="none" stroke="rgb(115, 161, 191)" stroke-width="1" d="M396.5,717.5C416.5,717.5,416.5,613.5,436.5,613.5"></path><path id="kity_path_81" fill="none" stroke="rgb(115, 161, 191)" stroke-width="1" d="M396.5,717.5C416.5,717.5,416.5,665.5,436.5,665.5"></path><path id="kity_path_83" fill="none" stroke="rgb(115, 161, 191)" stroke-width="1" d="M396.5,717.5C416.5,717.5,416.5,717.5,436.5,717.5"></path><path id="kity_path_85" fill="none" stroke="rgb(115, 161, 191)" stroke-width="1" d="M396.5,717.5C416.5,717.5,416.5,769.5,436.5,769.5"></path><path id="kity_path_87" fill="none" stroke="rgb(115, 161, 191)" stroke-width="1" d="M489.5,769.5C509.5,769.5,509.5,769.5,529.5,769.5"></path><path id="kity_path_89" fill="none" stroke="rgb(115, 161, 191)" stroke-width="1" d="M396.5,717.5C416.5,717.5,416.5,821.5,436.5,821.5"></path><path id="kity_path_91" fill="none" stroke="rgb(115, 161, 191)" stroke-width="1" d="M547.5,821.5C567.5,821.5,567.5,821.5,587.5,821.5"></path><path id="kity_path_93" fill="none" stroke="rgb(115, 161, 191)" stroke-width="1" d="M60.5,702.5A158,311,0,0,0,218.5,1013.5"></path><path id="kity_path_95" fill="none" stroke="rgb(115, 161, 191)" stroke-width="1" d="M344.5,1013.5C364.5,1013.5,364.5,883.5,384.5,883.5"></path><path id="kity_path_97" fill="none" stroke="rgb(115, 161, 191)" stroke-width="1" d="M435.5,883.5C455.5,883.5,455.5,883.5,475.5,883.5"></path><path id="kity_path_99" fill="none" stroke="rgb(115, 161, 191)" stroke-width="1" d="M344.5,1013.5C364.5,1013.5,364.5,1013.5,384.5,1013.5"></path><path id="kity_path_101" fill="none" stroke="rgb(115, 161, 191)" stroke-width="1" d="M523.5,1013.5C543.5,1013.5,543.5,935.5,563.5,935.5"></path><path id="kity_path_103" fill="none" stroke="rgb(115, 161, 191)" stroke-width="1" d="M523.5,1013.5C543.5,1013.5,543.5,987.5,563.5,987.5"></path><path id="kity_path_105" fill="none" stroke="rgb(115, 161, 191)" stroke-width="1" d="M523.5,1013.5C543.5,1013.5,543.5,1039.5,563.5,1039.5"></path><path id="kity_path_107" fill="none" stroke="rgb(115, 161, 191)" stroke-width="1" d="M523.5,1013.5C543.5,1013.5,543.5,1091.5,563.5,1091.5"></path><path id="kity_path_109" fill="none" stroke="rgb(115, 161, 191)" stroke-width="1" d="M344.5,1013.5C364.5,1013.5,364.5,1143.5,384.5,1143.5"></path><path id="kity_path_111" fill="none" stroke="rgb(115, 161, 191)" stroke-width="1" d="M508.5,1143.5C528.5,1143.5,528.5,1143.5,548.5,1143.5"></path><path id="kity_path_113" fill="none" stroke="rgb(115, 161, 191)" stroke-width="1" d="M60.5,702.5A158,529,0,0,0,218.5,1231.5"></path><path id="kity_path_115" fill="none" stroke="rgb(115, 161, 191)" stroke-width="1" d="M398.5,1231.5C418.5,1231.5,418.5,1205.5,438.5,1205.5"></path><path id="kity_path_117" fill="none" stroke="rgb(115, 161, 191)" stroke-width="1" d="M398.5,1231.5C418.5,1231.5,418.5,1257.5,438.5,1257.5"></path></g><g id="minder_node1"><path id="node_outline1" fill="rgb(115, 161, 191)" stroke="rgb(115, 161, 191)" d="M25.5,682.5h70a5,5,0,0,1,5,5v30a5,5,0,0,1,-5,5h-70a5,5,0,0,1,-5,-5v-30a5,5,0,0,1,5,-5z" stroke-width="3"></path><g id="node_text1" fill="white"><text id="kity_text_22" text-rendering="inherit" font-size="16" dy=".8em" y="694.5" x="44.5">动画</text></g></g><g id="kity_g_12"><path id="kity_path_13" fill="none" stroke="none" d="M44.5,702.5h0v0h0z"></path></g><g id="kity_g_14"><path id="kity_path_15" fill="none" stroke="none" d="M44.5,702.5h0v0h0z"></path><path id="kity_path_16" fill="none" stroke="none"></path></g><g id="minder_node2"><g id="node_expander15" style="cursor: pointer;"><path id="kity_path_293" fill="white" stroke="gray" d="M219.5,174.5A6,6,0,1,1,207.5,174.5A6,6,0,1,1,219.5,174.5"></path><path id="kity_path_294" fill="none" stroke="gray" d="M209,174.5L218,174.5"></path></g><path id="node_outline16" fill="rgb(238, 243, 246)" stroke="rgb(115, 161, 191)" d="M223.5,161.5h108a3,3,0,0,1,3,3v20a3,3,0,0,1,-3,3h-108a3,3,0,0,1,-3,-3v-20a3,3,0,0,1,3,-3z" stroke-width="1"></path><g id="node_text16" fill="black"><text id="kity_text_147" text-rendering="inherit" font-size="14" dy=".8em" y="167.5" x="240.5">&lt;animate&gt;</text></g></g><g id="minder_node3"><g id="node_expander2" style="cursor: pointer;"><path id="kity_path_254" fill="white" stroke="gray" d="M374.5,31.5A6,6,0,1,1,362.5,31.5A6,6,0,1,1,374.5,31.5"></path><path id="kity_path_255" fill="none" stroke="gray" d="M364,31.5L373,31.5"></path></g><path id="node_outline3" fill="none" stroke="none" d="M379.5,20.5h96a5,5,0,0,1,5,5v12a5,5,0,0,1,-5,5h-96a5,5,0,0,1,-5,-5v-12a5,5,0,0,1,5,-5z"></path><g id="node_text3" fill="black"><text id="kity_text_121" text-rendering="inherit" font-size="12" dy=".8em" y="25.5" x="384.5">attributeName</text></g></g><g id="minder_node4"><g id="node_expander1" display="none" style="cursor: pointer;"><path id="kity_path_251" fill="white" stroke="gray" d="M536.5,31.5A6,6,0,1,1,524.5,31.5A6,6,0,1,1,536.5,31.5"></path><path id="kity_path_252" fill="none" stroke="gray"></path></g><path id="node_outline2" fill="none" stroke="none" d="M525.5,20.5h70a5,5,0,0,1,5,5v12a5,5,0,0,1,-5,5h-70a5,5,0,0,1,-5,-5v-12a5,5,0,0,1,5,-5z"></path><g id="node_text2" fill="black"><text id="kity_text_119" text-rendering="inherit" font-size="12" dy=".8em" y="25.5" x="530.5">变化的属性</text></g></g><g id="minder_node5"><g id="node_expander5" style="cursor: pointer;"><path id="kity_path_263" fill="white" stroke="gray" d="M374.5,109.5A6,6,0,1,1,362.5,109.5A6,6,0,1,1,374.5,109.5"></path><path id="kity_path_264" fill="none" stroke="gray" d="M364,109.5L373,109.5"></path></g><path id="node_outline6" fill="none" stroke="none" d="M379.5,98.5h89a5,5,0,0,1,5,5v12a5,5,0,0,1,-5,5h-89a5,5,0,0,1,-5,-5v-12a5,5,0,0,1,5,-5z"></path><g id="node_text6" fill="black"><text id="kity_text_127" text-rendering="inherit" font-size="12" dy=".8em" y="103.5" x="384.5">attribtueClass</text></g></g><g id="minder_node6"><g id="node_expander3" display="none" style="cursor: pointer;"><path id="kity_path_257" fill="white" stroke="gray" d="M529.5,83.5A6,6,0,1,1,517.5,83.5A6,6,0,1,1,529.5,83.5"></path><path id="kity_path_258" fill="none" stroke="gray"></path></g><path id="node_outline4" fill="none" stroke="none" d="M518.5,72.5h34a5,5,0,0,1,5,5v12a5,5,0,0,1,-5,5h-34a5,5,0,0,1,-5,-5v-12a5,5,0,0,1,5,-5z"></path><g id="node_text4" fill="black"><text id="kity_text_123" text-rendering="inherit" font-size="12" dy=".8em" y="77.5" x="523.5">XML</text></g></g><g id="minder_node7"><g id="node_expander4" display="none" style="cursor: pointer;"><path id="kity_path_260" fill="white" stroke="gray" d="M529.5,135.5A6,6,0,1,1,517.5,135.5A6,6,0,1,1,529.5,135.5"></path><path id="kity_path_261" fill="none" stroke="gray"></path></g><path id="node_outline5" fill="none" stroke="none" d="M518.5,124.5h65a5,5,0,0,1,5,5v12a5,5,0,0,1,-5,5h-65a5,5,0,0,1,-5,-5v-12a5,5,0,0,1,5,-5z"></path><g id="node_text5" fill="black"><text id="kity_text_125" text-rendering="inherit" font-size="12" dy=".8em" y="129.5" x="523.5">CSS(默认)</text></g></g><g id="minder_node8"><g id="node_expander7" style="cursor: pointer;"><path id="kity_path_269" fill="white" stroke="gray" d="M374.5,187.5A6,6,0,1,1,362.5,187.5A6,6,0,1,1,374.5,187.5"></path><path id="kity_path_270" fill="none" stroke="gray" d="M364,187.5L373,187.5"></path></g><path id="node_outline8" fill="none" stroke="none" d="M379.5,176.5h63a5,5,0,0,1,5,5v12a5,5,0,0,1,-5,5h-63a5,5,0,0,1,-5,-5v-12a5,5,0,0,1,5,-5z"></path><g id="node_text8" fill="black"><text id="kity_text_131" text-rendering="inherit" font-size="12" dy=".8em" y="181.5" x="384.5">from， to</text></g></g><g id="minder_node9"><g id="node_expander6" display="none" style="cursor: pointer;"><path id="kity_path_266" fill="white" stroke="gray" d="M503.5,187.5A6,6,0,1,1,491.5,187.5A6,6,0,1,1,503.5,187.5"></path><path id="kity_path_267" fill="none" stroke="gray"></path></g><path id="node_outline7" fill="none" stroke="none" d="M492.5,176.5h94a5,5,0,0,1,5,5v12a5,5,0,0,1,-5,5h-94a5,5,0,0,1,-5,-5v-12a5,5,0,0,1,5,-5z"></path><g id="node_text7" fill="black"><text id="kity_text_129" text-rendering="inherit" font-size="12" dy=".8em" y="181.5" x="497.5">起始值与终止值</text></g></g><g id="minder_node10"><g id="node_expander9" style="cursor: pointer;"><path id="kity_path_275" fill="white" stroke="gray" d="M374.5,239.5A6,6,0,1,1,362.5,239.5A6,6,0,1,1,374.5,239.5"></path><path id="kity_path_276" fill="none" stroke="gray" d="M364,239.5L373,239.5"></path></g><path id="node_outline10" fill="none" stroke="none" d="M379.5,228.5h75a5,5,0,0,1,5,5v12a5,5,0,0,1,-5,5h-75a5,5,0,0,1,-5,-5v-12a5,5,0,0,1,5,-5z"></path><g id="node_text10" fill="black"><text id="kity_text_135" text-rendering="inherit" font-size="12" dy=".8em" y="233.5" x="384.5">begin，dur</text></g></g><g id="minder_node11"><g id="node_expander8" display="none" style="cursor: pointer;"><path id="kity_path_272" fill="white" stroke="gray" d="M515.5,239.5A6,6,0,1,1,503.5,239.5A6,6,0,1,1,515.5,239.5"></path><path id="kity_path_273" fill="none" stroke="gray"></path></g><path id="node_outline9" fill="none" stroke="none" d="M504.5,228.5h118a5,5,0,0,1,5,5v12a5,5,0,0,1,-5,5h-118a5,5,0,0,1,-5,-5v-12a5,5,0,0,1,5,-5z"></path><g id="node_text9" fill="black"><text id="kity_text_133" text-rendering="inherit" font-size="12" dy=".8em" y="233.5" x="509.5">开始时间与持续时间</text></g></g><g id="minder_node12"><g id="node_expander14" style="cursor: pointer;"><path id="kity_path_290" fill="white" stroke="gray" d="M374.5,317.5A6,6,0,1,1,362.5,317.5A6,6,0,1,1,374.5,317.5"></path><path id="kity_path_291" fill="none" stroke="gray" d="M364,317.5L373,317.5"></path></g><path id="node_outline15" fill="none" stroke="none" d="M379.5,306.5h21a5,5,0,0,1,5,5v12a5,5,0,0,1,-5,5h-21a5,5,0,0,1,-5,-5v-12a5,5,0,0,1,5,-5z"></path><g id="node_text15" fill="black"><text id="kity_text_145" text-rendering="inherit" font-size="12" dy=".8em" y="311.5" x="384.5">fill</text></g></g><g id="minder_node13"><g id="node_expander11" style="cursor: pointer;"><path id="kity_path_281" fill="white" stroke="gray" d="M445.5,291.5A6,6,0,1,1,433.5,291.5A6,6,0,1,1,445.5,291.5"></path><path id="kity_path_282" fill="none" stroke="gray" d="M435,291.5L444,291.5"></path></g><path id="node_outline12" fill="none" stroke="none" d="M450.5,280.5h88a5,5,0,0,1,5,5v12a5,5,0,0,1,-5,5h-88a5,5,0,0,1,-5,-5v-12a5,5,0,0,1,5,-5z"></path><g id="node_text12" fill="black"><text id="kity_text_139" text-rendering="inherit" font-size="12" dy=".8em" y="285.5" x="455.5">remove(默认)</text></g></g><g id="minder_node14"><g id="node_expander10" display="none" style="cursor: pointer;"><path id="kity_path_278" fill="white" stroke="gray" d="M599.5,291.5A6,6,0,1,1,587.5,291.5A6,6,0,1,1,599.5,291.5"></path><path id="kity_path_279" fill="none" stroke="gray"></path></g><path id="node_outline11" fill="none" stroke="none" d="M588.5,280.5h130a5,5,0,0,1,5,5v12a5,5,0,0,1,-5,5h-130a5,5,0,0,1,-5,-5v-12a5,5,0,0,1,5,-5z"></path><g id="node_text11" fill="black"><text id="kity_text_137" text-rendering="inherit" font-size="12" dy=".8em" y="285.5" x="593.5">动画结束后值为起始值</text></g></g><g id="minder_node15"><g id="node_expander13" style="cursor: pointer;"><path id="kity_path_287" fill="white" stroke="gray" d="M445.5,343.5A6,6,0,1,1,433.5,343.5A6,6,0,1,1,445.5,343.5"></path><path id="kity_path_288" fill="none" stroke="gray" d="M435,343.5L444,343.5"></path></g><path id="node_outline14" fill="none" stroke="none" d="M450.5,332.5h46a5,5,0,0,1,5,5v12a5,5,0,0,1,-5,5h-46a5,5,0,0,1,-5,-5v-12a5,5,0,0,1,5,-5z"></path><g id="node_text14" fill="black"><text id="kity_text_143" text-rendering="inherit" font-size="12" dy=".8em" y="337.5" x="455.5">freeze</text></g></g><g id="minder_node16"><g id="node_expander12" display="none" style="cursor: pointer;"><path id="kity_path_284" fill="white" stroke="gray" d="M557.5,343.5A6,6,0,1,1,545.5,343.5A6,6,0,1,1,557.5,343.5"></path><path id="kity_path_285" fill="none" stroke="gray"></path></g><path id="node_outline13" fill="none" stroke="none" d="M546.5,332.5h130a5,5,0,0,1,5,5v12a5,5,0,0,1,-5,5h-130a5,5,0,0,1,-5,-5v-12a5,5,0,0,1,5,-5z"></path><g id="node_text13" fill="black"><text id="kity_text_141" text-rendering="inherit" font-size="12" dy=".8em" y="337.5" x="551.5">动画结束后值为终止值</text></g></g><g id="minder_node17"><g id="node_expander31" style="cursor: pointer;"><path id="kity_path_341" fill="white" stroke="gray" d="M219.5,561.5A6,6,0,1,1,207.5,561.5A6,6,0,1,1,219.5,561.5"></path><path id="kity_path_342" fill="none" stroke="gray" d="M209,561.5L218,561.5"></path></g><path id="node_outline32" fill="rgb(238, 243, 246)" stroke="rgb(115, 161, 191)" d="M223.5,548.5h62a3,3,0,0,1,3,3v20a3,3,0,0,1,-3,3h-62a3,3,0,0,1,-3,-3v-20a3,3,0,0,1,3,-3z" stroke-width="1"></path><g id="node_text32" fill="black"><text id="kity_text_179" text-rendering="inherit" font-size="14" dy=".8em" y="554.5" x="240.5">属性</text></g></g><g id="minder_node18"><g id="node_expander17" style="cursor: pointer;"><path id="kity_path_299" fill="white" stroke="gray" d="M328.5,405.5A6,6,0,1,1,316.5,405.5A6,6,0,1,1,328.5,405.5"></path><path id="kity_path_300" fill="none" stroke="gray" d="M318,405.5L327,405.5"></path></g><path id="node_outline18" fill="none" stroke="none" d="M333.5,394.5h58a5,5,0,0,1,5,5v12a5,5,0,0,1,-5,5h-58a5,5,0,0,1,-5,-5v-12a5,5,0,0,1,5,-5z"></path><g id="node_text18" fill="black"><text id="kity_text_151" text-rendering="inherit" font-size="12" dy=".8em" y="399.5" x="338.5">同步动画</text></g></g><g id="minder_node19"><g id="node_expander16" display="none" style="cursor: pointer;"><path id="kity_path_296" fill="white" stroke="gray" d="M452.5,405.5A6,6,0,1,1,440.5,405.5A6,6,0,1,1,452.5,405.5"></path><path id="kity_path_297" fill="none" stroke="gray"></path></g><path id="node_outline17" fill="none" stroke="none" d="M441.5,394.5h163a5,5,0,0,1,5,5v12a5,5,0,0,1,-5,5h-163a5,5,0,0,1,-5,-5v-12a5,5,0,0,1,5,-5z"></path><g id="node_text17" fill="black"><text id="kity_text_149" text-rendering="inherit" font-size="12" dy=".8em" y="399.5" x="446.5">设置对应的end值或begin值</text></g></g><g id="minder_node20"><g id="node_expander20" style="cursor: pointer;"><path id="kity_path_308" fill="white" stroke="gray" d="M328.5,483.5A6,6,0,1,1,316.5,483.5A6,6,0,1,1,328.5,483.5"></path><path id="kity_path_309" fill="none" stroke="gray" d="M318,483.5L327,483.5"></path></g><path id="node_outline21" fill="none" stroke="none" d="M333.5,472.5h58a5,5,0,0,1,5,5v12a5,5,0,0,1,-5,5h-58a5,5,0,0,1,-5,-5v-12a5,5,0,0,1,5,-5z"></path><g id="node_text21" fill="black"><text id="kity_text_157" text-rendering="inherit" font-size="12" dy=".8em" y="477.5" x="338.5">重复动画</text></g></g><g id="minder_node21"><g id="node_expander18" display="none" style="cursor: pointer;"><path id="kity_path_302" fill="white" stroke="gray" d="M452.5,457.5A6,6,0,1,1,440.5,457.5A6,6,0,1,1,452.5,457.5"></path><path id="kity_path_303" fill="none" stroke="gray"></path></g><path id="node_outline19" fill="none" stroke="none" d="M441.5,446.5h86a5,5,0,0,1,5,5v12a5,5,0,0,1,-5,5h-86a5,5,0,0,1,-5,-5v-12a5,5,0,0,1,5,-5z"></path><g id="node_text19" fill="black"><text id="kity_text_153" text-rendering="inherit" font-size="12" dy=".8em" y="451.5" x="446.5">repeatCount</text></g></g><g id="minder_node22"><g id="node_expander19" display="none" style="cursor: pointer;"><path id="kity_path_305" fill="white" stroke="gray" d="M452.5,509.5A6,6,0,1,1,440.5,509.5A6,6,0,1,1,452.5,509.5"></path><path id="kity_path_306" fill="none" stroke="gray"></path></g><path id="node_outline20" fill="none" stroke="none" d="M441.5,498.5h69a5,5,0,0,1,5,5v12a5,5,0,0,1,-5,5h-69a5,5,0,0,1,-5,-5v-12a5,5,0,0,1,5,-5z"></path><g id="node_text20" fill="black"><text id="kity_text_155" text-rendering="inherit" font-size="12" dy=".8em" y="503.5" x="446.5">repeatDur</text></g></g><g id="minder_node23"><g id="node_expander22" style="cursor: pointer;"><path id="kity_path_314" fill="white" stroke="gray" d="M328.5,561.5A6,6,0,1,1,316.5,561.5A6,6,0,1,1,328.5,561.5"></path><path id="kity_path_315" fill="none" stroke="gray" d="M318,561.5L327,561.5"></path></g><path id="node_outline23" fill="none" stroke="none" d="M333.5,550.5h70a5,5,0,0,1,5,5v12a5,5,0,0,1,-5,5h-70a5,5,0,0,1,-5,-5v-12a5,5,0,0,1,5,-5z"></path><g id="node_text23" fill="black"><text id="kity_text_161" text-rendering="inherit" font-size="12" dy=".8em" y="555.5" x="338.5">指定多个值</text></g></g><g id="minder_node24"><g id="node_expander21" display="none" style="cursor: pointer;"><path id="kity_path_311" fill="white" stroke="gray" d="M464.5,561.5A6,6,0,1,1,452.5,561.5A6,6,0,1,1,464.5,561.5"></path><path id="kity_path_312" fill="none" stroke="gray"></path></g><path id="node_outline22" fill="none" stroke="none" d="M453.5,550.5h185a5,5,0,0,1,5,5v12a5,5,0,0,1,-5,5h-185a5,5,0,0,1,-5,-5v-12a5,5,0,0,1,5,-5z"></path><g id="node_text22" fill="black"><text id="kity_text_159" text-rendering="inherit" font-size="12" dy=".8em" y="555.5" x="458.5">values="value1 value2 value3"</text></g></g><g id="minder_node25"><g id="node_expander30" style="cursor: pointer;"><path id="kity_path_338" fill="white" stroke="gray" d="M328.5,717.5A6,6,0,1,1,316.5,717.5A6,6,0,1,1,328.5,717.5"></path><path id="kity_path_339" fill="none" stroke="gray" d="M318,717.5L327,717.5"></path></g><path id="node_outline31" fill="none" stroke="none" d="M333.5,706.5h58a5,5,0,0,1,5,5v12a5,5,0,0,1,-5,5h-58a5,5,0,0,1,-5,-5v-12a5,5,0,0,1,5,-5z"></path><g id="node_text31" fill="black"><text id="kity_text_177" text-rendering="inherit" font-size="12" dy=".8em" y="711.5" x="338.5">多级动画</text></g></g><g id="minder_node26"><g id="node_expander23" display="none" style="cursor: pointer;"><path id="kity_path_317" fill="white" stroke="gray" d="M452.5,613.5A6,6,0,1,1,440.5,613.5A6,6,0,1,1,452.5,613.5"></path><path id="kity_path_318" fill="none" stroke="gray"></path></g><path id="node_outline24" fill="none" stroke="none" d="M441.5,602.5h50a5,5,0,0,1,5,5v12a5,5,0,0,1,-5,5h-50a5,5,0,0,1,-5,-5v-12a5,5,0,0,1,5,-5z"></path><g id="node_text24" fill="black"><text id="kity_text_163" text-rendering="inherit" font-size="12" dy=".8em" y="607.5" x="446.5">paced</text></g></g><g id="minder_node27"><g id="node_expander24" display="none" style="cursor: pointer;"><path id="kity_path_320" fill="white" stroke="gray" d="M452.5,665.5A6,6,0,1,1,440.5,665.5A6,6,0,1,1,452.5,665.5"></path><path id="kity_path_321" fill="none" stroke="gray"></path></g><path id="node_outline25" fill="none" stroke="none" d="M441.5,654.5h75a5,5,0,0,1,5,5v12a5,5,0,0,1,-5,5h-75a5,5,0,0,1,-5,-5v-12a5,5,0,0,1,5,-5z"></path><g id="node_text25" fill="black"><text id="kity_text_165" text-rendering="inherit" font-size="12" dy=".8em" y="659.5" x="446.5">linear(默认)</text></g></g><g id="minder_node28"><g id="node_expander25" display="none" style="cursor: pointer;"><path id="kity_path_323" fill="white" stroke="gray" d="M452.5,717.5A6,6,0,1,1,440.5,717.5A6,6,0,1,1,452.5,717.5"></path><path id="kity_path_324" fill="none" stroke="gray"></path></g><path id="node_outline26" fill="none" stroke="none" d="M441.5,706.5h56a5,5,0,0,1,5,5v12a5,5,0,0,1,-5,5h-56a5,5,0,0,1,-5,-5v-12a5,5,0,0,1,5,-5z"></path><g id="node_text26" fill="black"><text id="kity_text_167" text-rendering="inherit" font-size="12" dy=".8em" y="711.5" x="446.5">discrete</text></g></g><g id="minder_node29"><g id="node_expander27" style="cursor: pointer;"><path id="kity_path_329" fill="white" stroke="gray" d="M436.5,769.5A6,6,0,1,1,424.5,769.5A6,6,0,1,1,436.5,769.5"></path><path id="kity_path_330" fill="none" stroke="gray" d="M426,769.5L435,769.5"></path></g><path id="node_outline28" fill="none" stroke="none" d="M441.5,758.5h43a5,5,0,0,1,5,5v12a5,5,0,0,1,-5,5h-43a5,5,0,0,1,-5,-5v-12a5,5,0,0,1,5,-5z"></path><g id="node_text28" fill="black"><text id="kity_text_171" text-rendering="inherit" font-size="12" dy=".8em" y="763.5" x="446.5">spline</text></g></g><g id="minder_node30"><g id="node_expander26" display="none" style="cursor: pointer;"><path id="kity_path_326" fill="white" stroke="gray" d="M545.5,769.5A6,6,0,1,1,533.5,769.5A6,6,0,1,1,545.5,769.5"></path><path id="kity_path_327" fill="none" stroke="gray"></path></g><path id="node_outline27" fill="none" stroke="none" d="M534.5,758.5h64a5,5,0,0,1,5,5v12a5,5,0,0,1,-5,5h-64a5,5,0,0,1,-5,-5v-12a5,5,0,0,1,5,-5z"></path><g id="node_text27" fill="black"><text id="kity_text_169" text-rendering="inherit" font-size="12" dy=".8em" y="763.5" x="539.5">keySpline</text></g></g><g id="minder_node31"><g id="node_expander29" style="cursor: pointer;"><path id="kity_path_335" fill="white" stroke="gray" d="M436.5,821.5A6,6,0,1,1,424.5,821.5A6,6,0,1,1,436.5,821.5"></path><path id="kity_path_336" fill="none" stroke="gray" d="M426,821.5L435,821.5"></path></g><path id="node_outline30" fill="none" stroke="none" d="M441.5,810.5h101a5,5,0,0,1,5,5v12a5,5,0,0,1,-5,5h-101a5,5,0,0,1,-5,-5v-12a5,5,0,0,1,5,-5z"></path><g id="node_text30" fill="black"><text id="kity_text_175" text-rendering="inherit" font-size="12" dy=".8em" y="815.5" x="446.5">属性- 分段关键帧</text></g></g><g id="minder_node32"><g id="node_expander28" display="none" style="cursor: pointer;"><path id="kity_path_332" fill="white" stroke="gray" d="M603.5,821.5A6,6,0,1,1,591.5,821.5A6,6,0,1,1,603.5,821.5"></path><path id="kity_path_333" fill="none" stroke="gray"></path></g><path id="node_outline29" fill="none" stroke="none" d="M592.5,810.5h61a5,5,0,0,1,5,5v12a5,5,0,0,1,-5,5h-61a5,5,0,0,1,-5,-5v-12a5,5,0,0,1,5,-5z"></path><g id="node_text29" fill="black"><text id="kity_text_173" text-rendering="inherit" font-size="12" dy=".8em" y="815.5" x="597.5">keyTimes</text></g></g><g id="minder_node33"><g id="node_expander41" style="cursor: pointer;"><path id="kity_path_371" fill="white" stroke="gray" d="M219.5,1013.5A6,6,0,1,1,207.5,1013.5A6,6,0,1,1,219.5,1013.5"></path><path id="kity_path_372" fill="none" stroke="gray" d="M209,1013.5L218,1013.5"></path></g><path id="node_outline42" fill="rgb(238, 243, 246)" stroke="rgb(115, 161, 191)" d="M223.5,1000.5h118a3,3,0,0,1,3,3v20a3,3,0,0,1,-3,3h-118a3,3,0,0,1,-3,-3v-20a3,3,0,0,1,3,-3z" stroke-width="1"></path><g id="node_text42" fill="black"><text id="kity_text_199" text-rendering="inherit" font-size="14" dy=".8em" y="1006.5" x="240.5">其他动画元素</text></g></g><g id="minder_node34"><g id="node_expander33" style="cursor: pointer;"><path id="kity_path_347" fill="white" stroke="gray" d="M384.5,883.5A6,6,0,1,1,372.5,883.5A6,6,0,1,1,384.5,883.5"></path><path id="kity_path_348" fill="none" stroke="gray" d="M374,883.5L383,883.5"></path></g><path id="node_outline34" fill="none" stroke="none" d="M389.5,872.5h41a5,5,0,0,1,5,5v12a5,5,0,0,1,-5,5h-41a5,5,0,0,1,-5,-5v-12a5,5,0,0,1,5,-5z"></path><g id="node_text34" fill="black"><text id="kity_text_183" text-rendering="inherit" font-size="12" dy=".8em" y="877.5" x="394.5">&lt;set&gt;</text></g></g><g id="minder_node35"><g id="node_expander32" display="none" style="cursor: pointer;"><path id="kity_path_344" fill="white" stroke="gray" d="M491.5,883.5A6,6,0,1,1,479.5,883.5A6,6,0,1,1,491.5,883.5"></path><path id="kity_path_345" fill="none" stroke="gray"></path></g><path id="node_outline33" fill="none" stroke="none" d="M480.5,872.5h202a5,5,0,0,1,5,5v12a5,5,0,0,1,-5,5h-202a5,5,0,0,1,-5,-5v-12a5,5,0,0,1,5,-5z"></path><g id="node_text33" fill="black"><text id="kity_text_181" text-rendering="inherit" font-size="12" dy=".8em" y="877.5" x="485.5">设置一些非数字或不能过度的属性值</text></g></g><g id="minder_node36"><g id="node_expander38" style="cursor: pointer;"><path id="kity_path_362" fill="white" stroke="gray" d="M384.5,1013.5A6,6,0,1,1,372.5,1013.5A6,6,0,1,1,384.5,1013.5"></path><path id="kity_path_363" fill="none" stroke="gray" d="M374,1013.5L383,1013.5"></path></g><path id="node_outline39" fill="none" stroke="none" d="M389.5,1002.5h129a5,5,0,0,1,5,5v12a5,5,0,0,1,-5,5h-129a5,5,0,0,1,-5,-5v-12a5,5,0,0,1,5,-5z"></path><g id="node_text39" fill="black"><text id="kity_text_193" text-rendering="inherit" font-size="12" dy=".8em" y="1007.5" x="394.5">&lt;animateTransform&gt;</text></g></g><g id="minder_node37"><g id="node_expander34" display="none" style="cursor: pointer;"><path id="kity_path_350" fill="white" stroke="gray" d="M579.5,935.5A6,6,0,1,1,567.5,935.5A6,6,0,1,1,579.5,935.5"></path><path id="kity_path_351" fill="none" stroke="gray"></path></g><path id="node_outline35" fill="none" stroke="none" d="M568.5,924.5h60a5,5,0,0,1,5,5v12a5,5,0,0,1,-5,5h-60a5,5,0,0,1,-5,-5v-12a5,5,0,0,1,5,-5z"></path><g id="node_text35" fill="black"><text id="kity_text_185" text-rendering="inherit" font-size="12" dy=".8em" y="929.5" x="573.5">translate</text></g></g><g id="minder_node38"><g id="node_expander35" display="none" style="cursor: pointer;"><path id="kity_path_353" fill="white" stroke="gray" d="M579.5,987.5A6,6,0,1,1,567.5,987.5A6,6,0,1,1,579.5,987.5"></path><path id="kity_path_354" fill="none" stroke="gray"></path></g><path id="node_outline36" fill="none" stroke="none" d="M568.5,976.5h46a5,5,0,0,1,5,5v12a5,5,0,0,1,-5,5h-46a5,5,0,0,1,-5,-5v-12a5,5,0,0,1,5,-5z"></path><g id="node_text36" fill="black"><text id="kity_text_187" text-rendering="inherit" font-size="12" dy=".8em" y="981.5" x="573.5">roatet</text></g></g><g id="minder_node39"><g id="node_expander36" display="none" style="cursor: pointer;"><path id="kity_path_356" fill="white" stroke="gray" d="M579.5,1039.5A6,6,0,1,1,567.5,1039.5A6,6,0,1,1,579.5,1039.5"></path><path id="kity_path_357" fill="none" stroke="gray"></path></g><path id="node_outline37" fill="none" stroke="none" d="M568.5,1028.5h41a5,5,0,0,1,5,5v12a5,5,0,0,1,-5,5h-41a5,5,0,0,1,-5,-5v-12a5,5,0,0,1,5,-5z"></path><g id="node_text37" fill="black"><text id="kity_text_189" text-rendering="inherit" font-size="12" dy=".8em" y="1033.5" x="573.5">scale</text></g></g><g id="minder_node40"><g id="node_expander37" display="none" style="cursor: pointer;"><path id="kity_path_359" fill="white" stroke="gray" d="M579.5,1091.5A6,6,0,1,1,567.5,1091.5A6,6,0,1,1,579.5,1091.5"></path><path id="kity_path_360" fill="none" stroke="gray"></path></g><path id="node_outline38" fill="none" stroke="none" d="M568.5,1080.5h93a5,5,0,0,1,5,5v12a5,5,0,0,1,-5,5h-93a5,5,0,0,1,-5,-5v-12a5,5,0,0,1,5,-5z"></path><g id="node_text38" fill="black"><text id="kity_text_191" text-rendering="inherit" font-size="12" dy=".8em" y="1085.5" x="573.5">skewX，skewY</text></g></g><g id="minder_node41"><g id="node_expander40" style="cursor: pointer;"><path id="kity_path_368" fill="white" stroke="gray" d="M384.5,1143.5A6,6,0,1,1,372.5,1143.5A6,6,0,1,1,384.5,1143.5"></path><path id="kity_path_369" fill="none" stroke="gray" d="M374,1143.5L383,1143.5"></path></g><path id="node_outline41" fill="none" stroke="none" d="M389.5,1132.5h114a5,5,0,0,1,5,5v12a5,5,0,0,1,-5,5h-114a5,5,0,0,1,-5,-5v-12a5,5,0,0,1,5,-5z"></path><g id="node_text41" fill="black"><text id="kity_text_197" text-rendering="inherit" font-size="12" dy=".8em" y="1137.5" x="394.5">&lt;animateMotion&gt;</text></g></g><g id="minder_node42"><g id="node_expander39" display="none" style="cursor: pointer;"><path id="kity_path_365" fill="white" stroke="gray" d="M564.5,1143.5A6,6,0,1,1,552.5,1143.5A6,6,0,1,1,564.5,1143.5"></path><path id="kity_path_366" fill="none" stroke="gray"></path></g><path id="node_outline40" fill="none" stroke="none" d="M553.5,1132.5h96a5,5,0,0,1,5,5v12a5,5,0,0,1,-5,5h-96a5,5,0,0,1,-5,-5v-12a5,5,0,0,1,5,-5z"></path><g id="node_text40" fill="black"><text id="kity_text_195" text-rendering="inherit" font-size="12" dy=".8em" y="1137.5" x="558.5">路径动画 - path</text></g></g><g id="minder_node43"><g id="node_expander44" style="cursor: pointer;"><path id="kity_path_380" fill="white" stroke="gray" d="M219.5,1231.5A6,6,0,1,1,207.5,1231.5A6,6,0,1,1,219.5,1231.5"></path><path id="kity_path_381" fill="none" stroke="gray" d="M209,1231.5L218,1231.5"></path></g><path id="node_outline45" fill="rgb(238, 243, 246)" stroke="rgb(115, 161, 191)" d="M223.5,1218.5h172a3,3,0,0,1,3,3v20a3,3,0,0,1,-3,3h-172a3,3,0,0,1,-3,-3v-20a3,3,0,0,1,3,-3z" stroke-width="1"></path><g id="node_text45" fill="black"><text id="kity_text_205" text-rendering="inherit" font-size="14" dy=".8em" y="1224.5" x="240.5">使用CSS操作SVG动画</text></g></g><g id="minder_node44"><g id="node_expander42" display="none" style="cursor: pointer;"><path id="kity_path_374" fill="white" stroke="gray" d="M454.5,1205.5A6,6,0,1,1,442.5,1205.5A6,6,0,1,1,454.5,1205.5"></path><path id="kity_path_375" fill="none" stroke="gray"></path></g><path id="node_outline43" fill="none" stroke="none" d="M443.5,1194.5h141a5,5,0,0,1,5,5v12a5,5,0,0,1,-5,5h-141a5,5,0,0,1,-5,-5v-12a5,5,0,0,1,5,-5z"></path><g id="node_text43" fill="black"><text id="kity_text_201" text-rendering="inherit" font-size="12" dy=".8em" y="1199.5" x="448.5">设置animation相关属性</text></g></g><g id="minder_node45"><g id="node_expander43" display="none" style="cursor: pointer;"><path id="kity_path_377" fill="white" stroke="gray" d="M454.5,1257.5A6,6,0,1,1,442.5,1257.5A6,6,0,1,1,454.5,1257.5"></path><path id="kity_path_378" fill="none" stroke="gray"></path></g><path id="node_outline44" fill="none" stroke="none" d="M443.5,1246.5h94a5,5,0,0,1,5,5v12a5,5,0,0,1,-5,5h-94a5,5,0,0,1,-5,-5v-12a5,5,0,0,1,5,-5z"></path><g id="node_text44" fill="black"><text id="kity_text_203" text-rendering="inherit" font-size="12" dy=".8em" y="1251.5" x="448.5">设置动画关键帧</text></g></g></g></g></svg>