<svg id="kity_svg_6" xmlns="http://www.w3.org/2000/svg" xmlns:xlink="http://www.w3.org/1999/xlink" version="1.1" width="941" height="872" style="background: rgb(251, 251, 251); visibility: visible;" viewBox="0 0 941 872"><defs id="kity_defs_7"><linearGradient id="kity_linearGradient_17" x1="0" y1="0" x2="0" y2="1"><stop id="kity_stop_18" offset="0" stop-color="rgb(255, 255, 255)"></stop><stop id="kity_stop_19" offset="1" stop-color="rgb(204, 204, 204)"></stop></linearGradient><marker id="kity_marker_2" orient="auto" refX="6" refY="0" viewBox="-7 -7 14 14" markerWidth="7" markerHeight="7" markerUnits="userSpaceOnUse"><path id="kity_path_3" fill="rgb(115, 161, 191)" stroke="none" d="M6,0A6,6,0,1,1,-6,0A6,6,0,1,1,6,0"></path></marker></defs><g id="kity_g_8"><g id="minder1" text-rendering="optimize-speed"><g id="minder_connect_group1"><path id="kity_path_31" fill="none" stroke="rgb(115, 161, 191)" stroke-width="1" d="M76.5,423.5A174,301,0,0,1,250.5,122.5"></path><path id="kity_path_33" fill="none" stroke="rgb(115, 161, 191)" stroke-width="1" d="M320.5,122.5C340.5,122.5,340.5,31.5,360.5,31.5"></path><path id="kity_path_35" fill="none" stroke="rgb(115, 161, 191)" stroke-width="1" d="M320.5,122.5C340.5,122.5,340.5,213.5,360.5,213.5"></path><path id="kity_path_37" fill="none" stroke="rgb(115, 161, 191)" stroke-width="1" d="M404.5,213.5C424.5,213.5,424.5,83.5,444.5,83.5"></path><path id="kity_path_39" fill="none" stroke="rgb(115, 161, 191)" stroke-width="1" d="M404.5,213.5C424.5,213.5,424.5,135.5,444.5,135.5"></path><path id="kity_path_41" fill="none" stroke="rgb(115, 161, 191)" stroke-width="1" d="M404.5,213.5C424.5,213.5,424.5,187.5,444.5,187.5"></path><path id="kity_path_43" fill="none" stroke="rgb(115, 161, 191)" stroke-width="1" d="M404.5,213.5C424.5,213.5,424.5,239.5,444.5,239.5"></path><path id="kity_path_45" fill="none" stroke="rgb(115, 161, 191)" stroke-width="1" d="M404.5,213.5C424.5,213.5,424.5,291.5,444.5,291.5"></path><path id="kity_path_47" fill="none" stroke="rgb(115, 161, 191)" stroke-width="1" d="M404.5,213.5C424.5,213.5,424.5,343.5,444.5,343.5"></path><path id="kity_path_49" fill="none" stroke="rgb(115, 161, 191)" stroke-width="1" d="M76.5,423.5A174,8,0,0,0,250.5,431.5"></path><path id="kity_path_51" fill="none" stroke="rgb(115, 161, 191)" stroke-width="1" d="M404.5,431.5C424.5,431.5,424.5,405.5,444.5,405.5"></path><path id="kity_path_53" fill="none" stroke="rgb(115, 161, 191)" stroke-width="1" d="M404.5,431.5C424.5,431.5,424.5,457.5,444.5,457.5"></path><path id="kity_path_55" fill="none" stroke="rgb(115, 161, 191)" stroke-width="1" d="M76.5,423.5A174,122,0,0,0,250.5,545.5"></path><path id="kity_path_57" fill="none" stroke="rgb(115, 161, 191)" stroke-width="1" d="M376.5,545.5C396.5,545.5,396.5,545.5,416.5,545.5"></path><path id="kity_path_59" fill="none" stroke="rgb(115, 161, 191)" stroke-width="1" d="M483.5,545.5C503.5,545.5,503.5,519.5,523.5,519.5"></path><path id="kity_path_61" fill="none" stroke="rgb(115, 161, 191)" stroke-width="1" d="M483.5,545.5C503.5,545.5,503.5,571.5,523.5,571.5"></path><path id="kity_path_63" fill="none" stroke="rgb(115, 161, 191)" stroke-width="1" d="M76.5,423.5A174,301,0,0,0,250.5,724.5"></path><path id="kity_path_65" fill="none" stroke="rgb(115, 161, 191)" stroke-width="1" d="M362.5,724.5C382.5,724.5,382.5,724.5,402.5,724.5"></path><path id="kity_path_67" fill="none" stroke="rgb(115, 161, 191)" stroke-width="1" d="M543.5,724.5C563.5,724.5,563.5,659.5,583.5,659.5"></path><path id="kity_path_69" fill="none" stroke="rgb(115, 161, 191)" stroke-width="1" d="M651.5,659.5C671.5,659.5,671.5,633.5,691.5,633.5"></path><path id="kity_path_71" fill="none" stroke="rgb(115, 161, 191)" stroke-width="1" d="M651.5,659.5C671.5,659.5,671.5,685.5,691.5,685.5"></path><path id="kity_path_73" fill="none" stroke="rgb(115, 161, 191)" stroke-width="1" d="M543.5,724.5C563.5,724.5,563.5,789.5,583.5,789.5"></path><path id="kity_path_75" fill="none" stroke="rgb(115, 161, 191)" stroke-width="1" d="M639.5,789.5C659.5,789.5,659.5,737.5,679.5,737.5"></path><path id="kity_path_77" fill="none" stroke="rgb(115, 161, 191)" stroke-width="1" d="M730.5,737.5C750.5,737.5,750.5,737.5,770.5,737.5"></path><path id="kity_path_79" fill="none" stroke="rgb(115, 161, 191)" stroke-width="1" d="M639.5,789.5C659.5,789.5,659.5,789.5,679.5,789.5"></path><path id="kity_path_81" fill="none" stroke="rgb(115, 161, 191)" stroke-width="1" d="M732.5,789.5C752.5,789.5,752.5,789.5,772.5,789.5"></path><path id="kity_path_83" fill="none" stroke="rgb(115, 161, 191)" stroke-width="1" d="M639.5,789.5C659.5,789.5,659.5,841.5,679.5,841.5"></path><path id="kity_path_85" fill="none" stroke="rgb(115, 161, 191)" stroke-width="1" d="M729.5,841.5C749.5,841.5,749.5,841.5,769.5,841.5"></path></g><g id="minder_node1"><path id="node_outline1" fill="rgb(115, 161, 191)" stroke="rgb(115, 161, 191)" d="M25.5,403.5h102a5,5,0,0,1,5,5v30a5,5,0,0,1,-5,5h-102a5,5,0,0,1,-5,-5v-30a5,5,0,0,1,5,-5z" stroke-width="3"></path><g id="node_text1" fill="white"><text id="kity_text_22" text-rendering="inherit" font-size="16" dy=".8em" y="415.5" x="44.5">坐标系统</text></g></g><g id="kity_g_12"><path id="kity_path_13" fill="none" stroke="none" d="M44.5,423.5h0v0h0z"></path></g><g id="kity_g_14"><path id="kity_path_15" fill="none" stroke="none" d="M44.5,423.5h0v0h0z"></path><path id="kity_path_16" fill="none" stroke="none"></path></g><g id="minder_node2"><g id="node_expander9" style="cursor: pointer;"><path id="kity_path_195" fill="white" stroke="gray" d="M251.5,122.5A6,6,0,1,1,239.5,122.5A6,6,0,1,1,251.5,122.5"></path><path id="kity_path_196" fill="none" stroke="gray" d="M241,122.5L250,122.5"></path></g><path id="node_outline10" fill="rgb(238, 243, 246)" stroke="rgb(115, 161, 191)" d="M255.5,109.5h62a3,3,0,0,1,3,3v20a3,3,0,0,1,-3,3h-62a3,3,0,0,1,-3,-3v-20a3,3,0,0,1,3,-3z" stroke-width="1"></path><g id="node_text10" fill="black"><text id="kity_text_103" text-rendering="inherit" font-size="14" dy=".8em" y="115.5" x="272.5">视口</text></g></g><g id="minder_node3"><g id="node_expander1" display="none" style="cursor: pointer;"><path id="kity_path_171" fill="white" stroke="gray" d="M376.5,31.5A6,6,0,1,1,364.5,31.5A6,6,0,1,1,376.5,31.5"></path><path id="kity_path_172" fill="none" stroke="gray"></path></g><path id="node_outline2" fill="none" stroke="none" d="M365.5,20.5h84a5,5,0,0,1,5,5v12a5,5,0,0,1,-5,5h-84a5,5,0,0,1,-5,-5v-12a5,5,0,0,1,5,-5z"></path><g id="node_text2" fill="black"><text id="kity_text_87" text-rendering="inherit" font-size="12" dy=".8em" y="25.5" x="370.5">width/height</text></g></g><g id="minder_node4"><g id="node_expander8" style="cursor: pointer;"><path id="kity_path_192" fill="white" stroke="gray" d="M360.5,213.5A6,6,0,1,1,348.5,213.5A6,6,0,1,1,360.5,213.5"></path><path id="kity_path_193" fill="none" stroke="gray" d="M350,213.5L359,213.5"></path></g><path id="node_outline9" fill="none" stroke="none" d="M365.5,202.5h34a5,5,0,0,1,5,5v12a5,5,0,0,1,-5,5h-34a5,5,0,0,1,-5,-5v-12a5,5,0,0,1,5,-5z"></path><g id="node_text9" fill="black"><text id="kity_text_101" text-rendering="inherit" font-size="12" dy=".8em" y="207.5" x="370.5">单位</text></g></g><g id="minder_node5"><g id="node_expander2" display="none" style="cursor: pointer;"><path id="kity_path_174" fill="white" stroke="gray" d="M460.5,83.5A6,6,0,1,1,448.5,83.5A6,6,0,1,1,460.5,83.5"></path><path id="kity_path_175" fill="none" stroke="gray"></path></g><path id="node_outline3" fill="none" stroke="none" d="M449.5,72.5h29a5,5,0,0,1,5,5v12a5,5,0,0,1,-5,5h-29a5,5,0,0,1,-5,-5v-12a5,5,0,0,1,5,-5z"></path><g id="node_text3" fill="black"><text id="kity_text_89" text-rendering="inherit" font-size="12" dy=".8em" y="77.5" x="454.5">em</text></g></g><g id="minder_node6"><g id="node_expander3" display="none" style="cursor: pointer;"><path id="kity_path_177" fill="white" stroke="gray" d="M460.5,135.5A6,6,0,1,1,448.5,135.5A6,6,0,1,1,460.5,135.5"></path><path id="kity_path_178" fill="none" stroke="gray"></path></g><path id="node_outline4" fill="none" stroke="none" d="M449.5,124.5h24a5,5,0,0,1,5,5v12a5,5,0,0,1,-5,5h-24a5,5,0,0,1,-5,-5v-12a5,5,0,0,1,5,-5z"></path><g id="node_text4" fill="black"><text id="kity_text_91" text-rendering="inherit" font-size="12" dy=".8em" y="129.5" x="454.5">px</text></g></g><g id="minder_node7"><g id="node_expander4" display="none" style="cursor: pointer;"><path id="kity_path_180" fill="white" stroke="gray" d="M460.5,187.5A6,6,0,1,1,448.5,187.5A6,6,0,1,1,460.5,187.5"></path><path id="kity_path_181" fill="none" stroke="gray"></path></g><path id="node_outline5" fill="none" stroke="none" d="M449.5,176.5h22a5,5,0,0,1,5,5v12a5,5,0,0,1,-5,5h-22a5,5,0,0,1,-5,-5v-12a5,5,0,0,1,5,-5z"></path><g id="node_text5" fill="black"><text id="kity_text_93" text-rendering="inherit" font-size="12" dy=".8em" y="181.5" x="454.5">pt</text></g></g><g id="minder_node8"><g id="node_expander5" display="none" style="cursor: pointer;"><path id="kity_path_183" fill="white" stroke="gray" d="M460.5,239.5A6,6,0,1,1,448.5,239.5A6,6,0,1,1,460.5,239.5"></path><path id="kity_path_184" fill="none" stroke="gray"></path></g><path id="node_outline6" fill="none" stroke="none" d="M449.5,228.5h24a5,5,0,0,1,5,5v12a5,5,0,0,1,-5,5h-24a5,5,0,0,1,-5,-5v-12a5,5,0,0,1,5,-5z"></path><g id="node_text6" fill="black"><text id="kity_text_95" text-rendering="inherit" font-size="12" dy=".8em" y="233.5" x="454.5">ex</text></g></g><g id="minder_node9"><g id="node_expander6" display="none" style="cursor: pointer;"><path id="kity_path_186" fill="white" stroke="gray" d="M460.5,291.5A6,6,0,1,1,448.5,291.5A6,6,0,1,1,460.5,291.5"></path><path id="kity_path_187" fill="none" stroke="gray"></path></g><path id="node_outline7" fill="none" stroke="none" d="M449.5,280.5h26a5,5,0,0,1,5,5v12a5,5,0,0,1,-5,5h-26a5,5,0,0,1,-5,-5v-12a5,5,0,0,1,5,-5z"></path><g id="node_text7" fill="black"><text id="kity_text_97" text-rendering="inherit" font-size="12" dy=".8em" y="285.5" x="454.5">pc</text></g></g><g id="minder_node10"><g id="node_expander7" display="none" style="cursor: pointer;"><path id="kity_path_189" fill="white" stroke="gray" d="M460.5,343.5A6,6,0,1,1,448.5,343.5A6,6,0,1,1,460.5,343.5"></path><path id="kity_path_190" fill="none" stroke="gray"></path></g><path id="node_outline8" fill="none" stroke="none" d="M449.5,332.5h74a5,5,0,0,1,5,5v12a5,5,0,0,1,-5,5h-74a5,5,0,0,1,-5,-5v-12a5,5,0,0,1,5,-5z"></path><g id="node_text8" fill="black"><text id="kity_text_99" text-rendering="inherit" font-size="12" dy=".8em" y="337.5" x="454.5">cm, mm, in</text></g></g><g id="minder_node11"><g id="node_expander12" style="cursor: pointer;"><path id="kity_path_204" fill="white" stroke="gray" d="M251.5,431.5A6,6,0,1,1,239.5,431.5A6,6,0,1,1,251.5,431.5"></path><path id="kity_path_205" fill="none" stroke="gray" d="M241,431.5L250,431.5"></path></g><path id="node_outline13" fill="rgb(238, 243, 246)" stroke="rgb(115, 161, 191)" d="M255.5,418.5h146a3,3,0,0,1,3,3v20a3,3,0,0,1,-3,3h-146a3,3,0,0,1,-3,-3v-20a3,3,0,0,1,3,-3z" stroke-width="1"></path><g id="node_text13" fill="black"><text id="kity_text_109" text-rendering="inherit" font-size="14" dy=".8em" y="424.5" x="272.5">使用默认用户坐标</text></g></g><g id="minder_node12"><g id="node_expander10" display="none" style="cursor: pointer;"><path id="kity_path_198" fill="white" stroke="gray" d="M460.5,405.5A6,6,0,1,1,448.5,405.5A6,6,0,1,1,460.5,405.5"></path><path id="kity_path_199" fill="none" stroke="gray"></path></g><path id="node_outline11" fill="none" stroke="none" d="M449.5,394.5h95a5,5,0,0,1,5,5v12a5,5,0,0,1,-5,5h-95a5,5,0,0,1,-5,-5v-12a5,5,0,0,1,5,-5z"></path><g id="node_text11" fill="black"><text id="kity_text_105" text-rendering="inherit" font-size="12" dy=".8em" y="399.5" x="454.5">左上角坐标(0,0)</text></g></g><g id="minder_node13"><g id="node_expander11" display="none" style="cursor: pointer;"><path id="kity_path_201" fill="white" stroke="gray" d="M460.5,457.5A6,6,0,1,1,448.5,457.5A6,6,0,1,1,460.5,457.5"></path><path id="kity_path_202" fill="none" stroke="gray"></path></g><path id="node_outline12" fill="none" stroke="none" d="M449.5,446.5h184a5,5,0,0,1,5,5v12a5,5,0,0,1,-5,5h-184a5,5,0,0,1,-5,-5v-12a5,5,0,0,1,5,-5z"></path><g id="node_text12" fill="black"><text id="kity_text_107" text-rendering="inherit" font-size="12" dy=".8em" y="451.5" x="454.5">&#xa0;水平轴向右递增,垂直轴向下递增</text></g></g><g id="minder_node14"><g id="node_expander16" style="cursor: pointer;"><path id="kity_path_216" fill="white" stroke="gray" d="M251.5,545.5A6,6,0,1,1,239.5,545.5A6,6,0,1,1,251.5,545.5"></path><path id="kity_path_217" fill="none" stroke="gray" d="M241,545.5L250,545.5"></path></g><path id="node_outline17" fill="rgb(238, 243, 246)" stroke="rgb(115, 161, 191)" d="M255.5,532.5h118a3,3,0,0,1,3,3v20a3,3,0,0,1,-3,3h-118a3,3,0,0,1,-3,-3v-20a3,3,0,0,1,3,-3z" stroke-width="1"></path><g id="node_text17" fill="black"><text id="kity_text_117" text-rendering="inherit" font-size="14" dy=".8em" y="538.5" x="272.5">指定用户坐标</text></g></g><g id="minder_node15"><g id="node_expander15" style="cursor: pointer;"><path id="kity_path_213" fill="white" stroke="gray" d="M416.5,545.5A6,6,0,1,1,404.5,545.5A6,6,0,1,1,416.5,545.5"></path><path id="kity_path_214" fill="none" stroke="gray" d="M406,545.5L415,545.5"></path></g><path id="node_outline16" fill="none" stroke="none" d="M421.5,534.5h57a5,5,0,0,1,5,5v12a5,5,0,0,1,-5,5h-57a5,5,0,0,1,-5,-5v-12a5,5,0,0,1,5,-5z"></path><g id="node_text16" fill="black"><text id="kity_text_115" text-rendering="inherit" font-size="12" dy=".8em" y="539.5" x="426.5">viewBox</text></g></g><g id="minder_node16"><g id="node_expander13" display="none" style="cursor: pointer;"><path id="kity_path_207" fill="white" stroke="gray" d="M539.5,519.5A6,6,0,1,1,527.5,519.5A6,6,0,1,1,539.5,519.5"></path><path id="kity_path_208" fill="none" stroke="gray"></path></g><path id="node_outline14" fill="none" stroke="none" d="M528.5,508.5h82a5,5,0,0,1,5,5v12a5,5,0,0,1,-5,5h-82a5,5,0,0,1,-5,-5v-12a5,5,0,0,1,5,-5z"></path><g id="node_text14" fill="black"><text id="kity_text_111" text-rendering="inherit" font-size="12" dy=".8em" y="513.5" x="533.5">最小x，最小y</text></g></g><g id="minder_node17"><g id="node_expander14" display="none" style="cursor: pointer;"><path id="kity_path_210" fill="white" stroke="gray" d="M539.5,571.5A6,6,0,1,1,527.5,571.5A6,6,0,1,1,539.5,571.5"></path><path id="kity_path_211" fill="none" stroke="gray"></path></g><path id="node_outline15" fill="none" stroke="none" d="M528.5,560.5h70a5,5,0,0,1,5,5v12a5,5,0,0,1,-5,5h-70a5,5,0,0,1,-5,-5v-12a5,5,0,0,1,5,-5z"></path><g id="node_text15" fill="black"><text id="kity_text_113" text-rendering="inherit" font-size="12" dy=".8em" y="565.5" x="533.5">宽度，高度</text></g></g><g id="minder_node18"><g id="node_expander28" style="cursor: pointer;"><path id="kity_path_252" fill="white" stroke="gray" d="M251.5,724.5A6,6,0,1,1,239.5,724.5A6,6,0,1,1,251.5,724.5"></path><path id="kity_path_253" fill="none" stroke="gray" d="M241,724.5L250,724.5"></path></g><path id="node_outline29" fill="rgb(238, 243, 246)" stroke="rgb(115, 161, 191)" d="M255.5,711.5h104a3,3,0,0,1,3,3v20a3,3,0,0,1,-3,3h-104a3,3,0,0,1,-3,-3v-20a3,3,0,0,1,3,-3z" stroke-width="1"></path><g id="node_text29" fill="black"><text id="kity_text_141" text-rendering="inherit" font-size="14" dy=".8em" y="717.5" x="272.5">保留宽高比</text></g></g><g id="minder_node19"><g id="node_expander27" style="cursor: pointer;"><path id="kity_path_249" fill="white" stroke="gray" d="M402.5,724.5A6,6,0,1,1,390.5,724.5A6,6,0,1,1,402.5,724.5"></path><path id="kity_path_250" fill="none" stroke="gray" d="M392,724.5L401,724.5"></path></g><path id="node_outline28" fill="none" stroke="none" d="M407.5,713.5h131a5,5,0,0,1,5,5v12a5,5,0,0,1,-5,5h-131a5,5,0,0,1,-5,-5v-12a5,5,0,0,1,5,-5z"></path><g id="node_text28" fill="black"><text id="kity_text_139" text-rendering="inherit" font-size="12" dy=".8em" y="718.5" x="412.5">preserveAspectRatio</text></g></g><g id="minder_node20"><g id="node_expander19" style="cursor: pointer;"><path id="kity_path_225" fill="white" stroke="gray" d="M583.5,659.5A6,6,0,1,1,571.5,659.5A6,6,0,1,1,583.5,659.5"></path><path id="kity_path_226" fill="none" stroke="gray" d="M573,659.5L582,659.5"></path></g><path id="node_outline20" fill="none" stroke="none" d="M588.5,648.5h58a5,5,0,0,1,5,5v12a5,5,0,0,1,-5,5h-58a5,5,0,0,1,-5,-5v-12a5,5,0,0,1,5,-5z"></path><g id="node_text20" fill="black"><text id="kity_text_123" text-rendering="inherit" font-size="12" dy=".8em" y="653.5" x="593.5">对齐方式</text></g></g><g id="minder_node21"><g id="node_expander17" display="none" style="cursor: pointer;"><path id="kity_path_219" fill="white" stroke="gray" d="M707.5,633.5A6,6,0,1,1,695.5,633.5A6,6,0,1,1,707.5,633.5"></path><path id="kity_path_220" fill="none" stroke="gray"></path></g><path id="node_outline18" fill="none" stroke="none" d="M696.5,622.5h119a5,5,0,0,1,5,5v12a5,5,0,0,1,-5,5h-119a5,5,0,0,1,-5,-5v-12a5,5,0,0,1,5,-5z"></path><g id="node_text18" fill="black"><text id="kity_text_119" text-rendering="inherit" font-size="12" dy=".8em" y="627.5" x="701.5">xMin，xMid，xMax</text></g></g><g id="minder_node22"><g id="node_expander18" display="none" style="cursor: pointer;"><path id="kity_path_222" fill="white" stroke="gray" d="M707.5,685.5A6,6,0,1,1,695.5,685.5A6,6,0,1,1,707.5,685.5"></path><path id="kity_path_223" fill="none" stroke="gray"></path></g><path id="node_outline19" fill="none" stroke="none" d="M696.5,674.5h123a5,5,0,0,1,5,5v12a5,5,0,0,1,-5,5h-123a5,5,0,0,1,-5,-5v-12a5,5,0,0,1,5,-5z"></path><g id="node_text19" fill="black"><text id="kity_text_121" text-rendering="inherit" font-size="12" dy=".8em" y="679.5" x="701.5">YMin，YMid，YMax</text></g></g><g id="minder_node23"><g id="node_expander26" style="cursor: pointer;"><path id="kity_path_246" fill="white" stroke="gray" d="M583.5,789.5A6,6,0,1,1,571.5,789.5A6,6,0,1,1,583.5,789.5"></path><path id="kity_path_247" fill="none" stroke="gray" d="M573,789.5L582,789.5"></path></g><path id="node_outline27" fill="none" stroke="none" d="M588.5,778.5h46a5,5,0,0,1,5,5v12a5,5,0,0,1,-5,5h-46a5,5,0,0,1,-5,-5v-12a5,5,0,0,1,5,-5z"></path><g id="node_text27" fill="black"><text id="kity_text_137" text-rendering="inherit" font-size="12" dy=".8em" y="783.5" x="593.5">说明符</text></g></g><g id="minder_node24"><g id="node_expander21" style="cursor: pointer;"><path id="kity_path_231" fill="white" stroke="gray" d="M679.5,737.5A6,6,0,1,1,667.5,737.5A6,6,0,1,1,679.5,737.5"></path><path id="kity_path_232" fill="none" stroke="gray" d="M669,737.5L678,737.5"></path></g><path id="node_outline22" fill="none" stroke="none" d="M684.5,726.5h41a5,5,0,0,1,5,5v12a5,5,0,0,1,-5,5h-41a5,5,0,0,1,-5,-5v-12a5,5,0,0,1,5,-5z"></path><g id="node_text22" fill="black"><text id="kity_text_127" text-rendering="inherit" font-size="12" dy=".8em" y="731.5" x="689.5">meet</text></g></g><g id="minder_node25"><g id="node_expander20" display="none" style="cursor: pointer;"><path id="kity_path_228" fill="white" stroke="gray" d="M786.5,737.5A6,6,0,1,1,774.5,737.5A6,6,0,1,1,786.5,737.5"></path><path id="kity_path_229" fill="none" stroke="gray"></path></g><path id="node_outline21" fill="none" stroke="none" d="M775.5,726.5h130a5,5,0,0,1,5,5v12a5,5,0,0,1,-5,5h-130a5,5,0,0,1,-5,-5v-12a5,5,0,0,1,5,-5z"></path><g id="node_text21" fill="black"><text id="kity_text_125" text-rendering="inherit" font-size="12" dy=".8em" y="731.5" x="780.5">适配边缘，等比例缩放</text></g></g><g id="minder_node26"><g id="node_expander23" style="cursor: pointer;"><path id="kity_path_237" fill="white" stroke="gray" d="M679.5,789.5A6,6,0,1,1,667.5,789.5A6,6,0,1,1,679.5,789.5"></path><path id="kity_path_238" fill="none" stroke="gray" d="M669,789.5L678,789.5"></path></g><path id="node_outline24" fill="none" stroke="none" d="M684.5,778.5h43a5,5,0,0,1,5,5v12a5,5,0,0,1,-5,5h-43a5,5,0,0,1,-5,-5v-12a5,5,0,0,1,5,-5z"></path><g id="node_text24" fill="black"><text id="kity_text_131" text-rendering="inherit" font-size="12" dy=".8em" y="783.5" x="689.5">splice</text></g></g><g id="minder_node27"><g id="node_expander22" display="none" style="cursor: pointer;"><path id="kity_path_234" fill="white" stroke="gray" d="M788.5,789.5A6,6,0,1,1,776.5,789.5A6,6,0,1,1,788.5,789.5"></path><path id="kity_path_235" fill="none" stroke="gray"></path></g><path id="node_outline23" fill="none" stroke="none" d="M777.5,778.5h130a5,5,0,0,1,5,5v12a5,5,0,0,1,-5,5h-130a5,5,0,0,1,-5,-5v-12a5,5,0,0,1,5,-5z"></path><g id="node_text23" fill="black"><text id="kity_text_129" text-rendering="inherit" font-size="12" dy=".8em" y="783.5" x="782.5">剪裁不适合视口的部分</text></g></g><g id="minder_node28"><g id="node_expander25" style="cursor: pointer;"><path id="kity_path_243" fill="white" stroke="gray" d="M679.5,841.5A6,6,0,1,1,667.5,841.5A6,6,0,1,1,679.5,841.5"></path><path id="kity_path_244" fill="none" stroke="gray" d="M669,841.5L678,841.5"></path></g><path id="node_outline26" fill="none" stroke="none" d="M684.5,830.5h40a5,5,0,0,1,5,5v12a5,5,0,0,1,-5,5h-40a5,5,0,0,1,-5,-5v-12a5,5,0,0,1,5,-5z"></path><g id="node_text26" fill="black"><text id="kity_text_135" text-rendering="inherit" font-size="12" dy=".8em" y="835.5" x="689.5">none</text></g></g><g id="minder_node29"><g id="node_expander24" display="none" style="cursor: pointer;"><path id="kity_path_240" fill="white" stroke="gray" d="M785.5,841.5A6,6,0,1,1,773.5,841.5A6,6,0,1,1,785.5,841.5"></path><path id="kity_path_241" fill="none" stroke="gray"></path></g><path id="node_outline25" fill="none" stroke="none" d="M774.5,830.5h142a5,5,0,0,1,5,5v12a5,5,0,0,1,-5,5h-142a5,5,0,0,1,-5,-5v-12a5,5,0,0,1,5,-5z"></path><g id="node_text25" fill="black"><text id="kity_text_133" text-rendering="inherit" font-size="12" dy=".8em" y="835.5" x="779.5">缩放图像，不保留宽高比</text></g></g></g></g></svg>