<svg id="kity_svg_6" xmlns="http://www.w3.org/2000/svg" xmlns:xlink="http://www.w3.org/1999/xlink" version="1.1" width="994" height="436" style="background: rgb(251, 251, 251); visibility: visible;" viewBox="0 0 994 436"><defs id="kity_defs_7"><linearGradient id="kity_linearGradient_17" x1="0" y1="0" x2="0" y2="1"><stop id="kity_stop_18" offset="0" stop-color="rgb(255, 255, 255)"></stop><stop id="kity_stop_19" offset="1" stop-color="rgb(204, 204, 204)"></stop></linearGradient><marker id="kity_marker_2" orient="auto" refX="6" refY="0" viewBox="-7 -7 14 14" markerWidth="7" markerHeight="7" markerUnits="userSpaceOnUse"><path id="kity_path_3" fill="rgb(115, 161, 191)" stroke="none" d="M6,0A6,6,0,1,1,-6,0A6,6,0,1,1,6,0"></path></marker></defs><g id="kity_g_8"><g id="minder1" text-rendering="optimize-speed"><g id="minder_connect_group1"><path id="kity_path_31" fill="none" stroke="rgb(115, 161, 191)" stroke-width="1" d="M76.5,218.5A174,109,0,0,1,250.5,109.5"></path><path id="kity_path_33" fill="none" stroke="rgb(115, 161, 191)" stroke-width="1" d="M320.5,109.5C340.5,109.5,340.5,31.5,360.5,31.5"></path><path id="kity_path_35" fill="none" stroke="rgb(115, 161, 191)" stroke-width="1" d="M428.5,31.5C448.5,31.5,448.5,31.5,468.5,31.5"></path><path id="kity_path_37" fill="none" stroke="rgb(115, 161, 191)" stroke-width="1" d="M320.5,109.5C340.5,109.5,340.5,83.5,360.5,83.5"></path><path id="kity_path_39" fill="none" stroke="rgb(115, 161, 191)" stroke-width="1" d="M320.5,109.5C340.5,109.5,340.5,135.5,360.5,135.5"></path><path id="kity_path_41" fill="none" stroke="rgb(115, 161, 191)" stroke-width="1" d="M440.5,135.5C460.5,135.5,460.5,135.5,480.5,135.5"></path><path id="kity_path_43" fill="none" stroke="rgb(115, 161, 191)" stroke-width="1" d="M320.5,109.5C340.5,109.5,340.5,187.5,360.5,187.5"></path><path id="kity_path_45" fill="none" stroke="rgb(115, 161, 191)" stroke-width="1" d="M428.5,187.5C448.5,187.5,448.5,187.5,468.5,187.5"></path><path id="kity_path_47" fill="none" stroke="rgb(115, 161, 191)" stroke-width="1" d="M76.5,218.5A174,109,0,0,0,250.5,327.5"></path><path id="kity_path_49" fill="none" stroke="rgb(115, 161, 191)" stroke-width="1" d="M390.5,327.5C410.5,327.5,410.5,249.5,430.5,249.5"></path><path id="kity_path_51" fill="none" stroke="rgb(115, 161, 191)" stroke-width="1" d="M473.5,249.5C507,249.5,507,249.5,540.5,249.5"></path><path id="kity_path_53" fill="none" stroke="rgb(115, 161, 191)" stroke-width="1" d="M390.5,327.5C410.5,327.5,410.5,301.5,430.5,301.5"></path><path id="kity_path_55" fill="none" stroke="rgb(115, 161, 191)" stroke-width="1" d="M484.5,301.5C504.5,301.5,504.5,301.5,524.5,301.5"></path><path id="kity_path_57" fill="none" stroke="rgb(115, 161, 191)" stroke-width="1" d="M390.5,327.5C410.5,327.5,410.5,353.5,430.5,353.5"></path><path id="kity_path_59" fill="none" stroke="rgb(115, 161, 191)" stroke-width="1" d="M489.5,353.5C509.5,353.5,509.5,353.5,529.5,353.5"></path><path id="kity_path_61" fill="none" stroke="rgb(115, 161, 191)" stroke-width="1" d="M390.5,327.5C410.5,327.5,410.5,405.5,430.5,405.5"></path><path id="kity_path_63" fill="none" stroke="rgb(115, 161, 191)" stroke-width="1" d="M505.5,405.5C525.5,405.5,525.5,405.5,545.5,405.5"></path></g><g id="minder_node1"><path id="node_outline1" fill="rgb(115, 161, 191)" stroke="rgb(115, 161, 191)" d="M25.5,198.5h102a5,5,0,0,1,5,5v30a5,5,0,0,1,-5,5h-102a5,5,0,0,1,-5,-5v-30a5,5,0,0,1,5,-5z" stroke-width="3"></path><g id="node_text1" fill="white"><text id="kity_text_22" text-rendering="inherit" font-size="16" dy=".8em" y="210.5" x="44.5">文档结构</text></g></g><g id="kity_g_12"><path id="kity_path_13" fill="none" stroke="none" d="M44.5,218.5h0v0h0z"></path></g><g id="kity_g_14"><path id="kity_path_15" fill="none" stroke="none" d="M44.5,218.5h0v0h0z"></path><path id="kity_path_16" fill="none" stroke="none"></path></g><g id="minder_node2"><g id="node_expander8" style="cursor: pointer;"><path id="kity_path_137" fill="white" stroke="gray" d="M251.5,109.5A6,6,0,1,1,239.5,109.5A6,6,0,1,1,251.5,109.5"></path><path id="kity_path_138" fill="none" stroke="gray" d="M241,109.5L250,109.5"></path></g><path id="node_outline9" fill="rgb(238, 243, 246)" stroke="rgb(115, 161, 191)" d="M255.5,96.5h62a3,3,0,0,1,3,3v20a3,3,0,0,1,-3,3h-62a3,3,0,0,1,-3,-3v-20a3,3,0,0,1,3,-3z" stroke-width="1"></path><g id="node_text9" fill="black"><text id="kity_text_79" text-rendering="inherit" font-size="14" dy=".8em" y="102.5" x="272.5">样式</text></g></g><g id="minder_node3"><g id="node_expander2" style="cursor: pointer;"><path id="kity_path_119" fill="white" stroke="gray" d="M360.5,31.5A6,6,0,1,1,348.5,31.5A6,6,0,1,1,360.5,31.5"></path><path id="kity_path_120" fill="none" stroke="gray" d="M350,31.5L359,31.5"></path></g><path id="node_outline3" fill="none" stroke="none" d="M365.5,20.5h58a5,5,0,0,1,5,5v12a5,5,0,0,1,-5,5h-58a5,5,0,0,1,-5,-5v-12a5,5,0,0,1,5,-5z"></path><g id="node_text3" fill="black"><text id="kity_text_67" text-rendering="inherit" font-size="12" dy=".8em" y="25.5" x="370.5">内联样式</text></g></g><g id="minder_node4"><g id="node_expander1" display="none" style="cursor: pointer;"><path id="kity_path_116" fill="white" stroke="gray" d="M484.5,31.5A6,6,0,1,1,472.5,31.5A6,6,0,1,1,484.5,31.5"></path><path id="kity_path_117" fill="none" stroke="gray"></path></g><path id="node_outline2" fill="none" stroke="none" d="M473.5,20.5h432a5,5,0,0,1,5,5v12a5,5,0,0,1,-5,5h-432a5,5,0,0,1,-5,-5v-12a5,5,0,0,1,5,-5z"></path><g id="node_text2" fill="black"><text id="kity_text_65" text-rendering="inherit" font-size="12" dy=".8em" y="25.5" x="478.5">&lt;circle ..... &#xa0;style="stroke:black; stroke-width:1.5; fill:blue; fill-opacity:0.6;" /&gt;</text></g></g><g id="minder_node5"><g id="node_expander3" display="none" style="cursor: pointer;"><path id="kity_path_122" fill="white" stroke="gray" d="M376.5,83.5A6,6,0,1,1,364.5,83.5A6,6,0,1,1,376.5,83.5"></path><path id="kity_path_123" fill="none" stroke="gray"></path></g><path id="node_outline4" fill="none" stroke="none" d="M365.5,72.5h70a5,5,0,0,1,5,5v12a5,5,0,0,1,-5,5h-70a5,5,0,0,1,-5,-5v-12a5,5,0,0,1,5,-5z"></path><g id="node_text4" fill="black"><text id="kity_text_69" text-rendering="inherit" font-size="12" dy=".8em" y="77.5" x="370.5">内联样式表</text></g></g><g id="minder_node6"><g id="node_expander5" style="cursor: pointer;"><path id="kity_path_128" fill="white" stroke="gray" d="M360.5,135.5A6,6,0,1,1,348.5,135.5A6,6,0,1,1,360.5,135.5"></path><path id="kity_path_129" fill="none" stroke="gray" d="M350,135.5L359,135.5"></path></g><path id="node_outline6" fill="none" stroke="none" d="M365.5,124.5h70a5,5,0,0,1,5,5v12a5,5,0,0,1,-5,5h-70a5,5,0,0,1,-5,-5v-12a5,5,0,0,1,5,-5z"></path><g id="node_text6" fill="black"><text id="kity_text_73" text-rendering="inherit" font-size="12" dy=".8em" y="129.5" x="370.5">外部样式表</text></g></g><g id="minder_node7"><g id="node_expander4" display="none" style="cursor: pointer;"><path id="kity_path_125" fill="white" stroke="gray" d="M496.5,135.5A6,6,0,1,1,484.5,135.5A6,6,0,1,1,496.5,135.5"></path><path id="kity_path_126" fill="none" stroke="gray"></path></g><path id="node_outline5" fill="none" stroke="none" d="M485.5,124.5h173a5,5,0,0,1,5,5v12a5,5,0,0,1,-5,5h-173a5,5,0,0,1,-5,-5v-12a5,5,0,0,1,5,-5z"></path><g id="node_text5" fill="black"><text id="kity_text_71" text-rendering="inherit" font-size="12" dy=".8em" y="129.5" x="490.5">rect { stroke-dasharray: 7 3; }</text></g></g><g id="minder_node8"><g id="node_expander7" style="cursor: pointer;"><path id="kity_path_134" fill="white" stroke="gray" d="M360.5,187.5A6,6,0,1,1,348.5,187.5A6,6,0,1,1,360.5,187.5"></path><path id="kity_path_135" fill="none" stroke="gray" d="M350,187.5L359,187.5"></path></g><path id="node_outline8" fill="none" stroke="none" d="M365.5,176.5h58a5,5,0,0,1,5,5v12a5,5,0,0,1,-5,5h-58a5,5,0,0,1,-5,-5v-12a5,5,0,0,1,5,-5z"></path><g id="node_text8" fill="black"><text id="kity_text_77" text-rendering="inherit" font-size="12" dy=".8em" y="181.5" x="370.5">表现属性</text></g></g><g id="minder_node9"><g id="node_expander6" display="none" style="cursor: pointer;"><path id="kity_path_131" fill="white" stroke="gray" d="M484.5,187.5A6,6,0,1,1,472.5,187.5A6,6,0,1,1,484.5,187.5"></path><path id="kity_path_132" fill="none" stroke="gray"></path></g><path id="node_outline7" fill="none" stroke="none" d="M473.5,176.5h320a5,5,0,0,1,5,5v12a5,5,0,0,1,-5,5h-320a5,5,0,0,1,-5,-5v-12a5,5,0,0,1,5,-5z"></path><g id="node_text7" fill="black"><text id="kity_text_75" text-rendering="inherit" font-size="12" dy=".8em" y="181.5" x="478.5">&lt;circle ..... &#xa0;fill="blue" stroke="black" stroke-width="2" /&gt;</text></g></g><g id="minder_node10"><g id="node_expander17" style="cursor: pointer;"><path id="kity_path_164" fill="white" stroke="gray" d="M251.5,327.5A6,6,0,1,1,239.5,327.5A6,6,0,1,1,251.5,327.5"></path><path id="kity_path_165" fill="none" stroke="gray" d="M241,327.5L250,327.5"></path></g><path id="node_outline18" fill="rgb(238, 243, 246)" stroke="rgb(115, 161, 191)" d="M255.5,314.5h132a3,3,0,0,1,3,3v20a3,3,0,0,1,-3,3h-132a3,3,0,0,1,-3,-3v-20a3,3,0,0,1,3,-3z" stroke-width="1"></path><g id="node_text18" fill="black"><text id="kity_text_97" text-rendering="inherit" font-size="14" dy=".8em" y="320.5" x="272.5">分组和引用对象</text></g></g><g id="minder_node11"><g id="node_expander10" style="cursor: pointer;"><path id="kity_path_143" fill="white" stroke="gray" d="M430.5,249.5A6,6,0,1,1,418.5,249.5A6,6,0,1,1,430.5,249.5"></path><path id="kity_path_144" fill="none" stroke="gray" d="M420,249.5L429,249.5"></path></g><path id="node_outline11" fill="none" stroke="none" d="M435.5,238.5h33a5,5,0,0,1,5,5v12a5,5,0,0,1,-5,5h-33a5,5,0,0,1,-5,-5v-12a5,5,0,0,1,5,-5z"></path><g id="node_text11" fill="black"><text id="kity_text_83" text-rendering="inherit" font-size="12" dy=".8em" y="243.5" x="440.5">&lt;g&gt;</text></g></g><g id="minder_node12"><g id="node_expander9" display="none" style="cursor: pointer;"><path id="kity_path_140" fill="white" stroke="gray" d="M556.5,249.5A6,6,0,1,1,544.5,249.5A6,6,0,1,1,556.5,249.5"></path><path id="kity_path_141" fill="none" stroke="gray"></path></g><path id="node_outline10" fill="none" stroke="none" d="M545.5,238.5h315a5,5,0,0,1,5,5v12a5,5,0,0,1,-5,5h-315a5,5,0,0,1,-5,-5v-12a5,5,0,0,1,5,-5z"></path><g id="node_text10" fill="black"><text id="kity_text_81" text-rendering="inherit" font-size="12" dy=".8em" y="243.5" x="550.5">组合元素，可指定id，添加&lt;title&gt;和&lt;desc&gt;元素作为注释</text></g></g><g id="minder_node13"><g id="node_expander12" style="cursor: pointer;"><path id="kity_path_149" fill="white" stroke="gray" d="M430.5,301.5A6,6,0,1,1,418.5,301.5A6,6,0,1,1,430.5,301.5"></path><path id="kity_path_150" fill="none" stroke="gray" d="M420,301.5L429,301.5"></path></g><path id="node_outline13" fill="none" stroke="none" d="M435.5,290.5h44a5,5,0,0,1,5,5v12a5,5,0,0,1,-5,5h-44a5,5,0,0,1,-5,-5v-12a5,5,0,0,1,5,-5z"></path><g id="node_text13" fill="black"><text id="kity_text_87" text-rendering="inherit" font-size="12" dy=".8em" y="295.5" x="440.5">&lt;use&gt;</text></g></g><g id="minder_node14"><g id="node_expander11" display="none" style="cursor: pointer;"><path id="kity_path_146" fill="white" stroke="gray" d="M540.5,301.5A6,6,0,1,1,528.5,301.5A6,6,0,1,1,540.5,301.5"></path><path id="kity_path_147" fill="none" stroke="gray"></path></g><path id="node_outline12" fill="none" stroke="none" d="M529.5,290.5h270a5,5,0,0,1,5,5v12a5,5,0,0,1,-5,5h-270a5,5,0,0,1,-5,-5v-12a5,5,0,0,1,5,-5z"></path><g id="node_text12" fill="black"><text id="kity_text_85" text-rendering="inherit" font-size="12" dy=".8em" y="295.5" x="534.5">使用定义的图形对象，通过xlink:href属性指定URI</text></g></g><g id="minder_node15"><g id="node_expander14" style="cursor: pointer;"><path id="kity_path_155" fill="white" stroke="gray" d="M430.5,353.5A6,6,0,1,1,418.5,353.5A6,6,0,1,1,430.5,353.5"></path><path id="kity_path_156" fill="none" stroke="gray" d="M420,353.5L429,353.5"></path></g><path id="node_outline15" fill="none" stroke="none" d="M435.5,342.5h49a5,5,0,0,1,5,5v12a5,5,0,0,1,-5,5h-49a5,5,0,0,1,-5,-5v-12a5,5,0,0,1,5,-5z"></path><g id="node_text15" fill="black"><text id="kity_text_91" text-rendering="inherit" font-size="12" dy=".8em" y="347.5" x="440.5">&lt;defs&gt;</text></g></g><g id="minder_node16"><g id="node_expander13" display="none" style="cursor: pointer;"><path id="kity_path_152" fill="white" stroke="gray" d="M545.5,353.5A6,6,0,1,1,533.5,353.5A6,6,0,1,1,545.5,353.5"></path><path id="kity_path_153" fill="none" stroke="gray"></path></g><path id="node_outline14" fill="none" stroke="none" d="M534.5,342.5h82a5,5,0,0,1,5,5v12a5,5,0,0,1,-5,5h-82a5,5,0,0,1,-5,-5v-12a5,5,0,0,1,5,-5z"></path><g id="node_text14" fill="black"><text id="kity_text_89" text-rendering="inherit" font-size="12" dy=".8em" y="347.5" x="539.5">只定义不显示</text></g></g><g id="minder_node17"><g id="node_expander16" style="cursor: pointer;"><path id="kity_path_161" fill="white" stroke="gray" d="M430.5,405.5A6,6,0,1,1,418.5,405.5A6,6,0,1,1,430.5,405.5"></path><path id="kity_path_162" fill="none" stroke="gray" d="M420,405.5L429,405.5"></path></g><path id="node_outline17" fill="none" stroke="none" d="M435.5,394.5h65a5,5,0,0,1,5,5v12a5,5,0,0,1,-5,5h-65a5,5,0,0,1,-5,-5v-12a5,5,0,0,1,5,-5z"></path><g id="node_text17" fill="black"><text id="kity_text_95" text-rendering="inherit" font-size="12" dy=".8em" y="399.5" x="440.5">&lt;symbol&gt;</text></g></g><g id="minder_node18"><g id="node_expander15" display="none" style="cursor: pointer;"><path id="kity_path_158" fill="white" stroke="gray" d="M561.5,405.5A6,6,0,1,1,549.5,405.5A6,6,0,1,1,561.5,405.5"></path><path id="kity_path_159" fill="none" stroke="gray"></path></g><path id="node_outline16" fill="none" stroke="none" d="M550.5,394.5h419a5,5,0,0,1,5,5v12a5,5,0,0,1,-5,5h-419a5,5,0,0,1,-5,-5v-12a5,5,0,0,1,5,-5z"></path><g id="node_text16" fill="black"><text id="kity_text_93" text-rendering="inherit" font-size="12" dy=".8em" y="399.5" x="555.5">另一种组合元素，定义后不会显示，可指定viewBox和preserveAspectRatio</text></g></g></g></g></svg>